<svg width="287" height="98" viewBox="0 0 287 98" fill="none" xmlns="http://www.w3.org/2000/svg">
<path d="M0.671875 48.6367C0.671875 21.8509 22.3819 0.136719 49.1625 0.136719H238.172C264.953 0.136719 286.663 21.8509 286.663 48.6367C286.663 75.4225 264.953 97.1367 238.172 97.1367H49.1625C22.3819 97.1367 0.671875 75.4225 0.671875 48.6367Z" fill="url(#paint0_linear)"/>
<path d="M74.55 45.2798H70.17L69.21 49.3898H73.14V52.3898H68.49L67.11 57.9998H63.87L65.28 52.3898H61.68L60.33 57.9998H57.09L58.47 52.3898H55.11V49.3898H59.19L60.18 45.2798H56.52V42.4598H60.87L62.28 36.6998H65.52L64.08 42.4598H67.68L69.06 36.6998H72.3L70.89 42.4598H74.55V45.2798ZM66 49.3898L66.96 45.2798H63.39L62.4 49.3898H66ZM81.7411 58.2998C80.9811 58.2998 80.2711 58.1798 79.6111 57.9398C78.9511 57.6798 78.3811 57.3298 77.9011 56.8898C77.4211 56.4298 77.0411 55.8998 76.7611 55.2998C76.5011 54.6998 76.3711 54.0398 76.3711 53.3198C76.3711 52.5798 76.5311 51.8998 76.8511 51.2798C77.1911 50.6398 77.6511 50.0998 78.2311 49.6598C78.8311 49.2198 79.5411 48.8798 80.3611 48.6398C81.1811 48.3798 82.0811 48.2498 83.0611 48.2498C83.7611 48.2498 84.4411 48.3098 85.1011 48.4298C85.7811 48.5498 86.3811 48.7198 86.9011 48.9398V48.0398C86.9011 46.9998 86.6011 46.1998 86.0011 45.6398C85.4211 45.0798 84.5511 44.7998 83.3911 44.7998C82.5511 44.7998 81.7311 44.9498 80.9311 45.2498C80.1311 45.5498 79.3111 45.9898 78.4711 46.5698L77.2411 44.0198C79.2611 42.6798 81.4411 42.0098 83.7811 42.0098C86.0411 42.0098 87.7911 42.5698 89.0311 43.6898C90.2911 44.7898 90.9211 46.3898 90.9211 48.4898V53.3798C90.9211 53.7998 90.9911 54.0998 91.1311 54.2798C91.2911 54.4598 91.5411 54.5598 91.8811 54.5798V57.9998C91.2011 58.1398 90.6111 58.2098 90.1111 58.2098C89.3511 58.2098 88.7611 58.0398 88.3411 57.6998C87.9411 57.3598 87.6911 56.9098 87.5911 56.3498L87.5011 55.4798C86.8011 56.3998 85.9511 57.0998 84.9511 57.5798C83.9511 58.0598 82.8811 58.2998 81.7411 58.2998ZM82.8811 55.3598C83.5611 55.3598 84.2011 55.2398 84.8011 54.9998C85.4211 54.7598 85.9011 54.4398 86.2411 54.0398C86.6811 53.6998 86.9011 53.3198 86.9011 52.8998V51.0998C86.4211 50.9198 85.9011 50.7798 85.3411 50.6798C84.7811 50.5598 84.2411 50.4998 83.7211 50.4998C82.6811 50.4998 81.8311 50.7398 81.1711 51.2198C80.5111 51.6798 80.1811 52.2698 80.1811 52.9898C80.1811 53.6698 80.4411 54.2398 80.9611 54.6998C81.4811 55.1398 82.1211 55.3598 82.8811 55.3598ZM113.768 42.2798H117.578L111.008 57.9998H107.708L105.008 51.0998L102.338 57.9998H99.0375L92.4975 42.2798H96.2775L100.958 54.2198L102.878 49.1198L100.118 42.3098H103.358L105.008 47.1398L106.688 42.3098H109.928L107.198 49.1198L109.088 54.2198L113.768 42.2798ZM123.343 58.2998C122.583 58.2998 121.873 58.1798 121.213 57.9398C120.553 57.6798 119.983 57.3298 119.503 56.8898C119.023 56.4298 118.643 55.8998 118.363 55.2998C118.103 54.6998 117.973 54.0398 117.973 53.3198C117.973 52.5798 118.133 51.8998 118.453 51.2798C118.793 50.6398 119.253 50.0998 119.833 49.6598C120.433 49.2198 121.143 48.8798 121.963 48.6398C122.783 48.3798 123.683 48.2498 124.663 48.2498C125.363 48.2498 126.043 48.3098 126.703 48.4298C127.383 48.5498 127.983 48.7198 128.503 48.9398V48.0398C128.503 46.9998 128.203 46.1998 127.603 45.6398C127.023 45.0798 126.153 44.7998 124.993 44.7998C124.153 44.7998 123.333 44.9498 122.533 45.2498C121.733 45.5498 120.913 45.9898 120.073 46.5698L118.843 44.0198C120.863 42.6798 123.043 42.0098 125.383 42.0098C127.643 42.0098 129.393 42.5698 130.633 43.6898C131.893 44.7898 132.523 46.3898 132.523 48.4898V53.3798C132.523 53.7998 132.593 54.0998 132.733 54.2798C132.893 54.4598 133.143 54.5598 133.483 54.5798V57.9998C132.803 58.1398 132.213 58.2098 131.713 58.2098C130.953 58.2098 130.363 58.0398 129.943 57.6998C129.543 57.3598 129.293 56.9098 129.193 56.3498L129.103 55.4798C128.403 56.3998 127.553 57.0998 126.553 57.5798C125.553 58.0598 124.483 58.2998 123.343 58.2998ZM124.483 55.3598C125.163 55.3598 125.803 55.2398 126.403 54.9998C127.023 54.7598 127.503 54.4398 127.843 54.0398C128.283 53.6998 128.503 53.3198 128.503 52.8998V51.0998C128.023 50.9198 127.503 50.7798 126.943 50.6798C126.383 50.5598 125.843 50.4998 125.323 50.4998C124.283 50.4998 123.433 50.7398 122.773 51.2198C122.113 51.6798 121.783 52.2698 121.783 52.9898C121.783 53.6698 122.043 54.2398 122.563 54.6998C123.083 55.1398 123.723 55.3598 124.483 55.3598ZM145.639 45.7598C144.419 45.7798 143.329 46.0198 142.369 46.4798C141.409 46.9198 140.719 47.5898 140.299 48.4898V57.9998H136.279V42.2798H139.969V45.6398C140.249 45.0998 140.579 44.6198 140.959 44.1998C141.339 43.7598 141.749 43.3798 142.189 43.0598C142.629 42.7398 143.069 42.4998 143.509 42.3398C143.969 42.1598 144.409 42.0698 144.829 42.0698C145.049 42.0698 145.209 42.0698 145.309 42.0698C145.429 42.0698 145.539 42.0798 145.639 42.0998V45.7598ZM154.38 58.2998C153.12 58.2998 151.98 58.0898 150.96 57.6698C149.94 57.2298 149.07 56.6398 148.35 55.8998C147.63 55.1598 147.07 54.2998 146.67 53.3198C146.29 52.3398 146.1 51.3098 146.1 50.2298C146.1 49.1098 146.29 48.0598 146.67 47.0798C147.05 46.0798 147.6 45.2098 148.32 44.4698C149.04 43.7098 149.91 43.1098 150.93 42.6698C151.97 42.2298 153.13 42.0098 154.41 42.0098C155.69 42.0098 156.83 42.2298 157.83 42.6698C158.85 43.1098 159.71 43.6998 160.41 44.4398C161.13 45.1798 161.67 46.0398 162.03 47.0198C162.41 47.9998 162.6 49.0198 162.6 50.0798C162.6 50.3398 162.59 50.5898 162.57 50.8298C162.57 51.0698 162.55 51.2698 162.51 51.4298H150.36C150.42 52.0498 150.57 52.5998 150.81 53.0798C151.05 53.5598 151.36 53.9698 151.74 54.3098C152.12 54.6498 152.55 54.9098 153.03 55.0898C153.51 55.2698 154.01 55.3598 154.53 55.3598C155.33 55.3598 156.08 55.1698 156.78 54.7898C157.5 54.3898 157.99 53.8698 158.25 53.2298L161.7 54.1898C161.12 55.3898 160.19 56.3798 158.91 57.1598C157.65 57.9198 156.14 58.2998 154.38 58.2998ZM158.46 48.8198C158.36 47.6398 157.92 46.6998 157.14 45.9998C156.38 45.2798 155.45 44.9198 154.35 44.9198C153.81 44.9198 153.3 45.0198 152.82 45.2198C152.36 45.3998 151.95 45.6598 151.59 45.9998C151.23 46.3398 150.93 46.7498 150.69 47.2298C150.47 47.7098 150.34 48.2398 150.3 48.8198H158.46ZM179.659 57.9998H175.639V49.1798C175.639 47.9198 175.419 46.9998 174.979 46.4198C174.539 45.8398 173.929 45.5498 173.149 45.5498C172.749 45.5498 172.339 45.6298 171.919 45.7898C171.499 45.9498 171.099 46.1798 170.719 46.4798C170.359 46.7598 170.029 47.0998 169.729 47.4998C169.429 47.8998 169.209 48.3398 169.069 48.8198V57.9998H165.049V42.2798H168.679V45.1898C169.259 44.1898 170.099 43.4098 171.199 42.8498C172.299 42.2898 173.539 42.0098 174.919 42.0098C175.899 42.0098 176.699 42.1898 177.319 42.5498C177.939 42.9098 178.419 43.3798 178.759 43.9598C179.099 44.5398 179.329 45.1998 179.449 45.9398C179.589 46.6798 179.659 47.4298 179.659 48.1898V57.9998ZM190.444 58.2998C189.184 58.2998 188.044 58.0898 187.024 57.6698C186.004 57.2298 185.134 56.6398 184.414 55.8998C183.694 55.1598 183.134 54.2998 182.734 53.3198C182.354 52.3398 182.164 51.3098 182.164 50.2298C182.164 49.1098 182.354 48.0598 182.734 47.0798C183.114 46.0798 183.664 45.2098 184.384 44.4698C185.104 43.7098 185.974 43.1098 186.994 42.6698C188.034 42.2298 189.194 42.0098 190.474 42.0098C191.754 42.0098 192.894 42.2298 193.894 42.6698C194.914 43.1098 195.774 43.6998 196.474 44.4398C197.194 45.1798 197.734 46.0398 198.094 47.0198C198.474 47.9998 198.664 49.0198 198.664 50.0798C198.664 50.3398 198.654 50.5898 198.634 50.8298C198.634 51.0698 198.614 51.2698 198.574 51.4298H186.424C186.484 52.0498 186.634 52.5998 186.874 53.0798C187.114 53.5598 187.424 53.9698 187.804 54.3098C188.184 54.6498 188.614 54.9098 189.094 55.0898C189.574 55.2698 190.074 55.3598 190.594 55.3598C191.394 55.3598 192.144 55.1698 192.844 54.7898C193.564 54.3898 194.054 53.8698 194.314 53.2298L197.764 54.1898C197.184 55.3898 196.254 56.3798 194.974 57.1598C193.714 57.9198 192.204 58.2998 190.444 58.2998ZM194.524 48.8198C194.424 47.6398 193.984 46.6998 193.204 45.9998C192.444 45.2798 191.514 44.9198 190.414 44.9198C189.874 44.9198 189.364 45.0198 188.884 45.2198C188.424 45.3998 188.014 45.6598 187.654 45.9998C187.294 46.3398 186.994 46.7498 186.754 47.2298C186.534 47.7098 186.404 48.2398 186.364 48.8198H194.524ZM207.053 58.2998C205.733 58.2998 204.443 58.0898 203.183 57.6698C201.923 57.2498 200.843 56.6498 199.943 55.8698L201.443 53.3498C202.403 54.0298 203.333 54.5498 204.233 54.9098C205.153 55.2498 206.063 55.4198 206.963 55.4198C207.763 55.4198 208.393 55.2698 208.853 54.9698C209.313 54.6698 209.543 54.2398 209.543 53.6798C209.543 53.1198 209.273 52.7098 208.733 52.4498C208.193 52.1898 207.313 51.8898 206.093 51.5498C205.073 51.2698 204.203 50.9998 203.483 50.7398C202.763 50.4798 202.183 50.1898 201.743 49.8698C201.303 49.5298 200.983 49.1498 200.783 48.7298C200.583 48.2898 200.483 47.7698 200.483 47.1698C200.483 46.3698 200.633 45.6498 200.933 45.0098C201.253 44.3698 201.693 43.8298 202.253 43.3898C202.813 42.9298 203.463 42.5798 204.203 42.3398C204.963 42.0998 205.783 41.9798 206.663 41.9798C207.843 41.9798 208.943 42.1498 209.963 42.4898C211.003 42.8298 211.953 43.3798 212.813 44.1398L211.193 46.5698C210.393 45.9698 209.613 45.5298 208.853 45.2498C208.113 44.9698 207.373 44.8298 206.633 44.8298C205.953 44.8298 205.383 44.9698 204.923 45.2498C204.463 45.5298 204.233 45.9798 204.233 46.5998C204.233 46.8798 204.283 47.1098 204.383 47.2898C204.503 47.4698 204.683 47.6298 204.923 47.7698C205.163 47.9098 205.473 48.0498 205.853 48.1898C206.253 48.3098 206.743 48.4398 207.323 48.5798C208.403 48.8598 209.323 49.1398 210.083 49.4198C210.863 49.6998 211.493 50.0198 211.973 50.3798C212.473 50.7398 212.833 51.1598 213.053 51.6398C213.293 52.0998 213.413 52.6598 213.413 53.3198C213.413 54.8598 212.843 56.0798 211.703 56.9798C210.563 57.8598 209.013 58.2998 207.053 58.2998ZM221.965 58.2998C220.645 58.2998 219.355 58.0898 218.095 57.6698C216.835 57.2498 215.755 56.6498 214.855 55.8698L216.355 53.3498C217.315 54.0298 218.245 54.5498 219.145 54.9098C220.065 55.2498 220.975 55.4198 221.875 55.4198C222.675 55.4198 223.305 55.2698 223.765 54.9698C224.225 54.6698 224.455 54.2398 224.455 53.6798C224.455 53.1198 224.185 52.7098 223.645 52.4498C223.105 52.1898 222.225 51.8898 221.005 51.5498C219.985 51.2698 219.115 50.9998 218.395 50.7398C217.675 50.4798 217.095 50.1898 216.655 49.8698C216.215 49.5298 215.895 49.1498 215.695 48.7298C215.495 48.2898 215.395 47.7698 215.395 47.1698C215.395 46.3698 215.545 45.6498 215.845 45.0098C216.165 44.3698 216.605 43.8298 217.165 43.3898C217.725 42.9298 218.375 42.5798 219.115 42.3398C219.875 42.0998 220.695 41.9798 221.575 41.9798C222.755 41.9798 223.855 42.1498 224.875 42.4898C225.915 42.8298 226.865 43.3798 227.725 44.1398L226.105 46.5698C225.305 45.9698 224.525 45.5298 223.765 45.2498C223.025 44.9698 222.285 44.8298 221.545 44.8298C220.865 44.8298 220.295 44.9698 219.835 45.2498C219.375 45.5298 219.145 45.9798 219.145 46.5998C219.145 46.8798 219.195 47.1098 219.295 47.2898C219.415 47.4698 219.595 47.6298 219.835 47.7698C220.075 47.9098 220.385 48.0498 220.765 48.1898C221.165 48.3098 221.655 48.4398 222.235 48.5798C223.315 48.8598 224.235 49.1398 224.995 49.4198C225.775 49.6998 226.405 50.0198 226.885 50.3798C227.385 50.7398 227.745 51.1598 227.965 51.6398C228.205 52.0998 228.325 52.6598 228.325 53.3198C228.325 54.8598 227.755 56.0798 226.615 56.9798C225.475 57.8598 223.925 58.2998 221.965 58.2998Z" fill="url(#paint1_linear)"/>
<defs>
<linearGradient id="paint0_linear" x1="144.693" y1="-0.000267518" x2="187.277" y2="162.526" gradientUnits="userSpaceOnUse">
<stop stop-color="#141414"/>
<stop offset="1" stop-color="#222222"/>
</linearGradient>
<linearGradient id="paint1_linear" x1="143.5" y1="29.9998" x2="143.5" y2="60.9998" gradientUnits="userSpaceOnUse">
<stop stop-color="white"/>
<stop offset="1" stop-color="#959595"/>
</linearGradient>
</defs>
</svg>
