<svg width="133" height="141" viewBox="0 0 133 141" fill="none" xmlns="http://www.w3.org/2000/svg">
<g filter="url(#filter0_f)">
<path d="M70.776 35.549C91.1317 47.6569 105.818 73.1227 103.582 92.4249C101.347 111.727 83.0332 117.564 62.6778 105.453C42.3221 93.3453 27.6359 67.8795 29.8714 48.5773C32.1069 29.275 50.4203 23.4411 70.776 35.549ZM85.9598 103.846C89.0776 102.852 91.64 101.063 93.5777 98.5302C95.5822 95.9074 96.8284 92.5945 97.2817 88.6792C97.7349 84.764 97.3679 80.4903 96.1887 75.9756C95.0494 71.6097 93.2036 67.1979 90.7044 62.8655C88.2052 58.5331 85.177 54.4966 81.7094 50.8744C78.1212 47.1275 74.2104 43.9829 70.0808 41.527C65.9512 39.0711 61.8619 37.4552 57.9245 36.7277C54.1189 36.0234 50.6077 36.168 47.49 37.1617C44.3722 38.1553 41.8097 39.944 39.872 42.4771C37.8678 45.0972 36.6213 48.4128 36.1681 52.3281C35.7148 56.2433 36.0818 60.517 37.2611 65.0317C38.4003 69.3975 40.2465 73.8066 42.7454 78.1417C45.2446 82.4742 48.2692 86.5102 51.7404 90.1329C55.3286 93.8797 59.2393 97.0244 63.3689 99.4803C67.495 101.936 71.5846 103.549 75.5218 104.279C79.3308 104.984 82.8423 104.836 85.9598 103.846Z" fill="#DE0C88"/>
<path d="M93.2861 76.7337L93.2859 76.7331C92.2213 72.6534 90.4853 68.4895 88.1057 64.3646C85.7272 60.2414 82.8443 56.3982 79.5427 52.9493C76.1266 49.3823 72.4259 46.4121 68.5474 44.1055C64.6624 41.7951 60.9052 40.3292 57.3794 39.6778L57.3785 39.6776C53.9688 39.0465 50.9679 39.2019 48.4009 40.02C45.8525 40.8322 43.8096 42.2673 42.2548 44.2998L93.2861 76.7337ZM93.2861 76.7337C94.3881 80.9529 94.705 84.849 94.3016 88.3342C93.8985 91.8161 92.8124 94.5906 91.195 96.7074C89.6406 98.7394 87.5984 100.174 85.051 100.987C82.4821 101.803 79.4801 101.96 76.0689 101.329C72.5408 100.675 68.7827 99.211 64.9031 96.9022L64.9024 96.9018C61.0238 94.5952 57.3231 91.625 53.907 88.0579L53.9065 88.0574M93.2861 76.7337L53.9065 88.0574M40.1637 64.2735L40.1639 64.2742C41.2282 68.353 42.9643 72.5142 45.344 76.6427L40.1637 64.2735ZM40.1637 64.2735C39.0616 60.0543 38.7447 56.1583 39.1482 52.6731C39.5514 49.1898 40.6383 46.4131 42.2548 44.2999L40.1637 64.2735ZM53.9065 88.0574C50.6028 84.6095 47.7235 80.7674 45.3445 76.6435L53.9065 88.0574ZM106.563 92.7701C107.777 82.2814 104.392 70.4391 98.2497 59.7902C92.0884 49.1079 82.9811 39.3182 72.3097 32.9706C61.6741 26.6444 51.1034 24.7231 42.6182 27.4258C33.9331 30.1922 28.1245 37.5843 26.8913 48.2321C25.6765 58.7208 29.0622 70.5631 35.2042 81.212C41.3654 91.8942 50.4726 101.684 61.1439 108.031C71.7795 114.359 82.3503 116.281 90.8357 113.577C99.5208 110.811 105.329 103.418 106.563 92.7701Z" stroke="#00E1E1" stroke-width="6"/>
</g>
<path d="M69.1795 39.8647C51.5228 29.3612 35.6403 34.4214 33.6986 51.1671C31.7603 67.9132 44.4992 89.9994 62.1559 100.503C79.8127 111.006 95.6951 105.946 97.6369 89.2006C99.5786 72.4549 86.8366 50.3655 69.1795 39.8647Z" fill="#00E1E1"/>
<path d="M85.1705 103.766C83.094 103.969 80.8831 103.854 78.5623 103.424C77.1332 103.158 75.6817 102.776 74.2146 102.282C71.6458 101.411 69.0351 100.188 66.4094 98.6253C62.2798 96.1694 58.3691 93.0248 54.7809 89.2779C51.3132 85.6557 48.2848 81.6219 45.7859 77.2868C45.5754 76.9218 45.3716 76.5603 45.1719 76.1938C42.9839 72.2127 41.3476 68.1741 40.3051 64.1771C40.2203 63.8595 40.1428 63.54 40.0685 63.2236C39.0803 59.0579 38.7902 55.1092 39.2124 51.4707C39.6657 47.5555 40.9118 44.2426 42.9163 41.6198C44.8294 39.1172 47.3512 37.3434 50.4133 36.3408L44.1757 38.3778C41.1139 39.3777 38.5918 41.1542 36.6787 43.6568C34.6746 46.2769 33.4281 49.5925 32.9748 53.5078C32.5526 57.1462 32.8428 61.0949 33.8309 65.2606C33.9052 65.577 33.9865 65.8942 34.0675 66.2141C35.11 70.2111 36.7463 74.2497 38.9343 78.2308C39.1343 78.5946 39.3413 78.9592 39.5483 79.3238C42.0475 83.6562 45.0721 87.6923 48.5433 91.315C52.1315 95.0618 56.0423 98.2064 60.1719 100.662C62.7975 102.225 65.4118 103.448 67.977 104.319C69.4438 104.816 70.8918 105.198 72.3247 105.461C74.6455 105.891 76.8529 106.005 78.9329 105.803C80.2646 105.674 81.5401 105.415 82.7592 105.027L88.9968 102.99C87.7812 103.378 86.5021 103.637 85.1705 103.766Z" fill="#0EB5B5"/>
<path d="M82.7583 105.03L88.9959 102.993C89.0362 102.98 89.0769 102.966 89.1172 102.953L82.8796 104.99C82.8393 105.003 82.7986 105.017 82.7583 105.03Z" fill="#827116"/>
<path d="M106.626 91.5759C106.354 93.9433 105.835 96.1055 105.106 98.0582C102.876 104.022 98.6312 108.023 93.1141 109.824L86.873 111.861C92.3901 110.06 96.6348 106.059 98.865 100.098C99.5977 98.1426 100.113 95.98 100.385 93.6126C100.519 92.4535 100.591 91.271 100.605 90.0736C100.637 87.5209 100.401 84.8883 99.9253 82.2122C99.7629 81.292 99.5697 80.3628 99.3482 79.4331C98.8847 77.4717 98.2954 75.4961 97.5891 73.5212C96.7113 71.0554 95.6524 68.5941 94.4343 66.1622C94.0261 65.3504 93.6033 64.5425 93.1623 63.7382C92.1326 61.8686 91.0115 60.0249 89.8006 58.2238C88.2656 55.934 86.5924 53.7092 84.7987 51.5791C83.9209 50.5342 83.0152 49.5168 82.0787 48.5208C80.7313 47.0847 79.3279 45.7061 77.8716 44.3882C76.7785 43.3997 75.6598 42.4499 74.512 41.5385C73.101 40.4172 71.6511 39.3581 70.1652 38.3672C69.312 37.7969 68.4453 37.2529 67.5691 36.73C67.3866 36.6207 67.2038 36.5141 67.021 36.4076C66.9643 36.3763 66.9079 36.3422 66.8513 36.3108C66.7213 36.238 66.5917 36.1624 66.4618 36.0895C66.3984 36.0547 66.3385 36.0202 66.2752 35.9853C66.1452 35.9125 66.015 35.8424 65.8886 35.7699C65.8319 35.7386 65.7784 35.7104 65.7217 35.679C65.538 35.5807 65.3581 35.4801 65.174 35.3845C65.1708 35.3813 65.1673 35.381 65.1641 35.3778C65.1441 35.3672 65.1275 35.3571 65.1072 35.3492C64.9502 35.265 64.7894 35.1831 64.6324 35.0989C64.5754 35.0703 64.5184 35.0417 64.4614 35.0131C64.3341 34.9489 64.2067 34.8847 64.0794 34.8204C64.0157 34.7883 63.9552 34.7593 63.8915 34.7272C63.7642 34.663 63.6365 34.6015 63.5091 34.5372C63.4553 34.5118 63.4019 34.4835 63.3481 34.4581C63.1666 34.3711 62.9886 34.2846 62.8069 34.2003C62.8002 34.1968 62.7935 34.1933 62.7868 34.1898C62.6117 34.1091 62.4398 34.0315 62.2682 33.9512C62.2109 33.9253 62.1571 33.8999 62.0995 33.8768C61.9747 33.8211 61.85 33.7655 61.7252 33.7099C61.6644 33.6836 61.6001 33.657 61.5393 33.6308C61.4145 33.5751 61.2859 33.5219 61.1609 33.469C61.1068 33.4463 61.0526 33.4235 60.9985 33.4008C60.8193 33.3252 60.6433 33.2527 60.4673 33.1803C60.4572 33.1763 60.4435 33.172 60.4333 33.1681C60.2671 33.1023 60.101 33.0365 59.9349 32.9707C59.8805 32.9507 59.8229 32.9276 59.7685 32.9076C59.6463 32.8606 59.524 32.8136 59.4015 32.7693C59.3404 32.7458 59.279 32.725 59.2179 32.7015C59.1193 32.6655 59.0171 32.6291 58.915 32.5926C58.8911 32.5844 58.8672 32.5762 58.8434 32.568C58.789 32.548 58.7377 32.5311 58.6868 32.5115C58.5096 32.45 58.3358 32.3889 58.1618 32.3305C58.0116 32.2804 57.8614 32.2302 57.7113 32.1801C57.6976 32.1758 57.6839 32.1715 57.6667 32.1668C57.5334 32.1241 57.3969 32.0782 57.2633 32.0383C57.2121 32.0214 57.1605 32.0073 57.1128 31.9909C57.0135 31.9603 56.9178 31.9301 56.8185 31.8996C56.7603 31.8819 56.6986 31.8639 56.6404 31.8463C56.5513 31.8196 56.4622 31.793 56.3728 31.7691C56.3111 31.7511 56.2459 31.7327 56.1807 31.7142C56.0948 31.6907 56.0124 31.6676 55.9265 31.6441C55.8613 31.6257 55.7961 31.6073 55.7271 31.5912C55.6482 31.5685 55.5655 31.5481 55.4831 31.525C55.4178 31.5066 55.3488 31.4905 55.2836 31.4721C55.2044 31.4521 55.1252 31.4321 55.0425 31.4117C54.977 31.3961 54.9083 31.3773 54.8393 31.3612C54.7601 31.3412 54.6809 31.3212 54.6013 31.304C54.5358 31.2883 54.4668 31.2722 54.3978 31.2562C54.3218 31.2393 54.2426 31.2193 54.1666 31.2025C54.0975 31.1864 54.0317 31.1735 53.9627 31.1574C53.8867 31.1406 53.8072 31.1233 53.7311 31.1065C53.6618 31.0932 53.5963 31.0775 53.527 31.0642C53.4507 31.05 53.3746 31.0332 53.2983 31.0191C53.229 31.0058 53.1632 30.9928 53.0939 30.9795C53.0175 30.9654 52.9447 30.9517 52.8684 30.9376C52.7991 30.9242 52.7329 30.914 52.6636 30.9007C52.5873 30.8866 52.5145 30.8729 52.4378 30.8615C52.3682 30.8509 52.3024 30.838 52.2327 30.8274C52.1596 30.8164 52.0833 30.8023 52.0102 30.7913C51.944 30.7812 51.8744 30.7706 51.8082 30.7604C51.7351 30.7494 51.662 30.7384 51.5853 30.7271C51.5192 30.7169 51.4531 30.7067 51.3831 30.6988C51.31 30.6879 51.2366 30.6796 51.1634 30.6686C51.097 30.6612 51.0309 30.651 50.9609 30.6432C50.8875 30.6349 50.8144 30.6239 50.7409 30.6157L50.671 30.6079L56.9051 28.5704L56.9785 28.5787C57.0519 28.5869 57.1254 28.5951 57.202 28.6065C57.2684 28.614 57.3346 28.6241 57.401 28.6316C57.4741 28.6426 57.5476 28.6508 57.6242 28.6622C57.6904 28.6724 57.7568 28.6798 57.8229 28.69C57.8961 28.701 57.9727 28.7124 58.0458 28.7233C58.112 28.7335 58.1781 28.7437 58.2477 28.7543C58.3243 28.7657 58.3972 28.7794 58.4738 28.7908C58.5399 28.801 58.6058 28.8139 58.6754 28.8245C58.7517 28.8386 58.8248 28.8496 58.9012 28.8637C58.967 28.8766 59.0366 28.8872 59.1025 28.9001C59.1788 28.9142 59.2551 28.9283 59.3314 28.9425L59.5324 28.9816C59.6087 28.9958 59.6847 29.0126 59.7646 29.0271C59.8304 29.04 59.8994 29.0561 59.9652 29.069C60.0412 29.0859 60.1208 29.1031 60.2003 29.1204C60.2661 29.1333 60.3351 29.1494 60.4006 29.1651C60.4801 29.1823 60.5559 29.2019 60.6354 29.2191C60.7009 29.2348 60.7664 29.2505 60.8354 29.2666C60.9149 29.2838 60.9941 29.3038 61.0733 29.3238C61.1389 29.3394 61.2079 29.3555 61.2734 29.3712C61.3526 29.3912 61.4353 29.4115 61.5177 29.4347C61.5832 29.4503 61.6484 29.4687 61.714 29.4844C61.7967 29.5048 61.879 29.5279 61.9614 29.551C62.0269 29.5667 62.0887 29.5847 62.1539 29.6031C62.2398 29.6267 62.3254 29.6529 62.4113 29.6764C62.473 29.6944 62.5347 29.7125 62.5964 29.7305C62.6855 29.7571 62.7781 29.7842 62.8706 29.8112C62.9288 29.8288 62.9839 29.8433 63.0421 29.861C63.1449 29.8919 63.2476 29.9229 63.3469 29.9534C63.3949 29.9671 63.4391 29.9832 63.4872 29.9969C63.6342 30.0439 63.7812 30.0909 63.9247 30.1376C63.9282 30.138 63.9313 30.1411 63.9348 30.1415C64.0818 30.1885 64.232 30.2386 64.3787 30.2884C64.3787 30.2884 64.3822 30.2888 64.3854 30.2919C64.5594 30.3503 64.7332 30.4114 64.9069 30.4725C64.9578 30.4921 65.0126 30.5094 65.067 30.5293C65.0873 30.5372 65.1112 30.5454 65.1316 30.5532C65.2337 30.5897 65.3359 30.6261 65.4377 30.6653C65.4988 30.6888 65.5602 30.7096 65.6248 30.7334C65.7473 30.7777 65.8695 30.8247 65.9917 30.8717C66.0497 30.8921 66.1038 30.9148 66.1614 30.9379C66.3278 31.001 66.4904 31.0664 66.6566 31.1322C66.6702 31.1366 66.6804 31.1405 66.6938 31.1475C66.8698 31.22 67.0458 31.2925 67.2253 31.3653C67.2794 31.3881 67.3335 31.4108 67.3876 31.4335C67.5127 31.4864 67.6378 31.5393 67.7626 31.5949C67.8234 31.6211 67.8877 31.6478 67.9517 31.6772C68.0767 31.73 68.2015 31.7857 68.3228 31.8409C68.3801 31.8668 68.4377 31.8899 68.495 31.9157C68.6669 31.9933 68.8353 32.0705 69.0069 32.1508C69.0136 32.1543 69.0238 32.1582 69.0304 32.1617C69.2087 32.2456 69.3902 32.3325 69.5681 32.4191C69.6219 32.4446 69.6789 32.4731 69.7327 32.4986C69.8604 32.5601 69.9881 32.6216 70.1154 32.6858C70.1791 32.718 70.2396 32.747 70.3033 32.7791C70.4306 32.8433 70.558 32.9075 70.6818 32.9714C70.7388 33 70.7958 33.0286 70.8525 33.0599C71.0098 33.1414 71.1671 33.2229 71.324 33.3071C71.3441 33.3177 71.361 33.3251 71.3811 33.3357C71.3842 33.3388 71.3912 33.3396 71.3944 33.3427C71.575 33.4379 71.7584 33.539 71.9386 33.6369C71.9953 33.6682 72.0488 33.6964 72.1055 33.7278C72.2322 33.7975 72.3624 33.8676 72.4924 33.9405C72.5557 33.9753 72.6191 34.0102 72.6822 34.0478C72.8086 34.1203 72.9386 34.1931 73.0682 34.2687C73.1249 34.3001 73.1812 34.3341 73.2379 34.3655C73.4207 34.472 73.6035 34.5785 73.786 34.6878C74.6625 35.208 75.5255 35.7544 76.3824 36.3223C77.8683 37.3133 79.3182 38.3723 80.7292 39.4937C81.877 40.405 82.9957 41.3548 84.0888 42.3433C85.5454 43.6585 86.9485 45.0398 88.2962 46.4732C89.2295 47.466 90.1381 48.4894 91.0162 49.5315C92.8099 51.6616 94.4832 53.8864 96.0181 56.1762C97.2287 57.98 98.3498 59.8237 99.3795 61.6933C99.8207 62.4949 100.247 63.3032 100.652 64.1146C101.87 66.5465 102.929 69.0077 103.807 71.4736C104.513 73.4485 105.102 75.424 105.565 77.3883C105.787 78.3179 105.977 79.244 106.143 80.1646C106.618 82.8407 106.854 85.4733 106.823 88.026C106.832 89.2344 106.76 90.4169 106.626 91.5759Z" fill="#00E1E1"/>
<path d="M56.9313 28.5739L50.6972 30.6113C50.6552 30.6066 50.6098 30.6015 50.5678 30.5968C50.4944 30.5886 50.4209 30.5803 50.3475 30.5721C50.281 30.5646 50.2146 30.5572 50.1478 30.5525C50.0741 30.547 50.0041 30.5391 49.9304 30.5336C49.8637 30.5289 49.7972 30.5215 49.7305 30.5168C49.6602 30.5117 49.5868 30.5034 49.513 30.4979C49.4463 30.4932 49.383 30.4889 49.3163 30.4842C49.246 30.4791 49.1723 30.4736 49.1017 30.4712C49.035 30.4665 48.9717 30.4622 48.9047 30.4602C48.8341 30.4579 48.7604 30.4524 48.6898 30.45C48.6266 30.4457 48.563 30.4441 48.4959 30.4421C48.4254 30.4398 48.3548 30.4374 48.2808 30.4347C48.2172 30.4331 48.1536 30.4315 48.0901 30.4299C48.0195 30.4276 47.9487 30.4279 47.8781 30.4256C47.8145 30.424 47.751 30.4224 47.6871 30.4236C47.6162 30.424 47.5457 30.4216 47.4748 30.422C47.411 30.4232 47.3509 30.422 47.287 30.4231C47.2162 30.4235 47.1488 30.4243 47.0744 30.4243C47.0141 30.4258 46.9502 30.427 46.8863 30.4281C46.8155 30.4285 46.7478 30.432 46.6769 30.4324C46.6166 30.434 46.5527 30.4351 46.4923 30.4367C46.4211 30.4398 46.3535 30.4433 46.2823 30.4464C46.2219 30.448 46.1612 30.4523 46.1009 30.4539C46.0297 30.457 45.9617 30.4632 45.8906 30.4663C45.8299 30.4706 45.773 30.4726 45.7123 30.4769C45.6408 30.4828 45.5732 30.4863 45.4982 30.4917C45.441 30.4964 45.3838 30.5011 45.3231 30.5054C45.2517 30.5113 45.1802 30.5171 45.1087 30.523C45.0515 30.5277 44.9944 30.5324 44.9372 30.5371C44.9121 30.5398 44.887 30.5425 44.8619 30.5453C44.6935 30.5625 44.5252 30.5797 44.3565 30.5996C44.3241 30.6043 44.2917 30.609 44.2561 30.6105C44.0767 30.6321 43.9004 30.6567 43.7238 30.6841C43.6879 30.6884 43.6517 30.6954 43.612 30.7021C43.4393 30.7271 43.2662 30.7549 43.0963 30.7858C43.089 30.7877 43.0782 30.7893 43.0674 30.7909C42.8905 30.821 42.713 30.8566 42.539 30.8926C42.5028 30.8996 42.4628 30.909 42.4266 30.916C42.2526 30.952 42.0821 30.9884 41.9144 31.0307C41.889 31.0362 41.8633 31.0444 41.8379 31.0499C41.6814 31.0878 41.5249 31.1258 41.3716 31.1669C41.3423 31.1747 41.3131 31.1825 41.2842 31.1876C41.1163 31.2326 40.9516 31.2807 40.7868 31.3289C40.7503 31.3387 40.7173 31.3488 40.6808 31.3586C40.5122 31.4091 40.3434 31.4623 40.178 31.5159L46.4156 29.4789C46.581 29.4253 46.7498 29.372 46.9184 29.3216C46.9549 29.3118 46.9879 29.3016 47.0244 29.2918C47.1891 29.2437 47.3539 29.1956 47.5218 29.1506C47.551 29.1427 47.5802 29.1349 47.6091 29.1298C47.7625 29.0887 47.919 29.0508 48.0755 29.0128C48.1009 29.0073 48.1263 29.0019 48.152 28.9936C48.3193 28.9541 48.4936 28.9154 48.6642 28.879C48.7004 28.872 48.7404 28.8626 48.7766 28.8555C48.9506 28.8195 49.1277 28.7867 49.3049 28.7538C49.3122 28.7519 49.323 28.7503 49.3338 28.7487C49.5037 28.7178 49.6768 28.6901 49.8496 28.665C49.8858 28.658 49.9217 28.6537 49.9614 28.647C50.1377 28.6224 50.3139 28.5978 50.4937 28.5735C50.5261 28.5688 50.5617 28.5673 50.5941 28.5626C50.7593 28.5422 50.9276 28.525 51.096 28.5078C51.1138 28.5071 51.1284 28.5031 51.1461 28.5024C51.1569 28.5008 51.1639 28.5016 51.1747 28.5C51.2319 28.4953 51.2856 28.4902 51.3428 28.4856C51.4143 28.4797 51.4858 28.4738 51.5572 28.468C51.6144 28.4633 51.6716 28.4586 51.7323 28.4543C51.8037 28.4484 51.8749 28.4453 51.9464 28.4395C52.0036 28.4348 52.064 28.4332 52.1246 28.4289C52.1958 28.4258 52.2673 28.4199 52.3385 28.4168C52.3988 28.4153 52.4595 28.411 52.5199 28.4094C52.5911 28.4063 52.6622 28.4032 52.7334 28.4C52.7938 28.3985 52.8541 28.3969 52.918 28.3958C52.9892 28.3927 53.0565 28.3919 53.1309 28.3919C53.1913 28.3903 53.2551 28.3892 53.3152 28.3904C53.3861 28.39 53.4569 28.3896 53.5278 28.3892C53.5917 28.3881 53.6517 28.3892 53.7156 28.3881C53.7865 28.3877 53.857 28.3901 53.9279 28.3897C53.9914 28.3913 54.0515 28.3924 54.1154 28.3913C54.1859 28.3936 54.2568 28.3933 54.3308 28.396C54.3944 28.3976 54.458 28.3992 54.5215 28.4008C54.5921 28.4031 54.6661 28.4059 54.7367 28.4082C54.8003 28.4098 54.8635 28.4141 54.9306 28.4161C55.0011 28.4185 55.0749 28.424 55.1454 28.4263C55.2087 28.4306 55.2757 28.4326 55.339 28.4369C55.4092 28.442 55.4833 28.4448 55.5536 28.4499C55.6168 28.4542 55.6836 28.4589 55.7503 28.4636C55.8241 28.4691 55.8943 28.4742 55.9677 28.4825C56.0345 28.4872 56.0974 28.4942 56.1642 28.4989C56.2379 28.5044 56.3114 28.5127 56.3851 28.5182C56.4516 28.5256 56.5148 28.5299 56.5813 28.5374C56.6547 28.5456 56.7281 28.5539 56.8016 28.5621C56.8508 28.5648 56.8928 28.5695 56.9313 28.5739Z" fill="#05C6C6"/>
<path d="M76.4178 36.3298L70.1799 38.3695C69.3268 37.7993 68.46 37.2552 67.5838 36.7323C67.4013 36.623 67.2185 36.5165 67.0357 36.4099C66.9791 36.3786 66.9227 36.3445 66.866 36.3132C66.7361 36.2403 66.6064 36.1647 66.4765 36.0919C66.4131 36.057 66.3533 36.0226 66.2899 35.9877C66.16 35.9148 66.0297 35.8447 65.9033 35.7723C65.8466 35.7409 65.7931 35.7127 65.7364 35.6814C65.5527 35.5831 65.3728 35.4824 65.1887 35.3868C65.1855 35.3837 65.1821 35.3833 65.1789 35.3802C65.1588 35.3696 65.1422 35.3594 65.1219 35.3516C64.9649 35.2674 64.8041 35.1855 64.6471 35.1013C64.5901 35.0727 64.5331 35.0441 64.4761 35.0155C64.3488 34.9512 64.2214 34.887 64.0941 34.8228C64.0304 34.7906 63.9699 34.7617 63.9063 34.7295C63.7789 34.6653 63.6512 34.6038 63.5239 34.5396C63.4701 34.5141 63.4166 34.4859 63.3628 34.4604C63.1813 34.3735 63.0033 34.2869 62.8216 34.2027C62.8149 34.1992 62.8082 34.1956 62.8015 34.1921C62.6264 34.1114 62.4545 34.0338 62.283 33.9535C62.2257 33.9277 62.1719 33.9022 62.1143 33.8791C61.9895 33.8235 61.8647 33.7679 61.7399 33.7122C61.6791 33.686 61.6148 33.6594 61.554 33.6331C61.4292 33.5775 61.3007 33.5242 61.1756 33.4713C61.1215 33.4486 61.0674 33.4259 61.0133 33.4032C60.8341 33.3276 60.658 33.2551 60.482 33.1826C60.4719 33.1787 60.4582 33.1744 60.448 33.1705C60.2819 33.1047 60.1157 33.0388 59.9496 32.973C59.8952 32.953 59.8376 32.9299 59.7832 32.91C59.661 32.8629 59.5388 32.8159 59.4162 32.7717C59.3551 32.7482 59.2937 32.7274 59.2326 32.7039C59.134 32.6678 59.0318 32.6314 58.9297 32.595L65.1641 30.5548C65.2662 30.5912 65.3684 30.6277 65.4702 30.6668C65.5313 30.6904 65.5927 30.7111 65.6573 30.735C65.7798 30.7793 65.902 30.8263 66.0242 30.8733C66.0821 30.8937 66.1363 30.9164 66.1939 30.9395C66.3603 31.0026 66.5229 31.068 66.6891 31.1338C66.7027 31.1381 66.7129 31.142 66.7263 31.1491C66.9023 31.2216 67.0783 31.294 67.2578 31.3669C67.3119 31.3896 67.366 31.4123 67.4201 31.4351C67.5452 31.488 67.6703 31.5408 67.7951 31.5965C67.8559 31.6227 67.9202 31.6493 67.9842 31.6787C68.1093 31.7316 68.234 31.7872 68.3553 31.8425C68.4126 31.8683 68.4702 31.8914 68.5275 31.9173C68.6994 31.9949 68.8678 32.072 69.0394 32.1523C69.0461 32.1559 69.0563 32.1598 69.063 32.1633C69.2412 32.2471 69.4227 32.3341 69.6007 32.4206C69.6545 32.4461 69.7114 32.4747 69.7652 32.5002C69.8929 32.5617 70.0206 32.6232 70.1479 32.6874C70.2116 32.7195 70.2721 32.7485 70.3358 32.7806C70.4631 32.8449 70.5905 32.9091 70.7143 32.973C70.7713 33.0016 70.8283 33.0302 70.885 33.0615C71.0423 33.143 71.1996 33.2244 71.3566 33.3087C71.3766 33.3192 71.3935 33.3267 71.4136 33.3373C71.4167 33.3404 71.4237 33.3412 71.4269 33.3443C71.6075 33.4395 71.7909 33.5406 71.9711 33.6385C72.0278 33.6698 72.0813 33.698 72.138 33.7293C72.2647 33.7991 72.395 33.8692 72.5249 33.942C72.5883 33.9769 72.6516 34.0118 72.7147 34.0494C72.8411 34.1218 72.971 34.1947 73.1007 34.2703C73.1574 34.3016 73.2137 34.3357 73.2704 34.367C73.4532 34.4736 73.636 34.5801 73.8185 34.6894C74.6979 35.2154 75.5643 35.7622 76.4178 36.3298Z" fill="#05C6C6"/>
<path d="M91.0472 49.5371L84.8093 51.5769C83.9315 50.532 83.0257 49.5146 82.0893 48.5186C80.7419 47.0825 79.3384 45.7039 77.8821 44.386L84.1165 42.3458C85.5731 43.661 86.9763 45.0423 88.324 46.4757C89.2639 47.472 90.169 48.495 91.0472 49.5371Z" fill="#05C6C6"/>
<path d="M100.679 64.1201L94.4413 66.1598C94.0331 65.348 93.6102 64.5402 93.1693 63.7358C92.1396 61.8662 91.0184 60.0225 89.8076 58.2214L96.0455 56.1817C97.256 57.9855 98.3771 59.8292 99.4068 61.6987C99.8481 62.5004 100.274 63.3086 100.679 64.1201Z" fill="#05C6C6"/>
<path d="M106.173 80.1686L99.9349 82.2083C99.7725 81.2881 99.5793 80.3589 99.3577 79.4292C98.8943 77.4678 98.305 75.4922 97.5987 73.5174L103.837 71.4776C104.543 73.4524 105.132 75.428 105.595 77.3922C105.817 78.3218 106.01 79.2483 106.173 80.1686Z" fill="#05C6C6"/>
<path d="M106.629 91.5704C106.356 93.9379 105.837 96.1 105.108 98.0527L98.8705 100.092C99.6032 98.1375 100.118 95.9749 100.391 93.6075C100.525 92.4484 100.597 91.2659 100.611 90.0685L106.849 88.0287C106.835 89.2289 106.762 90.4114 106.629 91.5704Z" fill="#05C6C6"/>
<path d="M67.5787 36.7321C87.9344 48.84 102.621 74.3058 100.385 93.608C98.1496 112.91 79.8359 118.747 59.4805 106.636C39.1248 94.5284 24.4385 69.0626 26.6741 49.7604C28.9096 30.4581 47.223 24.6242 67.5787 36.7321ZM82.7625 105.029C85.8802 104.035 88.4427 102.246 90.3804 99.7133C92.3849 97.0905 93.6311 93.7776 94.0843 89.8623C94.5376 85.9471 94.1706 81.6734 92.9914 77.1587C91.8521 72.7928 90.0063 68.381 87.507 64.0486C85.0078 59.7162 81.9797 55.6797 78.5121 52.0575C74.9238 48.3106 71.0131 45.166 66.8835 42.7101C62.7539 40.2542 58.6646 38.6383 54.7271 37.9108C50.9216 37.2065 47.4104 37.3511 44.2926 38.3448C41.1749 39.3384 38.6124 41.1271 36.6747 43.6602C34.6705 46.2803 33.424 49.5959 32.9708 53.5112C32.5175 57.4264 32.8845 61.7001 34.0637 66.2148C35.203 70.5806 37.0491 74.9897 39.548 79.3248C42.0472 83.6573 45.0719 87.6933 48.543 91.316C52.1313 95.0628 56.042 98.2075 60.1716 100.663C64.2977 103.119 68.3873 104.732 72.3245 105.462C76.1335 106.167 79.645 106.02 82.7625 105.029Z" fill="#4EF4F4"/>
<path d="M60.0761 86.3769L62.464 85.5961L66.5972 88.0577L64.2132 88.8389L60.0761 86.3769Z" fill="#047B7B"/>
<path d="M51.8216 58.492L54.2096 57.7112L53.7528 61.6753L51.3648 62.4561L51.8216 58.492Z" fill="#047B7B"/>
<path d="M61.9899 69.8583L64.3779 69.0775L62.4642 85.5956L60.0762 86.3764L61.9899 69.8583Z" fill="#0A9797"/>
<path d="M51.361 62.4574L53.749 61.6767L63.4269 67.4327L61.0389 68.2135L51.361 62.4574Z" fill="#0A9797"/>
<path d="M61.0389 68.2135L63.4269 67.4327C63.4306 67.4364 63.4348 67.4368 63.4385 67.4404L61.0505 68.2212C61.0468 68.2176 61.043 68.214 61.0389 68.2135Z" fill="#0A9797"/>
<path d="M61.0504 68.218L63.4384 67.4372C63.4538 67.4454 63.4689 67.4567 63.4843 67.4648L61.0963 68.2455C61.0769 68.237 61.0615 68.2288 61.0504 68.218Z" fill="#0A9797"/>
<path d="M61.0925 68.2482L63.4804 67.4674C63.4955 67.4787 63.5109 67.4868 63.5259 67.4981L61.138 68.2789C61.1229 68.2676 61.1079 68.2563 61.0925 68.2482Z" fill="#0A9797"/>
<path d="M61.138 68.2758L63.5259 67.495C63.541 67.5063 63.556 67.5176 63.5711 67.5288L61.1831 68.3096C61.1681 68.2983 61.153 68.2871 61.138 68.2758Z" fill="#0A9797"/>
<path d="M61.1836 68.3096L63.5715 67.5288C63.5866 67.5401 63.6017 67.5514 63.6167 67.5627L61.2287 68.3434C61.2137 68.3322 61.1986 68.3209 61.1836 68.3096Z" fill="#0A9797"/>
<path d="M61.2284 68.3433L63.6164 67.5626C63.6314 67.5739 63.6461 67.5883 63.6612 67.5996L61.2732 68.3803C61.2621 68.3695 61.2471 68.3582 61.2284 68.3433Z" fill="#0A9797"/>
<path d="M61.2772 68.3841L63.6652 67.6033C63.6799 67.6178 63.6949 67.629 63.7096 67.6435L61.3216 68.4243C61.3069 68.4098 61.2922 68.3954 61.2772 68.3841Z" fill="#0A9797"/>
<path d="M61.3216 68.4209L63.7096 67.6402C63.7243 67.6546 63.739 67.669 63.7541 67.6803L61.3661 68.4611C61.351 68.4498 61.3363 68.4354 61.3216 68.4209Z" fill="#0A9797"/>
<path d="M61.3654 68.4643L63.7534 67.6835C63.7681 67.6979 63.7828 67.7123 63.7975 67.7268L61.4095 68.5076C61.3951 68.49 61.3801 68.4787 61.3654 68.4643Z" fill="#0A9797"/>
<path d="M61.4103 68.5044L63.7983 67.7236C63.813 67.7381 63.8277 67.7525 63.8383 67.7665L61.4503 68.5472C61.4396 68.5333 61.425 68.5188 61.4103 68.5044Z" fill="#0A9797"/>
<path d="M61.454 68.5477L63.842 67.7669C63.8567 67.7814 63.8674 67.7953 63.8821 67.8098L61.4941 68.5905C61.4794 68.5761 61.4647 68.5617 61.454 68.5477Z" fill="#0A9797"/>
<path d="M61.4907 68.5902L63.8787 67.8094C63.8934 67.8239 63.904 67.8379 63.9184 67.8555L61.5304 68.6362C61.5197 68.6222 61.5054 68.6046 61.4907 68.5902Z" fill="#0A9797"/>
<path d="M61.5304 68.6362L63.9184 67.8555C63.9331 67.8699 63.9431 67.887 63.9578 67.9014L61.5698 68.6822C61.5551 68.6677 61.5451 68.6507 61.5304 68.6362Z" fill="#0A9797"/>
<path d="M61.5698 68.6822L63.9578 67.9014C63.9722 67.919 63.9859 67.9397 64.0003 67.9573L61.6122 68.7381C61.5979 68.7205 61.5838 68.7029 61.5698 68.6822Z" fill="#0A9797"/>
<path d="M61.6127 68.7382L64.0007 67.9574C64.022 67.9853 64.043 68.0165 64.0643 68.0444L61.6763 68.8252C61.655 68.7973 61.6337 68.7693 61.6127 68.7382Z" fill="#0A9797"/>
<path d="M61.6758 68.8284L64.0639 68.0477C64.0882 68.0855 64.1124 68.1234 64.1367 68.1613L61.7488 68.9421C61.7245 68.9042 61.7005 68.8632 61.6758 68.8284Z" fill="#0A9797"/>
<path d="M61.7484 68.9419L64.1363 68.1611C64.1537 68.1887 64.1669 68.2157 64.1839 68.2464L61.7959 69.0272C61.7789 68.9965 61.7657 68.9694 61.7484 68.9419Z" fill="#0A9797"/>
<path d="M61.7965 69.0241L64.1845 68.2434C64.1945 68.2637 64.2048 68.2808 64.2148 68.3011L61.8267 69.0819C61.8164 69.0647 61.8065 69.0444 61.7965 69.0241Z" fill="#0A9797"/>
<path d="M61.8227 69.0814L64.2107 68.3006C64.217 68.3173 64.2273 68.3345 64.2336 68.3511L61.8456 69.1319C61.8393 69.1152 61.8331 69.0986 61.8227 69.0814Z" fill="#0A9797"/>
<path d="M61.8456 69.1319L64.2336 68.3511C64.2403 68.3647 64.2467 68.3813 64.253 68.398L61.865 69.1788C61.8627 69.1626 61.8563 69.1459 61.8456 69.1319Z" fill="#0A9797"/>
<path d="M61.8695 69.1762L64.2575 68.3955C64.2641 68.409 64.2704 68.4257 64.277 68.4392L61.889 69.22C61.8824 69.2065 61.8757 69.1929 61.8695 69.1762Z" fill="#0A9797"/>
<path d="M61.8842 69.2225L64.2722 68.4418C64.2785 68.4584 64.2851 68.472 64.2874 68.4882L61.8994 69.269C61.8971 69.2528 61.8908 69.2361 61.8842 69.2225Z" fill="#0A9797"/>
<path d="M61.904 69.2663L64.292 68.4855C64.2983 68.5022 64.3009 68.5153 64.3072 68.532L61.9192 69.3127C61.9129 69.296 61.9103 69.283 61.904 69.2663Z" fill="#0A9797"/>
<path d="M61.9192 69.3127L64.3072 68.532C64.3134 68.5487 64.3164 68.5618 64.3227 68.5785L61.9347 69.3593C61.928 69.3457 61.9254 69.3294 61.9192 69.3127Z" fill="#0A9797"/>
<path d="M61.9342 69.3593L64.3222 68.5785C64.3284 68.5952 64.3307 68.6114 64.3374 68.6249L61.9494 69.4057C61.9427 69.3922 61.9405 69.3759 61.9342 69.3593Z" fill="#0A9797"/>
<path d="M61.9493 69.4089L64.3373 68.6281C64.3436 68.6448 64.3459 68.661 64.3481 68.6773L61.9601 69.4581C61.9538 69.4414 61.9516 69.4251 61.9493 69.4089Z" fill="#0A9797"/>
<path d="M61.9601 69.4549L64.3481 68.6741C64.3504 68.6904 64.3566 68.7071 64.3589 68.7233L61.9709 69.5041C61.9687 69.4878 61.9624 69.4711 61.9601 69.4549Z" fill="#0A9797"/>
<path d="M61.9713 69.5041L64.3593 68.7233C64.3616 68.7395 64.3638 68.7558 64.3661 68.772L61.9781 69.5528C61.9758 69.5365 61.9736 69.5203 61.9713 69.5041Z" fill="#0A9797"/>
<path d="M61.9781 69.5528L64.3661 68.772C64.3683 68.7882 64.3703 68.8044 64.3726 68.8207L61.9846 69.6014C61.9823 69.5852 61.9803 69.569 61.9781 69.5528Z" fill="#0A9797"/>
<path d="M61.9846 69.5983L64.3726 68.8175C64.3749 68.8338 64.3775 68.8468 64.3757 68.8626L61.9877 69.6434C61.9891 69.6308 61.9869 69.6145 61.9846 69.5983Z" fill="#0A9797"/>
<path d="M61.9923 69.6439L64.3803 68.8632C64.3825 68.8794 64.3811 68.892 64.3834 68.9083L61.9954 69.6891C61.9928 69.676 61.9905 69.6597 61.9923 69.6439Z" fill="#0A9797"/>
<path d="M61.9954 69.6891L64.3834 68.9083C64.3856 68.9245 64.384 68.937 64.3863 68.9532L61.9983 69.734C61.9957 69.7209 61.9936 69.7048 61.9954 69.6891Z" fill="#0A9797"/>
<path d="M61.9942 69.7336L64.3821 68.9528C64.3804 68.9686 64.383 68.9817 64.3812 68.9975L61.9932 69.7783C61.995 69.7625 61.9924 69.7494 61.9942 69.7336Z" fill="#0A9797"/>
<path d="M61.9932 69.7783L64.3812 68.9975C64.3798 69.0101 64.378 69.0259 64.3806 69.039L61.9926 69.8198C61.994 69.8072 61.9918 69.7909 61.9932 69.7783Z" fill="#0A9797"/>
<path d="M61.9926 69.8198L64.3806 69.039C64.3792 69.0516 64.3776 69.0642 64.3759 69.08L61.9879 69.8608C61.9896 69.845 61.9911 69.8324 61.9926 69.8198Z" fill="#0A9797"/>
<path d="M50.2001 55.6834L52.5881 54.9026C52.6177 54.8931 52.6513 54.8841 52.6843 54.8814L50.2963 55.6622C50.2593 55.6645 50.2297 55.6739 50.2001 55.6834Z" fill="#047B7B"/>
<path d="M50.2929 55.6586L52.6809 54.8778C52.7057 54.8742 52.7346 54.8711 52.7592 54.8706L50.3712 55.6514C50.3467 55.6519 50.3218 55.6555 50.2929 55.6586Z" fill="#047B7B"/>
<path d="M50.3749 55.652L52.7629 54.8712C52.7834 54.8703 52.8079 54.8699 52.828 54.8721L50.44 55.6529C50.4159 55.6502 50.3954 55.6511 50.3749 55.652Z" fill="#047B7B"/>
<path d="M50.44 55.6529L52.828 54.8721C52.8482 54.8744 52.8687 54.8734 52.8848 54.8752L50.4969 55.656C50.4767 55.6537 50.4605 55.652 50.44 55.6529Z" fill="#047B7B"/>
<path d="M50.4969 55.656L52.8848 54.8752C52.901 54.877 52.9213 54.8793 52.9375 54.8811L50.5495 55.6619C50.5334 55.6601 50.517 55.6583 50.4969 55.656Z" fill="#047B7B"/>
<path d="M50.5487 55.6651L52.9367 54.8843C52.9528 54.8861 52.9685 54.8911 52.9846 54.8929L50.5966 55.6737C50.5849 55.6692 50.5648 55.6669 50.5487 55.6651Z" fill="#047B7B"/>
<path d="M50.601 55.6741L52.989 54.8933C53.0048 54.8983 53.0209 54.9001 53.0366 54.905L50.6487 55.6858C50.6329 55.6808 50.6171 55.6759 50.601 55.6741Z" fill="#047B7B"/>
<path d="M50.6487 55.6858L53.0366 54.905C53.0524 54.91 53.0678 54.9149 53.0796 54.9194L50.6916 55.7002C50.6802 55.6925 50.6644 55.6908 50.6487 55.6858Z" fill="#047B7B"/>
<path d="M50.6964 55.6976L53.0844 54.9168C53.1001 54.9217 53.1159 54.9267 53.1317 54.9317L50.7437 55.7125C50.7239 55.707 50.7081 55.7021 50.6964 55.6976Z" fill="#047B7B"/>
<path d="M50.739 55.7151L53.127 54.9344C53.1428 54.9393 53.1545 54.9438 53.1699 54.952L50.7819 55.7327C50.7665 55.7246 50.7548 55.7201 50.739 55.7151Z" fill="#047B7B"/>
<path d="M50.782 55.7295L53.17 54.9487C53.1858 54.9537 53.1972 54.9614 53.2129 54.9663L50.8249 55.7471C50.8132 55.7426 50.7974 55.7376 50.782 55.7295Z" fill="#047B7B"/>
<path d="M50.8255 55.7472L53.2135 54.9664C53.2292 54.9713 53.2406 54.979 53.256 54.9871L50.868 55.7679C50.8566 55.7602 50.8409 55.7553 50.8255 55.7472Z" fill="#047B7B"/>
<path d="M50.8717 55.7684L53.2597 54.9876C53.2751 54.9958 53.2908 55.0007 53.3022 55.0084L50.9142 55.7892C50.8984 55.7842 50.883 55.7761 50.8717 55.7684Z" fill="#047B7B"/>
<path d="M50.9136 55.7922L53.3016 55.0114C53.317 55.0195 53.3324 55.0276 53.3438 55.0353L50.9558 55.8161C50.9448 55.8052 50.9294 55.7971 50.9136 55.7922Z" fill="#047B7B"/>
<path d="M50.9567 55.8131L53.3447 55.0323C53.3561 55.04 53.3678 55.0445 53.3792 55.0521L50.9912 55.8329C50.9794 55.8284 50.9681 55.8208 50.9567 55.8131Z" fill="#047B7B"/>
<path d="M50.9904 55.833L53.378 55.0553L63.0519 60.811L60.6683 61.589L50.9904 55.833Z" fill="#047B7B"/>
<path d="M53.0555 47.8309L55.4435 47.0501L54.9936 50.9159L52.6097 51.6971L53.0555 47.8309Z" fill="#047B7B"/>
<path d="M52.6121 51.6962L54.9961 50.915L64.674 56.6711L62.286 57.4519L52.6121 51.6962Z" fill="#047B7B"/>
<path d="M62.6819 63.869L65.0695 63.0914L65.0692 63.0945L62.6815 63.8721L62.6819 63.869Z" fill="#047B7B"/>
<path d="M62.6815 63.8721L65.0695 63.0914C65.0677 63.1071 65.0663 63.1198 65.0649 63.1324L62.6769 63.9132C62.6783 63.9006 62.6797 63.8879 62.6815 63.8721Z" fill="#047B7B"/>
<path d="M62.6766 63.9164L65.0646 63.1356C65.0632 63.1482 65.0614 63.164 65.056 63.1762L62.668 63.957C62.6738 63.9417 62.6752 63.929 62.6766 63.9164Z" fill="#047B7B"/>
<path d="M62.668 63.957L65.056 63.1762C65.0542 63.192 65.0481 63.2041 65.0467 63.2167L62.6587 63.9975C62.6601 63.9848 62.6666 63.9696 62.668 63.957Z" fill="#047B7B"/>
<path d="M62.6587 63.9975L65.0467 63.2167C65.0409 63.232 65.0397 63.2446 65.0342 63.2568L62.6462 64.0376C62.6517 64.0254 62.6529 64.0128 62.6587 63.9975Z" fill="#047B7B"/>
<path d="M62.6462 64.0376L65.0342 63.2568C65.0284 63.2721 65.0232 63.2845 65.0174 63.2998L62.6295 64.0806C62.6349 64.0684 62.6404 64.0529 62.6462 64.0376Z" fill="#047B7B"/>
<path d="M62.6295 64.0806L65.0174 63.2998C65.0116 63.3151 65.0055 63.3303 64.996 63.342L62.608 64.1228C62.6175 64.1111 62.6237 64.0959 62.6295 64.0806Z" fill="#047B7B"/>
<path d="M62.608 64.1228L64.996 63.342C64.9902 63.3574 64.9808 63.3724 64.971 63.3872L62.583 64.168C62.5928 64.1532 62.6022 64.1382 62.608 64.1228Z" fill="#047B7B"/>
<path d="M62.583 64.168L64.971 63.3872C64.9612 63.4021 64.9509 63.4201 64.937 63.4346L62.549 64.2153C62.5629 64.2009 62.5732 64.1829 62.583 64.168Z" fill="#047B7B"/>
<path d="M62.5532 64.2158L64.9412 63.4351C64.9266 63.4558 64.9084 63.4729 64.8902 63.4901L62.5022 64.2709C62.5204 64.2537 62.5386 64.2366 62.5532 64.2158Z" fill="#047B7B"/>
<path d="M62.5022 64.2709L64.8902 63.4901C64.8307 63.5473 64.7604 63.5906 64.68 63.6168L62.292 64.3975C62.3724 64.3714 62.4427 64.3281 62.5022 64.2709Z" fill="#047B7B"/>
<path d="M63.2381 59.0975L65.6217 58.3194L65.0695 63.0914L62.6819 63.869L63.2381 59.0975Z" fill="#047B7B"/>
<path d="M62.2841 57.4496L64.6721 56.6689C64.6758 56.6725 64.6799 56.6729 64.6835 56.6765L62.2955 57.4573C62.2918 57.4537 62.2882 57.4501 62.2841 57.4496Z" fill="#047B7B"/>
<path d="M62.2955 57.4541L64.6835 56.6733C64.6989 56.6814 64.7139 56.6927 64.7294 56.7008L62.3413 57.4816C62.3259 57.4735 62.3105 57.4653 62.2955 57.4541Z" fill="#047B7B"/>
<path d="M62.3414 57.4848L64.7294 56.704C64.7445 56.7153 64.7599 56.7234 64.7749 56.7347L62.3869 57.5154C62.3718 57.5042 62.3568 57.4929 62.3414 57.4848Z" fill="#047B7B"/>
<path d="M62.3869 57.5123L64.7749 56.7316C64.79 56.7428 64.805 56.7541 64.8201 56.7654L62.432 57.5462C62.417 57.5349 62.4019 57.5236 62.3869 57.5123Z" fill="#047B7B"/>
<path d="M62.432 57.5462L64.8201 56.7654C64.8351 56.7767 64.8506 56.7879 64.8657 56.7992L62.4776 57.58C62.4626 57.5687 62.4471 57.5575 62.432 57.5462Z" fill="#047B7B"/>
<path d="M62.4776 57.58L64.8657 56.7992C64.8807 56.8105 64.8951 56.8249 64.9101 56.8361L62.5221 57.6169C62.507 57.6056 62.4923 57.5944 62.4776 57.58Z" fill="#047B7B"/>
<path d="M62.5222 57.6202L64.9102 56.8395C64.9249 56.8539 64.9399 56.8652 64.9546 56.8796L62.5666 57.6604C62.5559 57.6464 62.5413 57.632 62.5222 57.6202Z" fill="#047B7B"/>
<path d="M62.5706 57.6575L64.9586 56.8767C64.9733 56.8912 64.988 56.9056 65.003 56.9169L62.615 57.6977C62.6 57.6864 62.5853 57.6719 62.5706 57.6575Z" fill="#047B7B"/>
<path d="M62.6151 57.7009L65.0031 56.9201C65.0178 56.9346 65.0325 56.949 65.0472 56.9634L62.6592 57.7442C62.6448 57.7266 62.6302 57.7122 62.6151 57.7009Z" fill="#047B7B"/>
<path d="M62.6592 57.741L65.0472 56.9602C65.0619 56.9746 65.0766 56.9891 65.0873 57.003L62.6993 57.7838C62.6846 57.7694 62.6739 57.7554 62.6592 57.741Z" fill="#047B7B"/>
<path d="M62.6993 57.7838L65.0873 57.003C65.102 57.0175 65.1124 57.0315 65.1271 57.0459L62.7391 57.8267C62.7244 57.8123 62.714 57.7983 62.6993 57.7838Z" fill="#047B7B"/>
<path d="M62.7391 57.8267L65.1271 57.0459C65.1418 57.0603 65.153 57.0744 65.1673 57.092L62.7793 57.8728C62.7646 57.8584 62.7538 57.8411 62.7391 57.8267Z" fill="#047B7B"/>
<path d="M62.7793 57.8728L65.1673 57.092C65.182 57.1065 65.1921 57.1235 65.2068 57.138L62.8188 57.9188C62.8041 57.9043 62.79 57.8868 62.7793 57.8728Z" fill="#047B7B"/>
<path d="M62.8188 57.9188L65.2068 57.138C65.2211 57.1556 65.2349 57.1763 65.2492 57.1938L62.8612 57.9746C62.8468 57.957 62.8327 57.9395 62.8188 57.9188Z" fill="#047B7B"/>
<path d="M62.8612 57.9746L65.2492 57.1938C65.2705 57.2218 65.2919 57.253 65.3133 57.281L62.9253 58.0618C62.9039 58.0338 62.8822 58.0057 62.8612 57.9746Z" fill="#047B7B"/>
<path d="M62.9248 58.065L65.3128 57.2842C65.3371 57.3221 65.3614 57.36 65.3857 57.3979L62.9977 58.1787C62.9738 58.1376 62.9494 58.0997 62.9248 58.065Z" fill="#047B7B"/>
<path d="M62.9934 58.1781L65.3814 57.3973C65.3987 57.4248 65.412 57.4519 65.4293 57.4794L63.0413 58.2602C63.028 58.2331 63.0107 58.2056 62.9934 58.1781Z" fill="#047B7B"/>
<path d="M63.0413 58.2602L65.4293 57.4794C65.4392 57.4997 65.4498 57.5169 65.4597 57.5372L63.0717 58.318C63.0618 58.2977 63.0512 58.2805 63.0413 58.2602Z" fill="#047B7B"/>
<path d="M63.0717 58.318L65.4597 57.5372C65.466 57.5539 65.4763 57.571 65.4826 57.5877L63.0945 58.3685C63.0883 58.3518 63.078 58.3347 63.0717 58.318Z" fill="#047B7B"/>
<path d="M63.0945 58.3685L65.4826 57.5877C65.4892 57.6012 65.4956 57.6179 65.5019 57.6346L63.1139 58.4154C63.1076 58.3987 63.1012 58.382 63.0945 58.3685Z" fill="#047B7B"/>
<path d="M63.1145 58.4122L65.5025 57.6314C65.5091 57.645 65.5154 57.6617 65.522 57.6752L63.134 58.456C63.1274 58.4424 63.1208 58.4289 63.1145 58.4122Z" fill="#047B7B"/>
<path d="M63.1331 58.4591L65.5211 57.6783C65.5274 57.695 65.5341 57.7086 65.5363 57.7248L63.1483 58.5056C63.146 58.4893 63.1398 58.4726 63.1331 58.4591Z" fill="#047B7B"/>
<path d="M63.149 58.5026L65.537 57.7218C65.5433 57.7385 65.5459 57.7516 65.5522 57.7682L63.1641 58.549C63.1619 58.5328 63.1552 58.5192 63.149 58.5026Z" fill="#047B7B"/>
<path d="M63.1641 58.549L65.5522 57.7682C65.5584 57.7849 65.5614 57.7979 65.5677 57.8146L63.1797 58.5954C63.1774 58.5792 63.1704 58.5657 63.1641 58.549Z" fill="#047B7B"/>
<path d="M63.1797 58.5954L65.5677 57.8146C65.5739 57.8313 65.5757 57.8475 65.5824 57.8611L63.1944 58.6419C63.1917 58.6288 63.1859 58.6121 63.1797 58.5954Z" fill="#047B7B"/>
<path d="M63.1943 58.645L65.5823 57.8642C65.5886 57.8809 65.5909 57.8972 65.5931 57.9134L63.2051 58.6942C63.2029 58.6779 63.2006 58.6617 63.1943 58.645Z" fill="#047B7B"/>
<path d="M63.2051 58.691L65.5931 57.9102C65.5953 57.9265 65.6016 57.9432 65.6039 57.9594L63.2159 58.7402C63.2136 58.724 63.2114 58.7077 63.2051 58.691Z" fill="#047B7B"/>
<path d="M63.2159 58.7402L65.6039 57.9594C65.6062 57.9756 65.6088 57.9919 65.6111 58.0081L63.2231 58.7889C63.2249 58.7731 63.2222 58.7569 63.2159 58.7402Z" fill="#047B7B"/>
<path d="M63.2267 58.7893L65.6148 58.0085C65.617 58.0248 65.6193 58.041 65.6215 58.0572L63.2335 58.838C63.2313 58.8218 63.229 58.8055 63.2267 58.7893Z" fill="#047B7B"/>
<path d="M63.2335 58.838L65.6215 58.0572C65.6238 58.0735 65.6269 58.0866 65.6251 58.1024L63.2371 58.8832C63.2349 58.8669 63.2361 58.8511 63.2335 58.838Z" fill="#047B7B"/>
<path d="M63.2371 58.8832L65.6251 58.1024C65.6274 58.1186 65.6258 58.1313 65.628 58.1475L63.24 58.9283C63.2418 58.9125 63.2397 58.8962 63.2371 58.8832Z" fill="#047B7B"/>
<path d="M63.24 58.9283L65.628 58.1475C65.6303 58.1637 65.6287 58.1764 65.6309 58.1926L63.2429 58.9734C63.2407 58.9572 63.2426 58.9414 63.24 58.9283Z" fill="#047B7B"/>
<path d="M63.2429 58.9734L65.6309 58.1926C65.6292 58.2084 65.6316 58.2215 65.6298 58.2373L63.2418 59.0181C63.2396 59.0018 63.2415 58.986 63.2429 58.9734Z" fill="#047B7B"/>
<path d="M63.2421 59.0149L65.6301 58.2341C65.6283 58.2499 65.6309 58.2629 65.6291 58.2787L63.2411 59.0595C63.2389 59.0433 63.2403 59.0306 63.2421 59.0149Z" fill="#047B7B"/>
<path d="M63.2371 59.0591L65.6251 58.2783C65.6237 58.291 65.6223 58.3036 65.6205 58.3194L63.2325 59.1002C63.2383 59.0848 63.2397 59.0722 63.2371 59.0591Z" fill="#047B7B"/>
<path d="M66.2302 91.1198L68.6178 90.3422L66.2298 91.123L66.2302 91.1198Z" fill="#0A9797"/>
<path d="M66.2298 91.123L68.6178 90.3422C68.6161 90.358 68.6147 90.3706 68.6132 90.3832L66.2252 91.164C66.2266 91.1514 66.2281 91.1388 66.2298 91.123Z" fill="#0A9797"/>
<path d="M66.221 91.1668L68.609 90.386C68.6076 90.3986 68.6059 90.4144 68.6004 90.4266L66.2124 91.2074C66.2182 91.1921 66.2196 91.1794 66.221 91.1668Z" fill="#0A9797"/>
<path d="M66.2164 91.2078L68.6044 90.427C68.6027 90.4428 68.5972 90.455 68.5958 90.4676L66.2078 91.2484C66.2092 91.2358 66.211 91.22 66.2164 91.2078Z" fill="#0A9797"/>
<path d="M66.2033 91.2479L68.5913 90.4671C68.5855 90.4824 68.5841 90.495 68.5786 90.5072L66.1906 91.288C66.1961 91.2758 66.2015 91.2636 66.2033 91.2479Z" fill="#0A9797"/>
<path d="M66.1906 91.288L68.5786 90.5072C68.5728 90.5225 68.5676 90.5347 68.5618 90.55L66.1739 91.3308C66.1833 91.3191 66.1848 91.3033 66.1906 91.288Z" fill="#0A9797"/>
<path d="M66.1735 91.3308L68.5615 90.55C68.5557 90.5654 68.5499 90.5807 68.5404 90.5924L66.1524 91.3732C66.1619 91.3615 66.1677 91.3461 66.1735 91.3308Z" fill="#0A9797"/>
<path d="M66.1568 91.3737L68.5448 90.593C68.539 90.6083 68.5292 90.6232 68.5193 90.6381L66.1313 91.4189C66.1412 91.404 66.147 91.3886 66.1568 91.3737Z" fill="#0A9797"/>
<path d="M66.1313 91.4189L68.5193 90.6381C68.5095 90.6529 68.4992 90.671 68.4854 90.6854L66.0973 91.4662C66.1112 91.4517 66.1215 91.4337 66.1313 91.4189Z" fill="#0A9797"/>
<path d="M66.0973 91.4662L68.4854 90.6854C68.4708 90.7061 68.4528 90.7233 68.4346 90.7405L66.0466 91.5212C66.0688 91.5046 66.0828 91.4869 66.0973 91.4662Z" fill="#0A9797"/>
<path d="M66.0503 91.5216L68.4383 90.7409C68.3789 90.7981 68.3087 90.8414 68.2283 90.8676L65.8403 91.6484C65.9167 91.6218 65.9909 91.5789 66.0503 91.5216Z" fill="#0A9797"/>
<path d="M69.3872 63.8428L71.7752 63.062L68.6178 90.3422L66.2302 91.1198L69.3872 63.8428Z" fill="#0A9797"/>
<path d="M67.7643 61.0286L70.1523 60.2478C70.1819 60.2384 70.2155 60.2293 70.2485 60.2266L67.8605 61.0074C67.8232 61.0128 67.7939 61.0191 67.7643 61.0286Z" fill="#047B7B"/>
<path d="M67.8567 61.0071L70.2447 60.2263C70.2696 60.2227 70.2985 60.2195 70.3271 60.2195L67.9391 61.0003C67.9105 61.0003 67.8856 61.0039 67.8567 61.0071Z" fill="#047B7B"/>
<path d="M67.9391 60.997L70.3271 60.2163C70.3476 60.2154 70.3721 60.2149 70.3923 60.2172L68.0043 60.998C67.9838 60.9989 67.9596 60.9961 67.9391 60.997Z" fill="#047B7B"/>
<path d="M68.0043 60.998L70.3923 60.2172C70.4124 60.2194 70.433 60.2186 70.4491 60.2204L68.0611 61.0012C68.045 60.9994 68.0244 61.0002 68.0043 60.998Z" fill="#047B7B"/>
<path d="M68.0611 61.0012L70.4491 60.2204C70.4652 60.2222 70.4856 60.2245 70.5017 60.2263L68.1137 61.0071C68.0976 61.0053 68.0812 61.0035 68.0611 61.0012Z" fill="#047B7B"/>
<path d="M68.1168 61.0106L70.5048 60.2298C70.521 60.2316 70.5367 60.2366 70.5528 60.2384L68.1648 61.0192C68.1487 61.0174 68.1329 61.0124 68.1168 61.0106Z" fill="#047B7B"/>
<path d="M68.1652 61.0193L70.5533 60.2385C70.569 60.2435 70.5851 60.2453 70.6009 60.2502L68.2129 61.031C68.1971 61.0261 68.181 61.0243 68.1652 61.0193Z" fill="#047B7B"/>
<path d="M68.2129 61.031L70.6009 60.2502C70.6166 60.2552 70.632 60.2601 70.6438 60.2646L68.2558 61.0454C68.244 61.0409 68.2286 61.036 68.2129 61.031Z" fill="#047B7B"/>
<path d="M68.2602 61.0459L70.6483 60.2651C70.664 60.27 70.6798 60.275 70.6955 60.28L68.3075 61.0608C68.2877 61.0553 68.272 61.0504 68.2602 61.0459Z" fill="#047B7B"/>
<path d="M68.3032 61.0604L70.6912 60.2796C70.707 60.2845 70.7187 60.2891 70.7341 60.2972L68.3461 61.078C68.3307 61.0698 68.319 61.0653 68.3032 61.0604Z" fill="#047B7B"/>
<path d="M68.3462 61.0747L70.7342 60.2939C70.75 60.2989 70.7614 60.3066 70.7771 60.3115L68.3891 61.0923C68.3774 61.0878 68.3616 61.0828 68.3462 61.0747Z" fill="#047B7B"/>
<path d="M68.3893 61.0956L70.7773 60.3148C70.7931 60.3198 70.8044 60.3275 70.8198 60.3356L68.4318 61.1164C68.4205 61.1087 68.4051 61.1006 68.3893 61.0956Z" fill="#047B7B"/>
<path d="M68.4359 61.1136L70.8239 60.3329C70.8393 60.341 70.851 60.3455 70.8664 60.3536L68.4784 61.1344C68.4627 61.1294 68.4473 61.1213 68.4359 61.1136Z" fill="#047B7B"/>
<path d="M68.4778 61.1375L70.8658 60.3568C70.8812 60.3649 70.8966 60.373 70.908 60.3807L68.52 61.1614C68.5046 61.1533 68.4932 61.1457 68.4778 61.1375Z" fill="#047B7B"/>
<path d="M68.5205 61.1614L70.9086 60.3806C70.9199 60.3883 70.9317 60.3928 70.943 60.4004L68.555 61.1812C68.5437 61.1736 68.5323 61.1659 68.5205 61.1614Z" fill="#047B7B"/>
<path d="M68.555 61.1812L70.943 60.4004L81.0794 66.4317L78.6958 67.2097L68.555 61.1812Z" fill="#047B7B"/>
<path d="M80.7106 69.4931L83.0986 68.7123L83.0983 68.7155L80.7103 69.4963L80.7106 69.4931Z" fill="#0A9797"/>
<path d="M80.7103 69.4963L83.0983 68.7155C83.0965 68.7313 83.0951 68.7438 83.0937 68.7564L80.7057 69.5372C80.7071 69.5246 80.7088 69.5089 80.7103 69.4963Z" fill="#0A9797"/>
<path d="M80.701 69.5368L83.089 68.756C83.0876 68.7687 83.0858 68.7845 83.0804 68.7966L80.6924 69.5774C80.6978 69.5652 80.6993 69.5526 80.701 69.5368Z" fill="#0A9797"/>
<path d="M80.6964 69.5778L83.0844 68.797C83.0826 68.8128 83.0772 68.825 83.0758 68.8376L80.6878 69.6184C80.6892 69.6058 80.6906 69.5931 80.6964 69.5778Z" fill="#0A9797"/>
<path d="M80.6837 69.6212L83.0717 68.8404C83.0659 68.8557 83.0645 68.8684 83.059 68.8806L80.671 69.6613C80.6765 69.6491 80.6823 69.6338 80.6837 69.6212Z" fill="#0A9797"/>
<path d="M80.671 69.6613L83.059 68.8806C83.0532 68.8959 83.0481 68.908 83.0423 68.9234L80.6543 69.7042C80.6601 69.6888 80.6652 69.6767 80.671 69.6613Z" fill="#0A9797"/>
<path d="M80.6539 69.7042L83.0419 68.9234C83.0361 68.9387 83.0303 68.9541 83.0208 68.9658L80.6328 69.7466C80.6426 69.7317 80.6484 69.7164 80.6539 69.7042Z" fill="#0A9797"/>
<path d="M80.6372 69.747L83.0252 68.9662C83.0194 68.9815 83.0096 68.9964 82.9998 69.0113L80.6118 69.792C80.6216 69.7772 80.6274 69.7618 80.6372 69.747Z" fill="#0A9797"/>
<path d="M80.612 69.7889L83 69.0081C82.9902 69.023 82.98 69.0411 82.9661 69.0555L80.5781 69.8363C80.592 69.8218 80.6018 69.807 80.612 69.7889Z" fill="#0A9797"/>
<path d="M80.5781 69.8363L82.9661 69.0555C82.9516 69.0762 82.9336 69.0935 82.9153 69.1106L80.5273 69.8914C80.5456 69.8742 80.5636 69.857 80.5781 69.8363Z" fill="#0A9797"/>
<path d="M80.5311 69.8918L82.9191 69.111C82.8597 69.1683 82.7895 69.2116 82.7091 69.2377L80.3211 70.0185C80.3971 69.995 80.4713 69.9522 80.5311 69.8918Z" fill="#0A9797"/>
<path d="M81.3918 63.6008L83.7798 62.82L83.0986 68.7123L80.7106 69.4931L81.3918 63.6008Z" fill="#0A9797"/>
<path d="M80.4449 61.9548C81.0337 62.3054 81.4611 63.0407 81.394 63.6022L80.7128 69.4945C80.6461 70.0529 80.1174 70.2205 79.5283 69.8731L69.3878 63.8414L66.2264 91.1211C66.1597 91.6795 65.631 91.8472 65.0419 91.4998L58.7711 87.769C58.1782 87.418 57.7552 86.68 57.8179 86.1212L59.7315 69.6031L50.0577 63.8475C49.4689 63.4969 49.0418 62.7585 49.1085 62.2001L49.8004 56.2131C49.8674 55.6516 50.3957 55.487 50.9849 55.8344L60.6588 61.5901L60.9752 58.841L51.3013 53.0854C50.7125 52.7348 50.2855 51.9964 50.3522 51.438L51.0334 45.5458C51.1005 44.9842 51.6288 44.8197 52.2179 45.1671L80.4449 61.9548ZM78.6972 67.2096L79.143 63.3434L53.0578 47.8252L52.612 51.6915L62.2899 57.4475C62.8787 57.7981 63.3057 58.5365 63.239 59.0949L62.6875 63.8668C62.6208 64.4252 62.0922 64.5929 61.503 64.2455L51.8251 58.4894L51.3643 62.4531L61.0422 68.2092C61.631 68.5597 62.058 69.2982 61.9913 69.8565L60.0773 86.3778L64.2148 88.8367L67.3762 61.557C67.4432 60.9954 67.9719 60.8277 68.5607 61.1783L78.6972 67.2096Z" fill="#0BBFBF"/>
<path d="M51.4299 45.0193L53.8179 44.2386C53.8476 44.2291 53.8812 44.2201 53.9141 44.2174L51.5261 44.9982C51.4932 45.0009 51.4595 45.0099 51.4299 45.0193Z" fill="#0A9797"/>
<path d="M51.5267 44.995L53.9147 44.2142C53.9396 44.2106 53.9685 44.2075 53.993 44.207L51.605 44.9878C51.5805 44.9882 51.5515 44.9914 51.5267 44.995Z" fill="#0A9797"/>
<path d="M51.605 44.9878L53.993 44.207C54.0135 44.2061 54.0378 44.2058 54.0579 44.2081L51.6699 44.9888C51.6498 44.9866 51.6295 44.9873 51.605 44.9878Z" fill="#0A9797"/>
<path d="M51.6699 44.9888L54.0579 44.2081C54.078 44.2103 54.0986 44.2093 54.1147 44.2111L51.7267 44.9919C51.7106 44.9901 51.6904 44.9879 51.6699 44.9888Z" fill="#0A9797"/>
<path d="M51.7309 44.9924L54.1189 44.2116C54.135 44.2134 54.1552 44.2157 54.1713 44.2175L51.7833 44.9983C51.7672 44.9965 51.747 44.9942 51.7309 44.9924Z" fill="#0A9797"/>
<path d="M51.7828 44.9982L54.1708 44.2174C54.1869 44.2192 54.2027 44.2242 54.2188 44.226L51.8308 45.0068C51.8147 45.005 51.7986 45.0032 51.7828 44.9982Z" fill="#0A9797"/>
<path d="M51.8309 45.01L54.2189 44.2292C54.2347 44.2342 54.2508 44.236 54.2665 44.241L51.8785 45.0218C51.8668 45.0172 51.847 45.0118 51.8309 45.01Z" fill="#0A9797"/>
<path d="M51.8821 45.0222L54.2701 44.2414C54.2859 44.2463 54.3016 44.2513 54.3134 44.2558L51.9254 45.0366C51.9099 45.0285 51.8942 45.0235 51.8821 45.0222Z" fill="#0A9797"/>
<path d="M51.9262 45.0335L54.3143 44.2527C54.33 44.2577 54.3458 44.2627 54.3615 44.2676L51.9735 45.0484C51.9578 45.0434 51.942 45.0385 51.9262 45.0335Z" fill="#0A9797"/>
<path d="M51.9732 45.0483L54.3612 44.2675C54.377 44.2725 54.3887 44.277 54.4041 44.2851L52.0161 45.0659C52.0003 45.0609 51.9849 45.0528 51.9732 45.0483Z" fill="#0A9797"/>
<path d="M52.0161 45.0659L54.4041 44.2851C54.4198 44.2901 54.431 44.2977 54.4467 44.3027L52.0587 45.0835C52.043 45.0785 52.0319 45.0709 52.0161 45.0659Z" fill="#0A9797"/>
<path d="M52.0592 45.0836L54.4473 44.3028C54.463 44.3077 54.4744 44.3154 54.4898 44.3235L52.1018 45.1043C52.0904 45.0966 52.0747 45.0917 52.0592 45.0836Z" fill="#0A9797"/>
<path d="M52.1018 45.1043L54.4898 44.3235C54.5052 44.3316 54.5207 44.3367 54.5321 44.3443L52.1441 45.1251C52.1327 45.1174 52.1172 45.1124 52.1018 45.1043Z" fill="#0A9797"/>
<path d="M52.1478 45.1255L54.5358 44.3447C54.5512 44.3528 54.5666 44.3609 54.5779 44.3686L52.1899 45.1494C52.1745 45.1413 52.1591 45.1331 52.1478 45.1255Z" fill="#0A9797"/>
<path d="M52.1905 45.1495L54.5785 44.3687C54.5899 44.3763 54.6016 44.3809 54.613 44.3885L52.225 45.1693C52.2132 45.1648 52.2018 45.1571 52.1905 45.1495Z" fill="#0A9797"/>
<path d="M52.225 45.1693L54.6127 44.3917L82.8319 61.1754L80.4439 61.9562L52.225 45.1693Z" fill="#0A9797"/>
<path d="M80.4439 61.9562L82.8319 61.1754C82.8356 61.179 82.8396 61.1794 82.8433 61.183L80.4553 61.9638C80.4517 61.9601 80.4476 61.9598 80.4439 61.9562Z" fill="#0A9797"/>
<path d="M80.4553 61.9638L82.8433 61.183C82.8587 61.1911 82.8737 61.2024 82.8891 61.2105L80.5011 61.9913C80.486 61.98 80.4707 61.9719 80.4553 61.9638Z" fill="#0A9797"/>
<path d="M80.4973 61.9908L82.8854 61.21C82.9004 61.2213 82.9158 61.2294 82.9309 61.2407L80.5428 62.0215C80.5278 62.0102 80.5127 61.9989 80.4973 61.9908Z" fill="#0A9797"/>
<path d="M80.5428 62.0215L82.9309 61.2407C82.9459 61.2519 82.9606 61.2632 82.9757 61.2745L80.5876 62.0553C80.573 62.0408 80.5579 62.0327 80.5428 62.0215Z" fill="#0A9797"/>
<path d="M80.5884 62.0522L82.9765 61.2714C82.9915 61.2827 83.0065 61.294 83.0216 61.3053L80.6336 62.086C80.6222 62.0784 80.6075 62.0639 80.5884 62.0522Z" fill="#0A9797"/>
<path d="M80.6368 62.0896L83.0248 61.3088C83.0399 61.3201 83.0546 61.3346 83.0696 61.3458L80.6816 62.1266C80.6669 62.1122 80.6519 62.1009 80.6368 62.0896Z" fill="#0A9797"/>
<path d="M80.6821 62.1267L83.0701 61.3459C83.0848 61.3604 83.0998 61.3716 83.1145 61.3861L80.7265 62.1669C80.7118 62.1524 80.6971 62.138 80.6821 62.1267Z" fill="#0A9797"/>
<path d="M80.7301 62.1672L83.1181 61.3864C83.1328 61.4009 83.1475 61.4153 83.1625 61.4266L80.7745 62.2074C80.7598 62.1929 80.7451 62.1785 80.7301 62.1672Z" fill="#0A9797"/>
<path d="M80.775 62.2074L83.163 61.4266C83.1777 61.441 83.1924 61.4555 83.2071 61.4699L80.8191 62.2507C80.8044 62.2362 80.7897 62.2218 80.775 62.2074Z" fill="#0A9797"/>
<path d="M80.8191 62.2507L83.2071 61.4699C83.2218 61.4843 83.2361 61.4988 83.2468 61.5128L80.8588 62.2935C80.8441 62.2791 80.8297 62.2647 80.8191 62.2507Z" fill="#0A9797"/>
<path d="M80.8588 62.2935L83.2468 61.5128C83.2615 61.5272 83.2719 61.5412 83.2866 61.5556L80.8986 62.3364C80.8839 62.322 80.8735 62.308 80.8588 62.2935Z" fill="#0A9797"/>
<path d="M80.8991 62.3365L83.2871 61.5557C83.3018 61.5701 83.3125 61.5841 83.3268 61.6017L80.9388 62.3825C80.9245 62.3649 80.9138 62.3509 80.8991 62.3365Z" fill="#0A9797"/>
<path d="M80.9389 62.3792L83.3269 61.5984C83.3416 61.6129 83.3519 61.63 83.3666 61.6444L80.9786 62.4252C80.9639 62.4108 80.9493 62.3963 80.9389 62.3792Z" fill="#0A9797"/>
<path d="M80.9741 62.428L83.3621 61.6472C83.3764 61.6648 83.3904 61.6855 83.4048 61.7031L81.0168 62.4839C81.0068 62.4636 80.9925 62.446 80.9741 62.428Z" fill="#0A9797"/>
<path d="M81.0211 62.4844L83.4091 61.7036C83.4305 61.7316 83.4515 61.7627 83.4728 61.7907L81.0848 62.5715C81.0638 62.5404 81.0425 62.5124 81.0211 62.4844Z" fill="#0A9797"/>
<path d="M81.0807 62.571L83.4687 61.7902C83.493 61.8281 83.521 61.8696 83.5413 61.9071L81.1533 62.6879C81.1334 62.6473 81.1091 62.6094 81.0807 62.571Z" fill="#0A9797"/>
<path d="M81.1568 62.6882L83.5448 61.9074C83.5621 61.9349 83.5754 61.962 83.5887 61.9891L81.2007 62.7699C81.1874 62.7428 81.1701 62.7153 81.1568 62.6882Z" fill="#0A9797"/>
<path d="M81.201 62.77L83.589 61.9892C83.5993 62.0063 83.6093 62.0266 83.6193 62.0469L81.2312 62.8277C81.2213 62.8074 81.2113 62.7871 81.201 62.77Z" fill="#0A9797"/>
<path d="M81.2316 62.8244L83.6196 62.0437C83.6259 62.0603 83.6362 62.0775 83.6425 62.0942L81.2544 62.875C81.2441 62.8578 81.2378 62.8411 81.2316 62.8244Z" fill="#0A9797"/>
<path d="M81.2544 62.875L83.6425 62.0942C83.6491 62.1077 83.6555 62.1244 83.6621 62.1379L81.2741 62.9187C81.2675 62.9052 81.2611 62.8885 81.2544 62.875Z" fill="#0A9797"/>
<path d="M81.2741 62.9187L83.6621 62.1379C83.6688 62.1514 83.6753 62.1683 83.6819 62.1818L81.2939 62.9626C81.2873 62.9491 81.2804 62.9354 81.2741 62.9187Z" fill="#0A9797"/>
<path d="M81.2891 62.9651L83.6771 62.1843C83.6833 62.201 83.69 62.2146 83.6923 62.2308L81.3042 63.0116C81.302 62.9954 81.2957 62.9787 81.2891 62.9651Z" fill="#0A9797"/>
<path d="M81.3088 63.009L83.6968 62.2282C83.7031 62.2449 83.7057 62.258 83.712 62.2747L81.324 63.0555C81.3177 63.0388 81.3151 63.0257 81.3088 63.009Z" fill="#0A9797"/>
<path d="M81.3244 63.0554L83.7124 62.2746C83.7186 62.2913 83.7213 62.3044 83.7275 62.3211L81.3395 63.1019C81.3332 63.0852 81.3306 63.0721 81.3244 63.0554Z" fill="#0A9797"/>
<path d="M81.3391 63.1019L83.7271 62.3211C83.7334 62.3378 83.7356 62.354 83.7422 62.3675L81.3542 63.1483C81.3476 63.1348 81.3453 63.1185 81.3391 63.1019Z" fill="#0A9797"/>
<path d="M81.3542 63.1483L83.7422 62.3675C83.7485 62.3842 83.7511 62.4005 83.7534 62.4168L81.3654 63.1976C81.3631 63.1813 81.3565 63.1646 81.3542 63.1483Z" fill="#0A9797"/>
<path d="M81.365 63.1975L83.753 62.4167C83.7552 62.4329 83.7615 62.4496 83.7638 62.4659L81.3758 63.2467C81.3735 63.2304 81.3672 63.2137 81.365 63.1975Z" fill="#0A9797"/>
<path d="M81.3762 63.2467L83.7642 62.4659C83.7665 62.4821 83.7687 62.4984 83.771 62.5146L81.383 63.2954C81.3807 63.2791 81.3785 63.2629 81.3762 63.2467Z" fill="#0A9797"/>
<path d="M81.383 63.2954L83.771 62.5146C83.7732 62.5308 83.7752 62.547 83.7775 62.5633L81.3895 63.344C81.3876 63.3246 81.3856 63.3085 81.383 63.2954Z" fill="#0A9797"/>
<path d="M81.3895 63.3409L83.7775 62.5601C83.7798 62.5764 83.7824 62.5894 83.7806 62.6052L81.3926 63.386C81.3941 63.3734 81.3918 63.3571 81.3895 63.3409Z" fill="#0A9797"/>
<path d="M81.3972 63.3865L83.7852 62.6058C83.7874 62.622 83.786 62.6346 83.7883 62.6509L81.4003 63.4316C81.3976 63.4186 81.3954 63.4023 81.3972 63.3865Z" fill="#0A9797"/>
<path d="M81.4003 63.4316L83.7883 62.6509C83.7905 62.6671 83.7889 62.6797 83.7912 62.696L81.4032 63.4768C81.4009 63.4605 81.3985 63.4474 81.4003 63.4316Z" fill="#0A9797"/>
<path d="M81.399 63.4762L83.7871 62.6954C83.7853 62.7112 83.7879 62.7243 83.7861 62.7401L81.3981 63.5209C81.3999 63.5051 81.4013 63.4925 81.399 63.4762Z" fill="#0A9797"/>
<path d="M81.3981 63.5209L83.7861 62.7401C83.7844 62.7559 83.7869 62.769 83.7851 62.7848L81.3971 63.5655C81.3989 63.5498 81.3967 63.5335 81.3981 63.5209Z" fill="#0A9797"/>
<path d="M81.3974 63.5624L83.7853 62.7816C83.7839 62.7942 83.7825 62.8068 83.7807 62.8226L81.3927 63.6034C81.3942 63.5908 81.3959 63.575 81.3974 63.5624Z" fill="#0A9797"/>
<defs>
<filter id="filter0_f" x="0.646057" y="0.233887" width="132.162" height="140.536" filterUnits="userSpaceOnUse" color-interpolation-filters="sRGB">
<feFlood flood-opacity="0" result="BackgroundImageFix"/>
<feBlend mode="normal" in="SourceGraphic" in2="BackgroundImageFix" result="shape"/>
<feGaussianBlur stdDeviation="11.5" result="effect1_foregroundBlur"/>
</filter>
</defs>
</svg>
