<svg width="427" height="139" viewBox="0 0 427 139" fill="none" xmlns="http://www.w3.org/2000/svg">
<path d="M389.172 38L389.172 71.1139C389.172 86.0256 377.084 98.1139 362.172 98.1139L46.9991 98.1139" stroke="#DE0C88" stroke-width="3"/>
<path d="M389.172 38L389.172 71.1139C389.172 86.0256 377.084 98.1139 362.172 98.1139L46.9991 98.1139" stroke="#FF50B7"/>
<g filter="url(#filter0_f)">
<path d="M389.172 38L389.172 71.1139C389.172 86.0256 377.084 98.1139 362.172 98.1139L47.2274 98.1139" stroke="#DE0C88" stroke-width="11"/>
</g>
<path d="M403.929 38.0427C403.929 46.3507 397.453 53.0857 389.464 53.0857C381.476 53.0857 375 46.3507 375 38.0427C375 29.7348 381.476 23 389.464 23C397.453 23 403.929 29.7348 403.929 38.0427Z" fill="#00E1E1"/>
<g filter="url(#filter1_f)">
<path d="M403.929 38.0427C403.929 46.3507 397.453 53.0857 389.464 53.0857C381.476 53.0857 375 46.3507 375 38.0427C375 29.7348 381.476 23 389.464 23C397.453 23 403.929 29.7348 403.929 38.0427Z" fill="#00E1E1"/>
</g>
<path d="M51.9286 100.043C51.9286 108.351 45.4526 115.086 37.4642 115.086C29.4758 115.086 23 108.351 23 100.043C23 91.7348 29.4758 85 37.4642 85C45.4526 85 51.9286 91.7348 51.9286 100.043Z" fill="#00E1E1"/>
<g filter="url(#filter2_f)">
<path d="M51.9286 100.043C51.9286 108.351 45.4526 115.086 37.4642 115.086C29.4758 115.086 23 108.351 23 100.043C23 91.7348 29.4758 85 37.4642 85C45.4526 85 51.9286 91.7348 51.9286 100.043Z" fill="#00E1E1"/>
</g>
<defs>
<filter id="filter0_f" x="31.2274" y="22" width="379.444" height="97.614" filterUnits="userSpaceOnUse" color-interpolation-filters="sRGB">
<feFlood flood-opacity="0" result="BackgroundImageFix"/>
<feBlend mode="normal" in="SourceGraphic" in2="BackgroundImageFix" result="shape"/>
<feGaussianBlur stdDeviation="8" result="effect1_foregroundBlur"/>
</filter>
<filter id="filter1_f" x="352" y="0" width="74.9286" height="76.0857" filterUnits="userSpaceOnUse" color-interpolation-filters="sRGB">
<feFlood flood-opacity="0" result="BackgroundImageFix"/>
<feBlend mode="normal" in="SourceGraphic" in2="BackgroundImageFix" result="shape"/>
<feGaussianBlur stdDeviation="11.5" result="effect1_foregroundBlur"/>
</filter>
<filter id="filter2_f" x="0" y="62" width="74.9286" height="76.0857" filterUnits="userSpaceOnUse" color-interpolation-filters="sRGB">
<feFlood flood-opacity="0" result="BackgroundImageFix"/>
<feBlend mode="normal" in="SourceGraphic" in2="BackgroundImageFix" result="shape"/>
<feGaussianBlur stdDeviation="11.5" result="effect1_foregroundBlur"/>
</filter>
</defs>
</svg>
