<svg width="258" height="97" viewBox="0 0 258 97" fill="none" xmlns="http://www.w3.org/2000/svg">
<path d="M0 48.5C0 21.7142 21.71 0 48.4907 0H209.509C236.29 0 258 21.7142 258 48.5C258 75.2858 236.29 97 209.509 97H48.4907C21.71 97 0 75.2858 0 48.5Z" fill="url(#paint0_linear)"/>
<path d="M83.55 48.28H79.17L78.21 52.39H82.14V55.39H77.49L76.11 61H72.87L74.28 55.39H70.68L69.33 61H66.09L67.47 55.39H64.11V52.39H68.19L69.18 48.28H65.52V45.46H69.87L71.28 39.7H74.52L73.08 45.46H76.68L78.06 39.7H81.3L79.89 45.46H83.55V48.28ZM75 52.39L75.96 48.28H72.39L71.4 52.39H75ZM95.3911 61.3C94.1911 61.3 93.1211 61.03 92.1811 60.49C91.2411 59.95 90.5011 59.21 89.9611 58.27V61H86.4511V39.1H90.4711V48.04C91.0311 47.08 91.7611 46.34 92.6611 45.82C93.5811 45.28 94.6511 45.01 95.8711 45.01C96.8911 45.01 97.8211 45.23 98.6611 45.67C99.5011 46.11 100.221 46.7 100.821 47.44C101.441 48.18 101.911 49.05 102.231 50.05C102.571 51.05 102.741 52.1 102.741 53.2C102.741 54.34 102.551 55.4 102.171 56.38C101.811 57.36 101.301 58.22 100.641 58.96C99.9811 59.68 99.2011 60.25 98.3011 60.67C97.4011 61.09 96.4311 61.3 95.3911 61.3ZM94.2811 57.88C94.9211 57.88 95.5111 57.76 96.0511 57.52C96.5911 57.26 97.0511 56.92 97.4311 56.5C97.8111 56.08 98.1011 55.59 98.3011 55.03C98.5211 54.47 98.6311 53.87 98.6311 53.23C98.6311 52.59 98.5311 51.98 98.3311 51.4C98.1311 50.82 97.8411 50.31 97.4611 49.87C97.1011 49.43 96.6711 49.08 96.1711 48.82C95.6711 48.56 95.1211 48.43 94.5211 48.43C93.6211 48.43 92.8111 48.73 92.0911 49.33C91.3911 49.91 90.8511 50.63 90.4711 51.49V55.24C90.6111 55.64 90.8111 56 91.0711 56.32C91.3511 56.64 91.6611 56.92 92.0011 57.16C92.3411 57.38 92.7111 57.56 93.1111 57.7C93.5111 57.82 93.9011 57.88 94.2811 57.88ZM114.825 48.76C113.605 48.78 112.515 49.02 111.555 49.48C110.595 49.92 109.905 50.59 109.485 51.49V61H105.465V45.28H109.155V48.64C109.435 48.1 109.765 47.62 110.145 47.2C110.525 46.76 110.935 46.38 111.375 46.06C111.815 45.74 112.255 45.5 112.695 45.34C113.155 45.16 113.595 45.07 114.015 45.07C114.235 45.07 114.395 45.07 114.495 45.07C114.615 45.07 114.725 45.08 114.825 45.1V48.76ZM121.151 61.3C120.391 61.3 119.681 61.18 119.021 60.94C118.361 60.68 117.791 60.33 117.311 59.89C116.831 59.43 116.451 58.9 116.171 58.3C115.911 57.7 115.781 57.04 115.781 56.32C115.781 55.58 115.941 54.9 116.261 54.28C116.601 53.64 117.061 53.1 117.641 52.66C118.241 52.22 118.951 51.88 119.771 51.64C120.591 51.38 121.491 51.25 122.471 51.25C123.171 51.25 123.851 51.31 124.511 51.43C125.191 51.55 125.791 51.72 126.311 51.94V51.04C126.311 50 126.011 49.2 125.411 48.64C124.831 48.08 123.961 47.8 122.801 47.8C121.961 47.8 121.141 47.95 120.341 48.25C119.541 48.55 118.721 48.99 117.881 49.57L116.651 47.02C118.671 45.68 120.851 45.01 123.191 45.01C125.451 45.01 127.201 45.57 128.441 46.69C129.701 47.79 130.331 49.39 130.331 51.49V56.38C130.331 56.8 130.401 57.1 130.541 57.28C130.701 57.46 130.951 57.56 131.291 57.58V61C130.611 61.14 130.021 61.21 129.521 61.21C128.761 61.21 128.171 61.04 127.751 60.7C127.351 60.36 127.101 59.91 127.001 59.35L126.911 58.48C126.211 59.4 125.361 60.1 124.361 60.58C123.361 61.06 122.291 61.3 121.151 61.3ZM122.291 58.36C122.971 58.36 123.611 58.24 124.211 58C124.831 57.76 125.311 57.44 125.651 57.04C126.091 56.7 126.311 56.32 126.311 55.9V54.1C125.831 53.92 125.311 53.78 124.751 53.68C124.191 53.56 123.651 53.5 123.131 53.5C122.091 53.5 121.241 53.74 120.581 54.22C119.921 54.68 119.591 55.27 119.591 55.99C119.591 56.67 119.851 57.24 120.371 57.7C120.891 58.14 121.531 58.36 122.291 58.36ZM148.698 61H144.678V52.18C144.678 50.92 144.458 50 144.018 49.42C143.578 48.84 142.968 48.55 142.188 48.55C141.788 48.55 141.378 48.63 140.958 48.79C140.538 48.95 140.138 49.18 139.758 49.48C139.398 49.76 139.068 50.1 138.768 50.5C138.468 50.9 138.248 51.34 138.108 51.82V61H134.088V45.28H137.718V48.19C138.298 47.19 139.138 46.41 140.238 45.85C141.338 45.29 142.578 45.01 143.958 45.01C144.938 45.01 145.738 45.19 146.358 45.55C146.978 45.91 147.458 46.38 147.798 46.96C148.138 47.54 148.368 48.2 148.488 48.94C148.628 49.68 148.698 50.43 148.698 51.19V61ZM158.703 61.3C157.623 61.3 156.623 61.09 155.703 60.67C154.783 60.25 153.993 59.67 153.333 58.93C152.673 58.19 152.153 57.33 151.773 56.35C151.413 55.35 151.233 54.28 151.233 53.14C151.233 52 151.403 50.94 151.743 49.96C152.103 48.98 152.593 48.12 153.213 47.38C153.833 46.64 154.573 46.06 155.433 45.64C156.293 45.22 157.233 45.01 158.253 45.01C159.413 45.01 160.453 45.29 161.373 45.85C162.313 46.41 163.043 47.14 163.563 48.04V39.1H167.583V56.38C167.583 56.8 167.653 57.1 167.793 57.28C167.933 57.46 168.173 57.56 168.513 57.58V61C167.813 61.14 167.243 61.21 166.803 61.21C166.083 61.21 165.493 61.03 165.033 60.67C164.573 60.31 164.313 59.84 164.253 59.26L164.163 58.27C163.583 59.27 162.793 60.03 161.793 60.55C160.813 61.05 159.783 61.3 158.703 61.3ZM159.753 57.88C160.133 57.88 160.523 57.82 160.923 57.7C161.323 57.56 161.693 57.37 162.033 57.13C162.373 56.89 162.673 56.61 162.933 56.29C163.213 55.97 163.423 55.62 163.563 55.24V51.49C163.403 51.05 163.173 50.65 162.873 50.29C162.593 49.91 162.263 49.59 161.883 49.33C161.523 49.05 161.133 48.83 160.713 48.67C160.313 48.51 159.913 48.43 159.513 48.43C158.913 48.43 158.353 48.56 157.833 48.82C157.333 49.08 156.903 49.44 156.543 49.9C156.183 50.34 155.903 50.85 155.703 51.43C155.503 52.01 155.403 52.61 155.403 53.23C155.403 53.89 155.513 54.5 155.733 55.06C155.953 55.62 156.253 56.11 156.633 56.53C157.013 56.95 157.463 57.28 157.983 57.52C158.523 57.76 159.113 57.88 159.753 57.88ZM177.469 61.3C176.149 61.3 174.859 61.09 173.599 60.67C172.339 60.25 171.259 59.65 170.359 58.87L171.859 56.35C172.819 57.03 173.749 57.55 174.649 57.91C175.569 58.25 176.479 58.42 177.379 58.42C178.179 58.42 178.809 58.27 179.269 57.97C179.729 57.67 179.959 57.24 179.959 56.68C179.959 56.12 179.689 55.71 179.149 55.45C178.609 55.19 177.729 54.89 176.509 54.55C175.489 54.27 174.619 54 173.899 53.74C173.179 53.48 172.599 53.19 172.159 52.87C171.719 52.53 171.399 52.15 171.199 51.73C170.999 51.29 170.899 50.77 170.899 50.17C170.899 49.37 171.049 48.65 171.349 48.01C171.669 47.37 172.109 46.83 172.669 46.39C173.229 45.93 173.879 45.58 174.619 45.34C175.379 45.1 176.199 44.98 177.079 44.98C178.259 44.98 179.359 45.15 180.379 45.49C181.419 45.83 182.369 46.38 183.229 47.14L181.609 49.57C180.809 48.97 180.029 48.53 179.269 48.25C178.529 47.97 177.789 47.83 177.049 47.83C176.369 47.83 175.799 47.97 175.339 48.25C174.879 48.53 174.649 48.98 174.649 49.6C174.649 49.88 174.699 50.11 174.799 50.29C174.919 50.47 175.099 50.63 175.339 50.77C175.579 50.91 175.889 51.05 176.269 51.19C176.669 51.31 177.159 51.44 177.739 51.58C178.819 51.86 179.739 52.14 180.499 52.42C181.279 52.7 181.909 53.02 182.389 53.38C182.889 53.74 183.249 54.16 183.469 54.64C183.709 55.1 183.829 55.66 183.829 56.32C183.829 57.86 183.259 59.08 182.119 59.98C180.979 60.86 179.429 61.3 177.469 61.3Z" fill="url(#paint1_linear)"/>
<defs>
<linearGradient id="paint0_linear" x1="147.693" y1="-2.65076e-05" x2="190.277" y2="162.526" gradientUnits="userSpaceOnUse">
<stop stop-color="#141414"/>
<stop offset="1" stop-color="#222222"/>
</linearGradient>
<linearGradient id="paint1_linear" x1="129" y1="33" x2="129" y2="64" gradientUnits="userSpaceOnUse">
<stop stop-color="white"/>
<stop offset="1" stop-color="#959595"/>
</linearGradient>
</defs>
</svg>
