<svg width="44" height="52" viewBox="0 0 44 52" fill="none" xmlns="http://www.w3.org/2000/svg">
<path d="M17.3935 21.751C15.9648 21.751 14.8369 23.0484 14.8369 24.6312C14.8369 26.214 15.9899 27.5114 17.3935 27.5114C18.8221 27.5114 19.95 26.214 19.95 24.6312C19.9751 23.0484 18.8221 21.751 17.3935 21.751ZM26.5418 21.751C25.1132 21.751 23.9853 23.0484 23.9853 24.6312C23.9853 26.214 25.1383 27.5114 26.5418 27.5114C27.9705 27.5114 29.0984 26.214 29.0984 24.6312C29.0984 23.0484 27.9705 21.751 26.5418 21.751Z" fill="white"/>
<path d="M38.7241 0H5.13814C2.3059 0 0 2.38501 0 5.34034V40.3896C0 43.3449 2.3059 45.7299 5.13814 45.7299H33.5608L32.2324 40.934L35.4407 44.0189L38.4734 46.9224L43.8622 51.848V5.34034C43.8622 2.38501 41.5563 0 38.7241 0ZM29.0493 33.8567C29.0493 33.8567 28.147 32.742 27.3951 31.7569C30.6785 30.7977 31.9317 28.6719 31.9317 28.6719C30.9041 29.3719 29.9265 29.8644 29.0493 30.2014C27.7961 30.7458 26.593 31.1088 25.415 31.3162C23.2684 31.725 21.0669 31.7162 18.9234 31.2902C17.665 31.0356 16.4317 30.6624 15.239 30.1755C14.6103 29.9255 13.9989 29.631 13.4093 29.2941C13.3341 29.2423 13.2589 29.2163 13.1837 29.1645C13.1336 29.1386 13.1085 29.1126 13.0835 29.0867C12.6323 28.8275 12.3817 28.646 12.3817 28.646C12.3817 28.646 13.5847 30.7199 16.7679 31.705C16.016 32.6901 15.0886 33.8567 15.0886 33.8567C9.54943 33.6753 7.44404 29.9163 7.44404 29.9163C7.44404 21.5688 11.0533 14.8026 11.0533 14.8026C14.6625 12.0028 18.0963 12.0806 18.0963 12.0806L18.3469 12.3917C13.8354 13.7397 11.7551 15.7877 11.7551 15.7877C11.7551 15.7877 12.3065 15.4766 13.2339 15.0359C15.9157 13.8175 18.0462 13.4805 18.9234 13.4027C19.0738 13.3768 19.1991 13.3509 19.3495 13.3509C23.6959 12.7424 28.1162 13.5968 31.9567 15.7877C31.9567 15.7877 29.9767 13.8434 25.7158 12.4954L26.0667 12.0806C26.0667 12.0806 29.5005 12.0028 33.1097 14.8026C33.1097 14.8026 36.7189 21.5688 36.7189 29.9163C36.7189 29.9163 34.5885 33.6753 29.0493 33.8567Z" fill="url(#paint0_linear)"/>
<defs>
<linearGradient id="paint0_linear" x1="22.084" y1="7.54785" x2="47.084" y2="95.5478" gradientUnits="userSpaceOnUse">
<stop stop-color="white"/>
<stop offset="1" stop-color="#ACACAC"/>
</linearGradient>
</defs>
</svg>
