<svg width="258" height="97" viewBox="0 0 258 97" fill="none" xmlns="http://www.w3.org/2000/svg">
<path d="M0 48.5C0 21.7142 21.71 0 48.4907 0H209.509C236.29 0 258 21.7142 258 48.5C258 75.2858 236.29 97 209.509 97H48.4907C21.71 97 0 75.2858 0 48.5Z" fill="url(#paint0_linear)"/>
<path d="M70.55 48.28H66.17L65.21 52.39H69.14V55.39H64.49L63.11 61H59.87L61.28 55.39H57.68L56.33 61H53.09L54.47 55.39H51.11V52.39H55.19L56.18 48.28H52.52V45.46H56.87L58.28 39.7H61.52L60.08 45.46H63.68L65.06 39.7H68.3L66.89 45.46H70.55V48.28ZM62 52.39L62.96 48.28H59.39L58.4 52.39H62ZM80.7411 61.3C79.4811 61.3 78.3411 61.09 77.3211 60.67C76.3011 60.23 75.4311 59.64 74.7111 58.9C73.9911 58.16 73.4311 57.3 73.0311 56.32C72.6511 55.34 72.4611 54.31 72.4611 53.23C72.4611 52.11 72.6511 51.06 73.0311 50.08C73.4111 49.08 73.9611 48.21 74.6811 47.47C75.4011 46.71 76.2711 46.11 77.2911 45.67C78.3311 45.23 79.4911 45.01 80.7711 45.01C82.0511 45.01 83.1911 45.23 84.1911 45.67C85.2111 46.11 86.0711 46.7 86.7711 47.44C87.4911 48.18 88.0311 49.04 88.3911 50.02C88.7711 51 88.9611 52.02 88.9611 53.08C88.9611 53.34 88.9511 53.59 88.9311 53.83C88.9311 54.07 88.9111 54.27 88.8711 54.43H76.7211C76.7811 55.05 76.9311 55.6 77.1711 56.08C77.4111 56.56 77.7211 56.97 78.1011 57.31C78.4811 57.65 78.9111 57.91 79.3911 58.09C79.8711 58.27 80.3711 58.36 80.8911 58.36C81.6911 58.36 82.4411 58.17 83.1411 57.79C83.8611 57.39 84.3511 56.87 84.6111 56.23L88.0611 57.19C87.4811 58.39 86.5511 59.38 85.2711 60.16C84.0111 60.92 82.5011 61.3 80.7411 61.3ZM84.8211 51.82C84.7211 50.64 84.2811 49.7 83.5011 49C82.7411 48.28 81.8111 47.92 80.7111 47.92C80.1711 47.92 79.6611 48.02 79.1811 48.22C78.7211 48.4 78.3111 48.66 77.9511 49C77.5911 49.34 77.2911 49.75 77.0511 50.23C76.8311 50.71 76.7011 51.24 76.6611 51.82H84.8211ZM93.3434 45.28L96.7334 50.2L96.9734 50.74L97.2734 50.2L100.633 45.28H104.773L99.1634 53.17L104.863 61H100.723L97.2434 56.11L96.9734 55.6L96.7334 56.11L93.2834 61H89.1434L94.8134 53.17L89.2334 45.28H93.3434ZM116.211 61.3C114.971 61.3 113.891 61.03 112.971 60.49C112.051 59.93 111.331 59.18 110.811 58.24V67.39H106.791V45.28H110.301V47.98C110.881 47.06 111.631 46.34 112.551 45.82C113.471 45.28 114.531 45.01 115.731 45.01C116.791 45.01 117.771 45.23 118.671 45.67C119.571 46.09 120.341 46.67 120.981 47.41C121.641 48.13 122.151 48.99 122.511 49.99C122.891 50.97 123.081 52.01 123.081 53.11C123.081 54.25 122.911 55.32 122.571 56.32C122.231 57.32 121.751 58.19 121.131 58.93C120.531 59.67 119.811 60.25 118.971 60.67C118.131 61.09 117.211 61.3 116.211 61.3ZM114.861 57.88C115.461 57.88 116.011 57.75 116.511 57.49C117.031 57.23 117.471 56.88 117.831 56.44C118.191 56 118.471 55.49 118.671 54.91C118.871 54.33 118.971 53.73 118.971 53.11C118.971 52.45 118.861 51.84 118.641 51.28C118.421 50.7 118.111 50.2 117.711 49.78C117.331 49.36 116.871 49.03 116.331 48.79C115.811 48.55 115.241 48.43 114.621 48.43C114.241 48.43 113.851 48.5 113.451 48.64C113.051 48.76 112.681 48.94 112.341 49.18C112.001 49.42 111.691 49.7 111.411 50.02C111.151 50.34 110.951 50.69 110.811 51.07V54.76C111.171 55.66 111.721 56.41 112.461 57.01C113.201 57.59 114.001 57.88 114.861 57.88ZM133.065 61.3C131.785 61.3 130.635 61.08 129.615 60.64C128.595 60.2 127.725 59.61 127.005 58.87C126.305 58.11 125.765 57.24 125.385 56.26C125.005 55.28 124.815 54.25 124.815 53.17C124.815 52.07 125.005 51.03 125.385 50.05C125.765 49.07 126.305 48.21 127.005 47.47C127.725 46.71 128.595 46.11 129.615 45.67C130.635 45.23 131.785 45.01 133.065 45.01C134.345 45.01 135.485 45.23 136.485 45.67C137.505 46.11 138.365 46.71 139.065 47.47C139.785 48.21 140.335 49.07 140.715 50.05C141.095 51.03 141.285 52.07 141.285 53.17C141.285 54.25 141.095 55.28 140.715 56.26C140.335 57.24 139.795 58.11 139.095 58.87C138.395 59.61 137.535 60.2 136.515 60.64C135.495 61.08 134.345 61.3 133.065 61.3ZM128.955 53.17C128.955 53.87 129.055 54.51 129.255 55.09C129.475 55.65 129.765 56.14 130.125 56.56C130.505 56.98 130.945 57.31 131.445 57.55C131.945 57.77 132.485 57.88 133.065 57.88C133.645 57.88 134.185 57.77 134.685 57.55C135.185 57.31 135.615 56.98 135.975 56.56C136.355 56.14 136.645 55.64 136.845 55.06C137.065 54.48 137.175 53.84 137.175 53.14C137.175 52.46 137.065 51.83 136.845 51.25C136.645 50.67 136.355 50.17 135.975 49.75C135.615 49.33 135.185 49.01 134.685 48.79C134.185 48.55 133.645 48.43 133.065 48.43C132.485 48.43 131.945 48.55 131.445 48.79C130.945 49.03 130.505 49.36 130.125 49.78C129.765 50.2 129.475 50.7 129.255 51.28C129.055 51.86 128.955 52.49 128.955 53.17ZM149.938 61.3C148.618 61.3 147.328 61.09 146.068 60.67C144.808 60.25 143.728 59.65 142.828 58.87L144.328 56.35C145.288 57.03 146.218 57.55 147.118 57.91C148.038 58.25 148.948 58.42 149.848 58.42C150.648 58.42 151.278 58.27 151.738 57.97C152.198 57.67 152.428 57.24 152.428 56.68C152.428 56.12 152.158 55.71 151.618 55.45C151.078 55.19 150.198 54.89 148.978 54.55C147.958 54.27 147.088 54 146.368 53.74C145.648 53.48 145.068 53.19 144.628 52.87C144.188 52.53 143.868 52.15 143.668 51.73C143.468 51.29 143.368 50.77 143.368 50.17C143.368 49.37 143.518 48.65 143.818 48.01C144.138 47.37 144.578 46.83 145.138 46.39C145.698 45.93 146.348 45.58 147.088 45.34C147.848 45.1 148.668 44.98 149.548 44.98C150.728 44.98 151.828 45.15 152.848 45.49C153.888 45.83 154.838 46.38 155.698 47.14L154.078 49.57C153.278 48.97 152.498 48.53 151.738 48.25C150.998 47.97 150.258 47.83 149.518 47.83C148.838 47.83 148.268 47.97 147.808 48.25C147.348 48.53 147.118 48.98 147.118 49.6C147.118 49.88 147.168 50.11 147.268 50.29C147.388 50.47 147.568 50.63 147.808 50.77C148.048 50.91 148.358 51.05 148.738 51.19C149.138 51.31 149.628 51.44 150.208 51.58C151.288 51.86 152.208 52.14 152.968 52.42C153.748 52.7 154.378 53.02 154.858 53.38C155.358 53.74 155.718 54.16 155.938 54.64C156.178 55.1 156.298 55.66 156.298 56.32C156.298 57.86 155.728 59.08 154.588 59.98C153.448 60.86 151.898 61.3 149.938 61.3ZM163.71 61.3C162.09 61.3 160.86 60.78 160.02 59.74C159.18 58.7 158.76 57.16 158.76 55.12V45.28H162.78V54.25C162.78 56.67 163.65 57.88 165.39 57.88C166.17 57.88 166.92 57.65 167.64 57.19C168.38 56.71 168.98 55.99 169.44 55.03V45.28H173.46V56.38C173.46 56.8 173.53 57.1 173.67 57.28C173.83 57.46 174.08 57.56 174.42 57.58V61C174.02 61.08 173.68 61.13 173.4 61.15C173.14 61.17 172.9 61.18 172.68 61.18C171.96 61.18 171.37 61.02 170.91 60.7C170.47 60.36 170.21 59.9 170.13 59.32L170.04 58.06C169.34 59.14 168.44 59.95 167.34 60.49C166.24 61.03 165.03 61.3 163.71 61.3ZM186.815 48.76C185.595 48.78 184.505 49.02 183.545 49.48C182.585 49.92 181.895 50.59 181.475 51.49V61H177.455V45.28H181.145V48.64C181.425 48.1 181.755 47.62 182.135 47.2C182.515 46.76 182.925 46.38 183.365 46.06C183.805 45.74 184.245 45.5 184.685 45.34C185.145 45.16 185.585 45.07 186.005 45.07C186.225 45.07 186.385 45.07 186.485 45.07C186.605 45.07 186.715 45.08 186.815 45.1V48.76ZM195.556 61.3C194.296 61.3 193.156 61.09 192.136 60.67C191.116 60.23 190.246 59.64 189.526 58.9C188.806 58.16 188.246 57.3 187.846 56.32C187.466 55.34 187.276 54.31 187.276 53.23C187.276 52.11 187.466 51.06 187.846 50.08C188.226 49.08 188.776 48.21 189.496 47.47C190.216 46.71 191.086 46.11 192.106 45.67C193.146 45.23 194.306 45.01 195.586 45.01C196.866 45.01 198.006 45.23 199.006 45.67C200.026 46.11 200.886 46.7 201.586 47.44C202.306 48.18 202.846 49.04 203.206 50.02C203.586 51 203.776 52.02 203.776 53.08C203.776 53.34 203.766 53.59 203.746 53.83C203.746 54.07 203.726 54.27 203.686 54.43H191.536C191.596 55.05 191.746 55.6 191.986 56.08C192.226 56.56 192.536 56.97 192.916 57.31C193.296 57.65 193.726 57.91 194.206 58.09C194.686 58.27 195.186 58.36 195.706 58.36C196.506 58.36 197.256 58.17 197.956 57.79C198.676 57.39 199.166 56.87 199.426 56.23L202.876 57.19C202.296 58.39 201.366 59.38 200.086 60.16C198.826 60.92 197.316 61.3 195.556 61.3ZM199.636 51.82C199.536 50.64 199.096 49.7 198.316 49C197.556 48.28 196.626 47.92 195.526 47.92C194.986 47.92 194.476 48.02 193.996 48.22C193.536 48.4 193.126 48.66 192.766 49C192.406 49.34 192.106 49.75 191.866 50.23C191.646 50.71 191.516 51.24 191.476 51.82H199.636Z" fill="url(#paint1_linear)"/>
<defs>
<linearGradient id="paint0_linear" x1="147.693" y1="-2.65076e-05" x2="190.277" y2="162.526" gradientUnits="userSpaceOnUse">
<stop stop-color="#141414"/>
<stop offset="1" stop-color="#222222"/>
</linearGradient>
<linearGradient id="paint1_linear" x1="129" y1="33" x2="129" y2="64" gradientUnits="userSpaceOnUse">
<stop stop-color="white"/>
<stop offset="1" stop-color="#959595"/>
</linearGradient>
</defs>
</svg>
