<svg width="281" height="123" viewBox="0 0 281 123" fill="none" xmlns="http://www.w3.org/2000/svg">
<path d="M21.5098 74.5C21.5098 47.7142 43.2198 26 70.0004 26L232.51 26C259.291 26 281 47.7142 281 74.5C281 101.286 259.291 123 232.51 123H70.0004C43.2198 123 21.5098 101.286 21.5098 74.5Z" fill="url(#paint0_linear)"/>
<path d="M105.55 70.28H101.17L100.21 74.39H104.14V77.39H99.49L98.11 83H94.87L96.28 77.39H92.68L91.33 83H88.09L89.47 77.39H86.11V74.39H90.19L91.18 70.28H87.52V67.46H91.87L93.28 61.7H96.52L95.08 67.46H98.68L100.06 61.7H103.3L101.89 67.46H105.55V70.28ZM97 74.39L97.96 70.28H94.39L93.4 74.39H97ZM109.411 83V71.18H107.341V68.12H109.411V67.16C109.411 65.2 109.881 63.65 110.821 62.51C111.761 61.37 113.041 60.8 114.661 60.8C115.941 60.8 117.231 61.11 118.531 61.73L117.721 64.76C117.421 64.6 117.061 64.47 116.641 64.37C116.241 64.25 115.871 64.19 115.531 64.19C114.131 64.19 113.431 65.13 113.431 67.01V68.12H117.271V71.18H113.431V83H109.411ZM123.61 83.3C122.85 83.3 122.14 83.18 121.48 82.94C120.82 82.68 120.25 82.33 119.77 81.89C119.29 81.43 118.91 80.9 118.63 80.3C118.37 79.7 118.24 79.04 118.24 78.32C118.24 77.58 118.4 76.9 118.72 76.28C119.06 75.64 119.52 75.1 120.1 74.66C120.7 74.22 121.41 73.88 122.23 73.64C123.05 73.38 123.95 73.25 124.93 73.25C125.63 73.25 126.31 73.31 126.97 73.43C127.65 73.55 128.25 73.72 128.77 73.94V73.04C128.77 72 128.47 71.2 127.87 70.64C127.29 70.08 126.42 69.8 125.26 69.8C124.42 69.8 123.6 69.95 122.8 70.25C122 70.55 121.18 70.99 120.34 71.57L119.11 69.02C121.13 67.68 123.31 67.01 125.65 67.01C127.91 67.01 129.66 67.57 130.9 68.69C132.16 69.79 132.79 71.39 132.79 73.49V78.38C132.79 78.8 132.86 79.1 133 79.28C133.16 79.46 133.41 79.56 133.75 79.58V83C133.07 83.14 132.48 83.21 131.98 83.21C131.22 83.21 130.63 83.04 130.21 82.7C129.81 82.36 129.56 81.91 129.46 81.35L129.37 80.48C128.67 81.4 127.82 82.1 126.82 82.58C125.82 83.06 124.75 83.3 123.61 83.3ZM124.75 80.36C125.43 80.36 126.07 80.24 126.67 80C127.29 79.76 127.77 79.44 128.11 79.04C128.55 78.7 128.77 78.32 128.77 77.9V76.1C128.29 75.92 127.77 75.78 127.21 75.68C126.65 75.56 126.11 75.5 125.59 75.5C124.55 75.5 123.7 75.74 123.04 76.22C122.38 76.68 122.05 77.27 122.05 77.99C122.05 78.67 122.31 79.24 122.83 79.7C123.35 80.14 123.99 80.36 124.75 80.36ZM160.967 83H156.947V74.18C156.947 72.92 156.727 72 156.287 71.42C155.867 70.84 155.277 70.55 154.517 70.55C153.717 70.55 152.967 70.86 152.267 71.48C151.567 72.08 151.067 72.87 150.767 73.85V83H146.747V74.18C146.747 72.92 146.527 72 146.087 71.42C145.667 70.84 145.077 70.55 144.317 70.55C143.537 70.55 142.787 70.85 142.067 71.45C141.367 72.05 140.867 72.84 140.567 73.82V83H136.547V67.28H140.177V70.19C140.757 69.17 141.547 68.39 142.547 67.85C143.567 67.29 144.727 67.01 146.027 67.01C147.347 67.01 148.367 67.33 149.087 67.97C149.807 68.61 150.267 69.4 150.467 70.34C151.107 69.26 151.917 68.44 152.897 67.88C153.877 67.3 154.997 67.01 156.257 67.01C157.217 67.01 158.007 67.19 158.627 67.55C159.247 67.91 159.727 68.38 160.067 68.96C160.407 69.54 160.637 70.2 160.757 70.94C160.897 71.68 160.967 72.43 160.967 73.19V83ZM171.727 83.3C170.447 83.3 169.297 83.08 168.277 82.64C167.257 82.2 166.387 81.61 165.667 80.87C164.967 80.11 164.427 79.24 164.047 78.26C163.667 77.28 163.477 76.25 163.477 75.17C163.477 74.07 163.667 73.03 164.047 72.05C164.427 71.07 164.967 70.21 165.667 69.47C166.387 68.71 167.257 68.11 168.277 67.67C169.297 67.23 170.447 67.01 171.727 67.01C173.007 67.01 174.147 67.23 175.147 67.67C176.167 68.11 177.027 68.71 177.727 69.47C178.447 70.21 178.997 71.07 179.377 72.05C179.757 73.03 179.947 74.07 179.947 75.17C179.947 76.25 179.757 77.28 179.377 78.26C178.997 79.24 178.457 80.11 177.757 80.87C177.057 81.61 176.197 82.2 175.177 82.64C174.157 83.08 173.007 83.3 171.727 83.3ZM167.617 75.17C167.617 75.87 167.717 76.51 167.917 77.09C168.137 77.65 168.427 78.14 168.787 78.56C169.167 78.98 169.607 79.31 170.107 79.55C170.607 79.77 171.147 79.88 171.727 79.88C172.307 79.88 172.847 79.77 173.347 79.55C173.847 79.31 174.277 78.98 174.637 78.56C175.017 78.14 175.307 77.64 175.507 77.06C175.727 76.48 175.837 75.84 175.837 75.14C175.837 74.46 175.727 73.83 175.507 73.25C175.307 72.67 175.017 72.17 174.637 71.75C174.277 71.33 173.847 71.01 173.347 70.79C172.847 70.55 172.307 70.43 171.727 70.43C171.147 70.43 170.607 70.55 170.107 70.79C169.607 71.03 169.167 71.36 168.787 71.78C168.427 72.2 168.137 72.7 167.917 73.28C167.717 73.86 167.617 74.49 167.617 75.17ZM187.46 83.3C185.84 83.3 184.61 82.78 183.77 81.74C182.93 80.7 182.51 79.16 182.51 77.12V67.28H186.53V76.25C186.53 78.67 187.4 79.88 189.14 79.88C189.92 79.88 190.67 79.65 191.39 79.19C192.13 78.71 192.73 77.99 193.19 77.03V67.28H197.21V78.38C197.21 78.8 197.28 79.1 197.42 79.28C197.58 79.46 197.83 79.56 198.17 79.58V83C197.77 83.08 197.43 83.13 197.15 83.15C196.89 83.17 196.65 83.18 196.43 83.18C195.71 83.18 195.12 83.02 194.66 82.7C194.22 82.36 193.96 81.9 193.88 81.32L193.79 80.06C193.09 81.14 192.19 81.95 191.09 82.49C189.99 83.03 188.78 83.3 187.46 83.3ZM207.145 83.3C205.825 83.3 204.535 83.09 203.275 82.67C202.015 82.25 200.935 81.65 200.035 80.87L201.535 78.35C202.495 79.03 203.425 79.55 204.325 79.91C205.245 80.25 206.155 80.42 207.055 80.42C207.855 80.42 208.485 80.27 208.945 79.97C209.405 79.67 209.635 79.24 209.635 78.68C209.635 78.12 209.365 77.71 208.825 77.45C208.285 77.19 207.405 76.89 206.185 76.55C205.165 76.27 204.295 76 203.575 75.74C202.855 75.48 202.275 75.19 201.835 74.87C201.395 74.53 201.075 74.15 200.875 73.73C200.675 73.29 200.575 72.77 200.575 72.17C200.575 71.37 200.725 70.65 201.025 70.01C201.345 69.37 201.785 68.83 202.345 68.39C202.905 67.93 203.555 67.58 204.295 67.34C205.055 67.1 205.875 66.98 206.755 66.98C207.935 66.98 209.035 67.15 210.055 67.49C211.095 67.83 212.045 68.38 212.905 69.14L211.285 71.57C210.485 70.97 209.705 70.53 208.945 70.25C208.205 69.97 207.465 69.83 206.725 69.83C206.045 69.83 205.475 69.97 205.015 70.25C204.555 70.53 204.325 70.98 204.325 71.6C204.325 71.88 204.375 72.11 204.475 72.29C204.595 72.47 204.775 72.63 205.015 72.77C205.255 72.91 205.565 73.05 205.945 73.19C206.345 73.31 206.835 73.44 207.415 73.58C208.495 73.86 209.415 74.14 210.175 74.42C210.955 74.7 211.585 75.02 212.065 75.38C212.565 75.74 212.925 76.16 213.145 76.64C213.385 77.1 213.505 77.66 213.505 78.32C213.505 79.86 212.935 81.08 211.795 81.98C210.655 82.86 209.105 83.3 207.145 83.3Z" fill="url(#paint1_linear)"/>
<path d="M16.7359 65.7666C12.8108 65.5881 10.6786 64.9349 9.26044 64.3817C7.38128 63.6501 6.04155 62.7791 4.6312 61.3708C3.22085 59.9624 2.34797 58.6226 1.62023 56.7435C1.06708 55.3253 0.413885 53.1931 0.235385 49.268C0.0392308 45.0252 0 43.7522 0 33.0029C0 22.2537 0.0431539 20.9826 0.233423 16.7359C0.411924 12.8108 1.06904 10.6826 1.61827 9.26044C2.34993 7.38128 3.22281 6.04155 4.62924 4.62924C6.03763 3.22085 7.37736 2.346 9.25848 1.61827C10.6767 1.06512 12.8089 0.411924 16.7339 0.233423C20.9787 0.0392308 22.2537 0 32.999 0C43.7483 0 45.0194 0.0431539 49.2661 0.233423C53.1911 0.411924 55.3194 1.06904 56.7415 1.61827C58.6207 2.346 59.9604 3.22085 61.3708 4.62924C62.7811 6.03763 63.6501 7.37932 64.3817 9.25848C64.9349 10.6767 65.5881 12.8089 65.7666 16.7339C65.9608 20.9807 66 22.2517 66 33.001C66 43.7463 65.9608 45.0213 65.7666 49.268C65.5881 53.1931 64.931 55.3253 64.3817 56.7435C63.6501 58.6226 62.7791 59.9624 61.3708 61.3708C59.9624 62.7791 58.6207 63.6501 56.7415 64.3817C55.3233 64.9349 53.1911 65.5881 49.2661 65.7666C45.0233 65.9608 43.7483 66 32.999 66C22.2537 66 20.9787 65.9627 16.7359 65.7666Z" fill="url(#paint2_radial)"/>
<path d="M16.7359 65.7666C12.8108 65.5881 10.6786 64.9349 9.26044 64.3817C7.38128 63.6501 6.04155 62.7791 4.6312 61.3708C3.22085 59.9624 2.34797 58.6226 1.62023 56.7435C1.06708 55.3253 0.413885 53.1931 0.235385 49.268C0.0392308 45.0252 0 43.7522 0 33.0029C0 22.2537 0.0431539 20.9826 0.233423 16.7359C0.411924 12.8108 1.06904 10.6826 1.61827 9.26044C2.34993 7.38128 3.22281 6.04155 4.62924 4.62924C6.03763 3.22085 7.37736 2.346 9.25848 1.61827C10.6767 1.06512 12.8089 0.411924 16.7339 0.233423C20.9787 0.0392308 22.2537 0 32.999 0C43.7483 0 45.0194 0.0431539 49.2661 0.233423C53.1911 0.411924 55.3194 1.06904 56.7415 1.61827C58.6207 2.346 59.9604 3.22085 61.3708 4.62924C62.7811 6.03763 63.6501 7.37932 64.3817 9.25848C64.9349 10.6767 65.5881 12.8089 65.7666 16.7339C65.9608 20.9807 66 22.2517 66 33.001C66 43.7463 65.9608 45.0213 65.7666 49.268C65.5881 53.1931 64.931 55.3253 64.3817 56.7435C63.6501 58.6226 62.7791 59.9624 61.3708 61.3708C59.9624 62.7791 58.6207 63.6501 56.7415 64.3817C55.3233 64.9349 53.1911 65.5881 49.2661 65.7666C45.0233 65.9608 43.7483 66 32.999 66C22.2537 66 20.9787 65.9627 16.7359 65.7666Z" fill="url(#paint3_radial)"/>
<path d="M24.9682 33.1238C24.9682 28.6188 28.6193 24.9658 33.1245 24.9658C37.6297 24.9658 41.2828 28.6188 41.2828 33.1238C41.2828 37.6288 37.6297 41.2817 33.1245 41.2817C28.6193 41.2817 24.9682 37.6288 24.9682 33.1238ZM20.558 33.1238C20.558 40.064 26.184 45.6898 33.1245 45.6898C40.065 45.6898 45.691 40.064 45.691 33.1238C45.691 26.1835 40.065 20.5577 33.1245 20.5577C26.184 20.5577 20.5582 26.1831 20.5582 33.1238H20.558ZM43.252 20.0595C43.2517 20.6403 43.4237 21.2081 43.7463 21.6912C44.0687 22.1742 44.5273 22.5508 45.0638 22.7733C45.6003 22.9958 46.1908 23.0542 46.7605 22.9411C47.3302 22.828 47.8536 22.5485 48.2645 22.138C48.6754 21.7275 48.9553 21.2043 49.0688 20.6347C49.1823 20.0651 49.1244 19.4746 48.9024 18.9379C48.6803 18.4013 48.3041 17.9425 47.8213 17.6196C47.3384 17.2967 46.7707 17.1243 46.1899 17.124H46.1887C45.4102 17.1244 44.6636 17.4337 44.1129 17.9841C43.5623 18.5345 43.2526 19.281 43.252 20.0595ZM23.2375 53.0435C20.8514 52.9349 19.5546 52.5374 18.6927 52.2017C17.5501 51.7569 16.7349 51.2271 15.8778 50.3712C15.0206 49.5152 14.4901 48.7008 14.0472 47.5583C13.7112 46.6969 13.3138 45.3997 13.2053 43.0137C13.0867 40.4342 13.063 39.6593 13.063 33.1242C13.063 26.589 13.0886 25.8163 13.2053 23.2346C13.314 20.8487 13.7144 19.554 14.0472 18.69C14.492 17.5475 15.0218 16.7323 15.8778 15.8752C16.7337 15.0181 17.5482 14.4875 18.6927 14.0447C19.5542 13.7087 20.8514 13.3113 23.2375 13.2028C25.8171 13.0842 26.592 13.0605 33.1245 13.0605C39.657 13.0605 40.4327 13.0858 43.0145 13.2032C45.4005 13.3119 46.6952 13.7123 47.5592 14.0451C48.7018 14.4879 49.517 15.0196 50.3742 15.8756C51.2313 16.7315 51.7599 17.5479 52.2047 18.6904C52.5407 19.5518 52.9381 20.849 53.0466 23.235C53.1652 25.8167 53.1889 26.5894 53.1889 33.1246C53.1889 39.6597 53.1652 40.4324 53.0466 43.0141C52.9379 45.4001 52.5385 46.6969 52.2047 47.5587C51.7599 48.7012 51.2301 49.5164 50.3742 50.3716C49.5182 51.2267 48.7018 51.7573 47.5592 52.2021C46.6978 52.538 45.4005 52.9354 43.0145 53.0439C40.4348 53.1625 39.6599 53.1862 33.1245 53.1862C26.5891 53.1862 25.8163 53.1625 23.2375 53.0439V53.0435ZM23.0348 8.80006C20.4295 8.9187 18.6493 9.33178 17.0946 9.93673C15.4854 10.5614 14.1214 11.3996 12.7593 12.7594C11.3973 14.1193 10.5613 15.4834 9.93654 17.0945C9.33157 18.6501 8.91846 20.4293 8.79982 23.0345C8.67922 25.6438 8.65161 26.478 8.65161 33.1238C8.65161 39.7696 8.67922 40.6038 8.79982 43.213C8.91846 45.8184 9.33157 47.5974 9.93654 49.1531C10.5613 50.7621 11.3975 52.1288 12.7593 53.4881C14.1212 54.8474 15.4835 55.6843 17.0946 56.3108C18.6522 56.9157 20.4295 57.3288 23.0348 57.4475C25.6456 57.5661 26.4784 57.5957 33.1245 57.5957C39.7706 57.5957 40.6048 57.5681 43.2142 57.4475C45.8197 57.3288 47.5987 56.9157 49.1544 56.3108C50.7636 55.6843 52.1276 54.848 53.4897 53.4881C54.8517 52.1283 55.686 50.7621 56.3125 49.1531C56.9174 47.5974 57.3325 45.8182 57.4492 43.213C57.5678 40.6018 57.5954 39.7696 57.5954 33.1238C57.5954 26.478 57.5678 25.6438 57.4492 23.0345C57.3305 20.4291 56.9174 18.6491 56.3125 17.0945C55.686 15.4854 54.8496 14.1214 53.4897 12.7594C52.1298 11.3974 50.7636 10.5614 49.1564 9.93673C47.5987 9.33178 45.8195 8.91674 43.2161 8.80006C40.6064 8.68083 39.7725 8.65186 33.1274 8.65186C26.4824 8.65186 25.6466 8.67946 23.0358 8.80006" fill="white"/>
<defs>
<linearGradient id="paint0_linear" x1="170.583" y1="26.0002" x2="213.166" y2="188.527" gradientUnits="userSpaceOnUse">
<stop stop-color="#141414"/>
<stop offset="1" stop-color="#222222"/>
</linearGradient>
<linearGradient id="paint1_linear" x1="151" y1="55" x2="151" y2="83" gradientUnits="userSpaceOnUse">
<stop stop-color="white"/>
<stop offset="1" stop-color="#959595"/>
</linearGradient>
<radialGradient id="paint2_radial" cx="0" cy="0" r="1" gradientUnits="userSpaceOnUse" gradientTransform="translate(4.27145 64.5541) scale(83.7955)">
<stop offset="0.09" stop-color="#FA8F21"/>
<stop offset="0.78" stop-color="#D82D7E"/>
</radialGradient>
<radialGradient id="paint3_radial" cx="0" cy="0" r="1" gradientUnits="userSpaceOnUse" gradientTransform="translate(45.7159 62.4349) scale(73.7408)">
<stop offset="0.64" stop-color="#8C3AAA" stop-opacity="0"/>
<stop offset="1" stop-color="#8C3AAA"/>
</radialGradient>
</defs>
</svg>
