<svg width="65" height="68" viewBox="0 0 65 68" fill="none" xmlns="http://www.w3.org/2000/svg">
<path d="M32.398 0C23.8055 0 15.565 3.53028 9.48915 9.81421C3.41335 16.0981 0 24.621 0 33.5078C0 42.3946 3.41335 50.9175 9.48915 57.2014C15.565 63.4854 23.8055 67.0156 32.398 67.0156C40.9905 67.0156 49.231 63.4854 55.3068 57.2014C61.3826 50.9175 64.796 42.3946 64.796 33.5078C64.796 24.621 61.3826 16.0981 55.3068 9.81421C49.231 3.53028 40.9905 0 32.398 0V0ZM40.9376 60.8251H40.6865C40.4979 60.8361 40.3091 60.8071 40.1317 60.7399C39.9544 60.6726 39.7922 60.5686 39.6551 60.4341C39.5285 60.2957 39.4298 60.1325 39.3649 59.9542C39.3 59.7758 39.2702 59.5858 39.2772 59.3954V55.4694C39.2934 54.1654 39.3042 52.8446 39.3042 51.5155C39.2998 50.5436 39.1625 49.5772 38.8965 48.645C38.6445 47.7027 38.1367 46.8548 37.4332 46.2017C39.3149 46.0138 41.1648 45.5716 42.9354 44.8865C44.4291 44.2991 45.78 43.3803 46.8934 42.1947C47.9922 41.0024 48.8103 39.5616 49.2827 37.9895C49.8575 36.0643 50.1309 34.0564 50.0927 32.0419C50.1032 30.6353 49.8653 29.2386 49.3907 27.9204C48.9085 26.5918 48.1793 25.3738 47.2444 24.3351C47.4462 23.8112 47.5928 23.2663 47.6817 22.7099C47.7708 22.1515 47.8167 21.5874 47.8167 21.0234C47.8167 20.2974 47.7357 19.5714 47.5738 18.8649C47.4266 18.1403 47.2271 17.4281 46.9771 16.7344C46.8816 16.6959 46.7799 16.6769 46.6774 16.6785H46.3804C45.7595 16.6841 45.1493 16.7902 44.5607 16.9885C43.9124 17.1842 43.2782 17.4268 42.6628 17.7145C42.0507 17.9982 41.4549 18.318 40.8782 18.6722C40.2977 19.0269 39.7847 19.3675 39.3312 19.6831C34.7893 18.3738 29.9878 18.3738 25.4459 19.6831C24.9394 19.3328 24.4245 18.9958 23.9016 18.6722C23.3167 18.315 22.7108 17.9961 22.0873 17.7173C21.4736 17.42 20.8369 17.1763 20.184 16.9885C19.607 16.7913 19.0042 16.6868 18.3967 16.6785H18.0997C17.9981 16.677 17.8973 16.696 17.8027 16.7344C17.5491 17.4291 17.3416 18.1409 17.1817 18.8649C17.0359 19.5742 16.9657 20.2974 16.9631 21.0234C16.9631 21.5874 17.0089 22.1515 17.1007 22.7099C17.1898 23.2656 17.3329 23.8101 17.5327 24.3351C16.6002 25.3751 15.8737 26.5942 15.3944 27.9232C14.9173 29.2409 14.6767 30.6376 14.6844 32.0446C14.6466 34.0484 14.9126 36.0458 15.4727 37.9644C15.9614 39.5364 16.7768 40.9801 17.8594 42.1975C18.9798 43.3759 20.3297 44.2918 21.8174 44.8893C23.5803 45.5874 25.427 46.0342 27.3061 46.2185C26.7814 46.7103 26.3652 47.3131 26.0858 47.986C25.8199 48.6515 25.6384 49.3498 25.5458 50.0635C24.5552 50.554 23.4718 50.8115 22.3735 50.8174C21.3535 50.8596 20.3469 50.5663 19.4982 49.9797C18.684 49.3557 17.9945 48.5743 17.4679 47.6788C17.2322 47.3027 16.9687 46.9461 16.6796 46.6122C16.3746 46.261 16.0383 45.9404 15.6752 45.6544C15.3173 45.3778 14.925 45.1524 14.5089 44.9842C14.0995 44.7986 13.6573 44.7026 13.2103 44.7022C13.1023 44.705 12.9943 44.7162 12.8863 44.7301C12.7388 44.7296 12.5919 44.7484 12.4489 44.786C12.3233 44.82 12.2045 44.8767 12.098 44.9535C12.0495 44.9811 12.009 45.0215 11.9806 45.0706C11.9521 45.1196 11.9367 45.1756 11.936 45.2328C11.9473 45.3671 11.987 45.4973 12.0523 45.6141C12.1177 45.7308 12.207 45.8314 12.3139 45.9085C12.565 46.1151 12.7729 46.2743 12.9403 46.386L13.0213 46.4446C13.3804 46.7322 13.726 47.0422 14.0526 47.3745C14.355 47.6481 14.6277 47.9581 14.8626 48.2959C15.1056 48.6282 15.3162 48.9828 15.4862 49.3598C15.6833 49.734 15.8912 50.164 16.1099 50.6527C16.6175 51.9762 17.5192 53.0959 18.6855 53.8499C19.9086 54.5284 21.2801 54.8663 22.6705 54.83C23.1403 54.83 23.6127 54.802 24.0798 54.7462C24.5442 54.668 25.0059 54.587 25.4702 54.4921V59.3591C25.4786 59.5553 25.4469 59.7512 25.3771 59.9339C25.3073 60.1166 25.201 60.282 25.0652 60.4193C24.9294 60.5566 24.7671 60.6627 24.5889 60.7307C24.4108 60.7987 24.2207 60.8271 24.0312 60.8139H23.8638C17.5679 58.7103 12.205 54.351 8.74089 48.521C5.27674 42.691 3.93896 35.7734 4.96845 29.0138C5.99794 22.2542 9.32704 16.0969 14.3563 11.6506C19.3855 7.20424 25.7844 4.7611 32.4007 4.7611C39.017 4.7611 45.4159 7.20424 50.4451 11.6506C55.4743 16.0969 58.8034 22.2542 59.8329 29.0138C60.8624 35.7734 59.5246 42.691 56.0605 48.521C52.5964 54.351 47.2335 58.7103 40.9376 60.8139V60.8279V60.8251Z" fill="url(#paint0_linear)"/>
<defs>
<linearGradient id="paint0_linear" x1="32.416" y1="5.62901e-08" x2="64.416" y2="113" gradientUnits="userSpaceOnUse">
<stop stop-color="white"/>
<stop offset="1" stop-color="#ACACAC"/>
</linearGradient>
</defs>
</svg>
