<svg width="208" height="71" viewBox="0 0 208 71" fill="none" xmlns="http://www.w3.org/2000/svg">
<path d="M0 35.5C0 15.8939 15.988 0 35.7102 0H154.29C174.012 0 190 15.8939 190 35.5C190 55.1061 174.012 71 154.29 71H35.7102C15.988 71 0 55.1061 0 35.5Z" fill="url(#paint0_linear)"/>
<path d="M63.015 33.944H60.241L59.633 36.547H62.122V38.447H59.177L58.303 42H56.251L57.144 38.447H54.864L54.009 42H51.957L52.831 38.447H50.703V36.547H53.287L53.914 33.944H51.596V32.158H54.351L55.244 28.51H57.296L56.384 32.158H58.664L59.538 28.51H61.59L60.697 32.158H63.015V33.944ZM57.6 36.547L58.208 33.944H55.947L55.32 36.547H57.6ZM68.7474 42.057C68.076 42.057 67.468 41.924 66.9234 41.658C66.3787 41.392 65.9037 41.031 65.4984 40.575C65.1057 40.1063 64.8017 39.568 64.5864 38.96C64.371 38.352 64.2634 37.706 64.2634 37.022C64.2634 36.3 64.3774 35.6287 64.6054 35.008C64.8334 34.3873 65.15 33.8427 65.5554 33.374C65.9607 32.9053 66.4484 32.538 67.0184 32.272C67.5884 32.006 68.2154 31.873 68.8994 31.873C69.672 31.873 70.3497 32.0503 70.9324 32.405C71.515 32.747 71.9964 33.2093 72.3764 33.792V32.044H74.5994V41.525C74.5994 42.2597 74.46 42.9183 74.1814 43.501C73.9027 44.0837 73.5164 44.5777 73.0224 44.983C72.541 45.3883 71.9584 45.6987 71.2744 45.914C70.603 46.1293 69.8684 46.237 69.0704 46.237C67.981 46.237 67.0627 46.0533 66.3154 45.686C65.5807 45.3313 64.9474 44.8247 64.4154 44.166L65.8024 42.817C66.1824 43.2857 66.6574 43.653 67.2274 43.919C67.81 44.185 68.4244 44.318 69.0704 44.318C69.463 44.318 69.8367 44.261 70.1914 44.147C70.5587 44.0457 70.8817 43.881 71.1604 43.653C71.439 43.425 71.6544 43.1337 71.8064 42.779C71.971 42.4243 72.0534 42.0063 72.0534 41.525V40.271C71.724 40.841 71.2617 41.2843 70.6664 41.601C70.071 41.905 69.4314 42.057 68.7474 42.057ZM69.6024 40.024C69.881 40.024 70.147 39.9797 70.4004 39.891C70.6537 39.8023 70.888 39.682 71.1034 39.53C71.3187 39.378 71.5087 39.2007 71.6734 38.998C71.838 38.7953 71.9647 38.58 72.0534 38.352V35.977C71.8254 35.3943 71.4644 34.9257 70.9704 34.571C70.489 34.2163 69.9824 34.039 69.4504 34.039C69.0577 34.039 68.703 34.1277 68.3864 34.305C68.0697 34.4697 67.7974 34.6977 67.5694 34.989C67.3414 35.2677 67.164 35.5907 67.0374 35.958C66.9234 36.3253 66.8664 36.7053 66.8664 37.098C66.8664 37.5033 66.936 37.8833 67.0754 38.238C67.2147 38.5927 67.4047 38.903 67.6454 39.169C67.8987 39.435 68.19 39.644 68.5194 39.796C68.8487 39.948 69.2097 40.024 69.6024 40.024ZM76.8944 42V32.044H79.4404V42H76.8944ZM76.8944 30.657V28.13H79.4404V30.657H76.8944ZM84.4161 42L80.7491 32.044H83.3711L85.8981 39.929L88.4441 32.044H90.8381L87.1711 42H84.4161ZM96.4479 42.19C95.6499 42.19 94.9279 42.057 94.2819 41.791C93.6359 41.5123 93.0849 41.1387 92.6289 40.67C92.1729 40.2013 91.8182 39.6567 91.5649 39.036C91.3242 38.4153 91.2039 37.763 91.2039 37.079C91.2039 36.3697 91.3242 35.7047 91.5649 35.084C91.8055 34.4507 92.1539 33.8997 92.6099 33.431C93.0659 32.9497 93.6169 32.5697 94.2629 32.291C94.9215 32.0123 95.6562 31.873 96.4669 31.873C97.2775 31.873 97.9995 32.0123 98.6329 32.291C99.2789 32.5697 99.8235 32.9433 100.267 33.412C100.723 33.8807 101.065 34.4253 101.293 35.046C101.534 35.6667 101.654 36.3127 101.654 36.984C101.654 37.1487 101.648 37.307 101.635 37.459C101.635 37.611 101.622 37.7377 101.597 37.839H93.9019C93.9399 38.2317 94.0349 38.58 94.1869 38.884C94.3389 39.188 94.5352 39.4477 94.7759 39.663C95.0165 39.8783 95.2889 40.043 95.5929 40.157C95.8969 40.271 96.2135 40.328 96.5429 40.328C97.0495 40.328 97.5245 40.2077 97.9679 39.967C98.4239 39.7137 98.7342 39.3843 98.8989 38.979L101.084 39.587C100.717 40.347 100.128 40.974 99.3169 41.468C98.5189 41.9493 97.5625 42.19 96.4479 42.19ZM99.0319 36.186C98.9685 35.4387 98.6899 34.8433 98.1959 34.4C97.7145 33.944 97.1255 33.716 96.4289 33.716C96.0869 33.716 95.7639 33.7793 95.4599 33.906C95.1685 34.02 94.9089 34.1847 94.6809 34.4C94.4529 34.6153 94.2629 34.875 94.1109 35.179C93.9715 35.483 93.8892 35.8187 93.8639 36.186H99.0319ZM105.922 42.19C105.441 42.19 104.991 42.114 104.573 41.962C104.155 41.7973 103.794 41.5757 103.49 41.297C103.186 41.0057 102.945 40.67 102.768 40.29C102.603 39.91 102.521 39.492 102.521 39.036C102.521 38.5673 102.622 38.1367 102.825 37.744C103.04 37.3387 103.332 36.9967 103.699 36.718C104.079 36.4393 104.529 36.224 105.048 36.072C105.567 35.9073 106.137 35.825 106.758 35.825C107.201 35.825 107.632 35.863 108.05 35.939C108.481 36.015 108.861 36.1227 109.19 36.262V35.692C109.19 35.0333 109 34.5267 108.62 34.172C108.253 33.8173 107.702 33.64 106.967 33.64C106.435 33.64 105.916 33.735 105.409 33.925C104.902 34.115 104.383 34.3937 103.851 34.761L103.072 33.146C104.351 32.2973 105.732 31.873 107.214 31.873C108.645 31.873 109.754 32.2277 110.539 32.937C111.337 33.6337 111.736 34.647 111.736 35.977V39.074C111.736 39.34 111.78 39.53 111.869 39.644C111.97 39.758 112.129 39.8213 112.344 39.834V42C111.913 42.0887 111.54 42.133 111.223 42.133C110.742 42.133 110.368 42.0253 110.102 41.81C109.849 41.5947 109.69 41.3097 109.627 40.955L109.57 40.404C109.127 40.9867 108.588 41.43 107.955 41.734C107.322 42.038 106.644 42.19 105.922 42.19ZM106.644 40.328C107.075 40.328 107.48 40.252 107.86 40.1C108.253 39.948 108.557 39.7453 108.772 39.492C109.051 39.2767 109.19 39.036 109.19 38.77V37.63C108.886 37.516 108.557 37.4273 108.202 37.364C107.847 37.288 107.505 37.25 107.176 37.25C106.517 37.25 105.979 37.402 105.561 37.706C105.143 37.9973 104.934 38.371 104.934 38.827C104.934 39.2577 105.099 39.6187 105.428 39.91C105.757 40.1887 106.163 40.328 106.644 40.328ZM126.205 32.044H128.618L124.457 42H122.367L120.657 37.63L118.966 42H116.876L112.734 32.044H115.128L118.092 39.606L119.308 36.376L117.56 32.063H119.612L120.657 35.122L121.721 32.063H123.773L122.044 36.376L123.241 39.606L126.205 32.044ZM132.27 42.19C131.788 42.19 131.339 42.114 130.921 41.962C130.503 41.7973 130.142 41.5757 129.838 41.297C129.534 41.0057 129.293 40.67 129.116 40.29C128.951 39.91 128.869 39.492 128.869 39.036C128.869 38.5673 128.97 38.1367 129.173 37.744C129.388 37.3387 129.679 36.9967 130.047 36.718C130.427 36.4393 130.876 36.224 131.396 36.072C131.915 35.9073 132.485 35.825 133.106 35.825C133.549 35.825 133.98 35.863 134.398 35.939C134.828 36.015 135.208 36.1227 135.538 36.262V35.692C135.538 35.0333 135.348 34.5267 134.968 34.172C134.6 33.8173 134.049 33.64 133.315 33.64C132.783 33.64 132.263 33.735 131.757 33.925C131.25 34.115 130.731 34.3937 130.199 34.761L129.42 33.146C130.699 32.2973 132.08 31.873 133.562 31.873C134.993 31.873 136.101 32.2277 136.887 32.937C137.685 33.6337 138.084 34.647 138.084 35.977V39.074C138.084 39.34 138.128 39.53 138.217 39.644C138.318 39.758 138.476 39.8213 138.692 39.834V42C138.261 42.0887 137.887 42.133 137.571 42.133C137.089 42.133 136.716 42.0253 136.45 41.81C136.196 41.5947 136.038 41.3097 135.975 40.955L135.918 40.404C135.474 40.9867 134.936 41.43 134.303 41.734C133.669 42.038 132.992 42.19 132.27 42.19ZM132.992 40.328C133.422 40.328 133.828 40.252 134.208 40.1C134.6 39.948 134.904 39.7453 135.12 39.492C135.398 39.2767 135.538 39.036 135.538 38.77V37.63C135.234 37.516 134.904 37.4273 134.55 37.364C134.195 37.288 133.853 37.25 133.524 37.25C132.865 37.25 132.327 37.402 131.909 37.706C131.491 37.9973 131.282 38.371 131.282 38.827C131.282 39.2577 131.446 39.6187 131.776 39.91C132.105 40.1887 132.51 40.328 132.992 40.328ZM140.431 43.938C140.646 44.0013 140.855 44.0457 141.058 44.071C141.26 44.109 141.431 44.128 141.57 44.128C141.735 44.128 141.887 44.0963 142.027 44.033C142.166 43.9697 142.293 43.8557 142.407 43.691C142.521 43.539 142.635 43.3237 142.749 43.045C142.863 42.7663 142.983 42.418 143.11 42L139.177 32.044H141.799L144.497 39.796L146.891 32.044H149.285L145.105 43.976C144.864 44.6727 144.452 45.2427 143.87 45.686C143.287 46.1293 142.565 46.351 141.704 46.351C141.501 46.351 141.292 46.332 141.077 46.294C140.874 46.2687 140.659 46.218 140.431 46.142V43.938Z" fill="url(#paint1_linear)"/>
<defs>
<linearGradient id="paint0_linear" x1="108.766" y1="-1.94025e-05" x2="139.77" y2="119.055" gradientUnits="userSpaceOnUse">
<stop stop-color="#141414"/>
<stop offset="1" stop-color="#222222"/>
</linearGradient>
<linearGradient id="paint1_linear" x1="129" y1="24" x2="129" y2="55" gradientUnits="userSpaceOnUse">
<stop stop-color="white"/>
<stop offset="1" stop-color="#959595"/>
</linearGradient>
</defs>
</svg>
