<svg width="351" height="97" viewBox="0 0 351 97" fill="none" xmlns="http://www.w3.org/2000/svg">
<path d="M0.0078125 48.5C0.0078125 21.7142 21.7178 0 48.4985 0H302.499C329.28 0 350.99 21.7142 350.99 48.5C350.99 75.2858 329.28 97 302.499 97H48.4985C21.7178 97 0.0078125 75.2858 0.0078125 48.5Z" fill="url(#paint0_linear)"/>
<path d="M88.55 46.28H84.17L83.21 50.39H87.14V53.39H82.49L81.11 59H77.87L79.28 53.39H75.68L74.33 59H71.09L72.47 53.39H69.11V50.39H73.19L74.18 46.28H70.52V43.46H74.87L76.28 37.7H79.52L78.08 43.46H81.68L83.06 37.7H86.3L84.89 43.46H88.55V46.28ZM80 50.39L80.96 46.28H77.39L76.4 50.39H80ZM91.4511 59V43.28H95.4711V59H91.4511ZM91.4511 41.09V37.1H95.4711V41.09H91.4511ZM113.708 59H109.688V50.18C109.688 48.92 109.468 48 109.028 47.42C108.588 46.84 107.978 46.55 107.198 46.55C106.798 46.55 106.388 46.63 105.968 46.79C105.548 46.95 105.148 47.18 104.768 47.48C104.408 47.76 104.078 48.1 103.778 48.5C103.478 48.9 103.258 49.34 103.118 49.82V59H99.0976V43.28H102.728V46.19C103.308 45.19 104.148 44.41 105.248 43.85C106.348 43.29 107.588 43.01 108.968 43.01C109.948 43.01 110.748 43.19 111.368 43.55C111.988 43.91 112.468 44.38 112.808 44.96C113.148 45.54 113.378 46.2 113.498 46.94C113.638 47.68 113.708 48.43 113.708 49.19V59ZM134.997 58.49C134.977 58.51 134.857 58.56 134.637 58.64C134.417 58.72 134.127 58.81 133.767 58.91C133.407 58.99 132.997 59.06 132.537 59.12C132.097 59.2 131.657 59.24 131.217 59.24C130.577 59.24 130.007 59.15 129.507 58.97C129.027 58.79 128.617 58.55 128.277 58.25C127.937 57.93 127.677 57.57 127.497 57.17C127.317 56.77 127.227 56.34 127.227 55.88V43.49C127.227 43.05 127.187 42.63 127.107 42.23C127.047 41.83 126.917 41.48 126.717 41.18C126.537 40.88 126.277 40.65 125.937 40.49C125.617 40.31 125.207 40.22 124.707 40.22C123.727 40.22 123.037 40.53 122.637 41.15C122.257 41.77 122.057 42.58 122.037 43.58V44.12H124.647V47.18H122.037V59H118.017V47.18H115.947V44.12H118.017V42.8C118.017 40.86 118.597 39.38 119.757 38.36C120.917 37.32 122.527 36.8 124.587 36.8C126.867 36.8 128.547 37.34 129.627 38.42C130.707 39.5 131.247 40.92 131.247 42.68V53.87C131.247 54.07 131.267 54.28 131.307 54.5C131.367 54.7 131.457 54.89 131.577 55.07C131.697 55.23 131.847 55.37 132.027 55.49C132.207 55.59 132.427 55.64 132.687 55.64C132.867 55.64 133.057 55.62 133.257 55.58C133.457 55.54 133.637 55.5 133.797 55.46C133.977 55.4 134.127 55.35 134.247 55.31C134.367 55.27 134.427 55.25 134.427 55.25L134.997 58.49ZM141.573 59.3C139.953 59.3 138.723 58.78 137.883 57.74C137.043 56.7 136.623 55.16 136.623 53.12V43.28H140.643V52.25C140.643 54.67 141.513 55.88 143.253 55.88C144.033 55.88 144.783 55.65 145.503 55.19C146.243 54.71 146.843 53.99 147.303 53.03V43.28H151.323V54.38C151.323 54.8 151.393 55.1 151.533 55.28C151.693 55.46 151.943 55.56 152.283 55.58V59C151.883 59.08 151.543 59.13 151.263 59.15C151.003 59.17 150.763 59.18 150.543 59.18C149.823 59.18 149.233 59.02 148.773 58.7C148.333 58.36 148.073 57.9 147.993 57.32L147.903 56.06C147.203 57.14 146.303 57.95 145.203 58.49C144.103 59.03 142.893 59.3 141.573 59.3ZM162.608 59.3C161.348 59.3 160.208 59.09 159.188 58.67C158.168 58.23 157.298 57.64 156.578 56.9C155.858 56.16 155.298 55.3 154.898 54.32C154.518 53.34 154.328 52.31 154.328 51.23C154.328 50.11 154.518 49.06 154.898 48.08C155.278 47.08 155.828 46.21 156.548 45.47C157.268 44.71 158.138 44.11 159.158 43.67C160.198 43.23 161.358 43.01 162.638 43.01C163.918 43.01 165.058 43.23 166.058 43.67C167.078 44.11 167.938 44.7 168.638 45.44C169.358 46.18 169.898 47.04 170.258 48.02C170.638 49 170.828 50.02 170.828 51.08C170.828 51.34 170.818 51.59 170.798 51.83C170.798 52.07 170.778 52.27 170.738 52.43H158.588C158.648 53.05 158.798 53.6 159.038 54.08C159.278 54.56 159.588 54.97 159.968 55.31C160.348 55.65 160.778 55.91 161.258 56.09C161.738 56.27 162.238 56.36 162.758 56.36C163.558 56.36 164.308 56.17 165.008 55.79C165.728 55.39 166.218 54.87 166.478 54.23L169.928 55.19C169.348 56.39 168.418 57.38 167.138 58.16C165.878 58.92 164.368 59.3 162.608 59.3ZM166.688 49.82C166.588 48.64 166.148 47.7 165.368 47C164.608 46.28 163.678 45.92 162.578 45.92C162.038 45.92 161.528 46.02 161.048 46.22C160.588 46.4 160.178 46.66 159.818 47C159.458 47.34 159.158 47.75 158.918 48.23C158.698 48.71 158.568 49.24 158.528 49.82H166.688ZM187.887 59H183.867V50.18C183.867 48.92 183.647 48 183.207 47.42C182.767 46.84 182.157 46.55 181.377 46.55C180.977 46.55 180.567 46.63 180.147 46.79C179.727 46.95 179.327 47.18 178.947 47.48C178.587 47.76 178.257 48.1 177.957 48.5C177.657 48.9 177.437 49.34 177.297 49.82V59H173.277V43.28H176.907V46.19C177.487 45.19 178.327 44.41 179.427 43.85C180.527 43.29 181.767 43.01 183.147 43.01C184.127 43.01 184.927 43.19 185.547 43.55C186.167 43.91 186.647 44.38 186.987 44.96C187.327 45.54 187.557 46.2 187.677 46.94C187.817 47.68 187.887 48.43 187.887 49.19V59ZM190.393 51.14C190.393 50.04 190.583 49 190.963 48.02C191.343 47.04 191.893 46.18 192.613 45.44C193.333 44.7 194.203 44.11 195.223 43.67C196.243 43.23 197.393 43.01 198.673 43.01C200.393 43.01 201.853 43.38 203.053 44.12C204.273 44.86 205.183 45.83 205.783 47.03L201.853 48.23C201.513 47.65 201.063 47.21 200.503 46.91C199.943 46.59 199.323 46.43 198.643 46.43C198.063 46.43 197.523 46.55 197.023 46.79C196.523 47.01 196.083 47.33 195.703 47.75C195.343 48.15 195.053 48.64 194.833 49.22C194.633 49.8 194.533 50.44 194.533 51.14C194.533 51.84 194.643 52.48 194.863 53.06C195.083 53.64 195.373 54.14 195.733 54.56C196.113 54.98 196.553 55.31 197.053 55.55C197.553 55.77 198.083 55.88 198.643 55.88C199.363 55.88 200.023 55.7 200.623 55.34C201.243 54.98 201.673 54.54 201.913 54.02L205.843 55.22C205.303 56.42 204.413 57.4 203.173 58.16C201.933 58.92 200.443 59.3 198.703 59.3C197.423 59.3 196.273 59.08 195.253 58.64C194.233 58.2 193.363 57.61 192.643 56.87C191.923 56.11 191.363 55.24 190.963 54.26C190.583 53.26 190.393 52.22 190.393 51.14ZM215.46 59.3C214.2 59.3 213.06 59.09 212.04 58.67C211.02 58.23 210.15 57.64 209.43 56.9C208.71 56.16 208.15 55.3 207.75 54.32C207.37 53.34 207.18 52.31 207.18 51.23C207.18 50.11 207.37 49.06 207.75 48.08C208.13 47.08 208.68 46.21 209.4 45.47C210.12 44.71 210.99 44.11 212.01 43.67C213.05 43.23 214.21 43.01 215.49 43.01C216.77 43.01 217.91 43.23 218.91 43.67C219.93 44.11 220.79 44.7 221.49 45.44C222.21 46.18 222.75 47.04 223.11 48.02C223.49 49 223.68 50.02 223.68 51.08C223.68 51.34 223.67 51.59 223.65 51.83C223.65 52.07 223.63 52.27 223.59 52.43H211.44C211.5 53.05 211.65 53.6 211.89 54.08C212.13 54.56 212.44 54.97 212.82 55.31C213.2 55.65 213.63 55.91 214.11 56.09C214.59 56.27 215.09 56.36 215.61 56.36C216.41 56.36 217.16 56.17 217.86 55.79C218.58 55.39 219.07 54.87 219.33 54.23L222.78 55.19C222.2 56.39 221.27 57.38 219.99 58.16C218.73 58.92 217.22 59.3 215.46 59.3ZM219.54 49.82C219.44 48.64 219 47.7 218.22 47C217.46 46.28 216.53 45.92 215.43 45.92C214.89 45.92 214.38 46.02 213.9 46.22C213.44 46.4 213.03 46.66 212.67 47C212.31 47.34 212.01 47.75 211.77 48.23C211.55 48.71 211.42 49.24 211.38 49.82H219.54ZM235.489 46.76C234.269 46.78 233.179 47.02 232.219 47.48C231.259 47.92 230.569 48.59 230.149 49.49V59H226.129V43.28H229.819V46.64C230.099 46.1 230.429 45.62 230.809 45.2C231.189 44.76 231.599 44.38 232.039 44.06C232.479 43.74 232.919 43.5 233.359 43.34C233.819 43.16 234.259 43.07 234.679 43.07C234.899 43.07 235.059 43.07 235.159 43.07C235.279 43.07 235.389 43.08 235.489 43.1V46.76Z" fill="url(#paint1_linear)"/>
<path d="M276.025 43.524V41.5921C275.357 41.4859 274.682 41.4277 274.005 41.418C267.457 41.404 261.659 45.6633 259.692 51.9325C257.726 58.2017 260.047 65.0263 265.422 68.78C263.451 66.6628 262.133 64.0181 261.626 61.1654C261.119 58.3127 261.446 55.3737 262.567 52.7034C263.688 50.033 265.556 47.7453 267.943 46.1165C270.331 44.4877 273.138 43.5874 276.024 43.5242L276.025 43.524Z" fill="#25F4EE"/>
<path d="M276.388 65.4073C280.05 65.4022 283.059 62.5072 283.22 58.8359V26.0744H289.183C289.061 25.3898 289.003 24.6954 289.009 24L280.853 24V56.73C280.717 60.4199 277.7 63.3428 274.021 63.3487C272.922 63.3393 271.84 63.068 270.866 62.557C271.497 63.4352 272.327 64.1512 273.287 64.6465C274.246 65.1418 275.309 65.4025 276.388 65.4073ZM300.322 37.19V35.3691C298.127 35.3699 295.981 34.72 294.153 33.5008C295.755 35.3704 297.921 36.6654 300.322 37.19Z" fill="#25F4EE"/>
<path d="M294.152 33.5007C292.351 31.4428 291.359 28.7972 291.36 26.0583H289.182C289.463 27.5726 290.049 29.0135 290.904 30.2931C291.758 31.5727 292.864 32.6641 294.152 33.5007ZM274.005 49.6044C272.478 49.6122 270.997 50.1321 269.798 51.0815C268.599 52.0309 267.751 53.3553 267.388 54.8442C267.026 56.333 267.169 57.9008 267.796 59.2983C268.424 60.6958 269.498 61.8428 270.849 62.557C270.111 61.5332 269.668 60.3244 269.571 59.0641C269.474 57.8038 269.726 56.5411 270.299 55.4154C270.872 54.2898 271.744 53.345 272.818 52.6856C273.893 52.0261 275.128 51.6776 276.387 51.6785C277.072 51.6875 277.752 51.7945 278.407 51.9962V43.6664C277.738 43.5658 277.063 43.5129 276.387 43.5081H276.024V49.8418C275.366 49.6646 274.686 49.5847 274.005 49.6044Z" fill="#FE2C55"/>
<path d="M300.321 37.1899V43.5239C296.258 43.5159 292.301 42.2251 289.009 39.8344V56.4765C288.992 64.7806 282.279 71.5035 274.005 71.5035C270.932 71.509 267.933 70.5574 265.422 68.7799C267.47 70.9905 270.134 72.5309 273.066 73.2005C275.999 73.8701 279.064 73.6379 281.863 72.5341C284.662 71.4302 287.065 69.506 288.759 67.0119C290.453 64.5179 291.359 61.5697 291.36 58.5513V41.9563C294.663 44.3314 298.625 45.6053 302.688 45.5982V37.4427C301.892 37.4403 301.099 37.3556 300.321 37.1899Z" fill="#FE2C55"/>
<path d="M289.01 56.4765V39.8344C292.311 42.2116 296.274 43.4857 300.338 43.4763V37.1426C297.937 36.6339 295.767 35.3556 294.153 33.5007C292.864 32.6641 291.759 31.5727 290.905 30.2931C290.05 29.0135 289.464 27.5726 289.183 26.0583H283.22V58.8363C283.162 60.2631 282.662 61.6363 281.791 62.765C280.919 63.8938 279.719 64.7221 278.357 65.1348C276.995 65.5475 275.539 65.524 274.191 65.0678C272.842 64.6116 271.669 63.7452 270.834 62.589C269.483 61.8749 268.408 60.7279 267.781 59.3303C267.154 57.9327 267.01 56.3648 267.373 54.8758C267.735 53.3868 268.584 52.0623 269.783 51.1129C270.982 50.1634 272.463 49.6436 273.99 49.6359C274.675 49.6421 275.355 49.7488 276.009 49.9527V43.6188C273.107 43.6682 270.282 44.564 267.879 46.1969C265.475 47.8298 263.597 50.1293 262.473 52.8151C261.349 55.5008 261.028 58.4567 261.549 61.3224C262.07 64.1881 263.411 66.8397 265.407 68.954C267.943 70.6729 270.946 71.5634 274.006 71.5035C282.28 71.5035 288.992 64.7807 289.01 56.4765Z" fill="black"/>
<defs>
<linearGradient id="paint0_linear" x1="208.988" y1="-0.136964" x2="251.571" y2="162.39" gradientUnits="userSpaceOnUse">
<stop stop-color="#141414"/>
<stop offset="1" stop-color="#222222"/>
</linearGradient>
<linearGradient id="paint1_linear" x1="157.5" y1="31" x2="157.5" y2="62" gradientUnits="userSpaceOnUse">
<stop stop-color="white"/>
<stop offset="1" stop-color="#959595"/>
</linearGradient>
</defs>
</svg>
