<svg width="428" height="453" viewBox="0 0 428 453" fill="none" xmlns="http://www.w3.org/2000/svg">
<path d="M103 257.662L136.171 257.662C151.083 257.662 163.171 245.574 163.171 230.662L163.171 101" stroke="#DE0C88" stroke-width="3"/>
<path d="M103 257.662L136.171 257.662C151.083 257.662 163.171 245.574 163.171 230.662L163.171 101" stroke="#FF50B7"/>
<g filter="url(#filter0_f)">
<path d="M103 257.662L136.171 257.662C151.083 257.662 163.171 245.574 163.171 230.662L163.171 101.105" stroke="#DE0C88" stroke-width="11"/>
</g>
<path d="M102.171 257.338L69 257.338C54.0883 257.338 42 269.426 42 284.338L42 414" stroke="#DE0C88" stroke-width="3"/>
<path d="M102.171 257.338L69 257.338C54.0883 257.338 42 269.426 42 284.338L42 414" stroke="#FF50B7"/>
<g filter="url(#filter1_f)">
<path d="M102.171 257.338L69 257.338C54.0883 257.338 42 269.426 42 284.338L42 413.895" stroke="#DE0C88" stroke-width="11"/>
</g>
<path d="M37 41L37 74.1714C37 89.0831 49.0883 101.171 64 101.171L379.5 101.171" stroke="#DE0C88" stroke-width="3"/>
<path d="M37 41L37 74.1714C37 89.0831 49.0883 101.171 64 101.171L379.5 101.171" stroke="#FF50B7"/>
<g filter="url(#filter2_f)">
<path d="M37 41L37 74.1714C37 89.0831 49.0883 101.171 64 101.171L379.271 101.171" stroke="#DE0C88" stroke-width="11"/>
</g>
<path d="M51.9286 38.0427C51.9286 46.3507 45.4526 53.0857 37.4642 53.0857C29.4758 53.0857 23 46.3507 23 38.0427C23 29.7348 29.4758 23 37.4642 23C45.4526 23 51.9286 29.7348 51.9286 38.0427Z" fill="#00E1E1"/>
<g filter="url(#filter3_f)">
<path d="M51.9286 38.0427C51.9286 46.3507 45.4526 53.0857 37.4642 53.0857C29.4758 53.0857 23 46.3507 23 38.0427C23 29.7348 29.4758 23 37.4642 23C45.4526 23 51.9286 29.7348 51.9286 38.0427Z" fill="#00E1E1"/>
</g>
<path d="M404.929 98.2141C404.929 106.522 398.453 113.257 390.464 113.257C382.476 113.257 376 106.522 376 98.2141C376 89.9062 382.476 83.1714 390.464 83.1714C398.453 83.1714 404.929 89.9062 404.929 98.2141Z" fill="#00E1E1"/>
<g filter="url(#filter4_f)">
<path d="M404.929 98.2141C404.929 106.522 398.453 113.257 390.464 113.257C382.476 113.257 376 106.522 376 98.2141C376 89.9062 382.476 83.1714 390.464 83.1714C398.453 83.1714 404.929 89.9062 404.929 98.2141Z" fill="#00E1E1"/>
</g>
<path d="M55.9286 414.043C55.9286 422.351 49.4526 429.086 41.4642 429.086C33.4758 429.086 27 422.351 27 414.043C27 405.735 33.4758 399 41.4642 399C49.4526 399 55.9286 405.735 55.9286 414.043Z" fill="#00E1E1"/>
<g filter="url(#filter5_f)">
<path d="M55.9286 414.043C55.9286 422.351 49.4526 429.086 41.4642 429.086C33.4758 429.086 27 422.351 27 414.043C27 405.735 33.4758 399 41.4642 399C49.4526 399 55.9286 405.735 55.9286 414.043Z" fill="#00E1E1"/>
</g>
<path d="M117.929 258.043C117.929 266.351 111.453 273.086 103.464 273.086C95.4758 273.086 89 266.351 89 258.043C89 249.735 95.4758 243 103.464 243C111.453 243 117.929 249.735 117.929 258.043Z" fill="#00E1E1"/>
<g filter="url(#filter6_f)">
<path d="M117.929 258.043C117.929 266.351 111.453 273.086 103.464 273.086C95.4758 273.086 89 266.351 89 258.043C89 249.735 95.4758 243 103.464 243C111.453 243 117.929 249.735 117.929 258.043Z" fill="#00E1E1"/>
</g>
<path d="M177.929 101.043C177.929 109.351 171.453 116.086 163.464 116.086C155.476 116.086 149 109.351 149 101.043C149 92.7348 155.476 86 163.464 86C171.453 86 177.929 92.7348 177.929 101.043Z" fill="#00E1E1"/>
<g filter="url(#filter7_f)">
<path d="M177.929 101.043C177.929 109.351 171.453 116.086 163.464 116.086C155.476 116.086 149 109.351 149 101.043C149 92.7348 155.476 86 163.464 86C171.453 86 177.929 92.7348 177.929 101.043Z" fill="#00E1E1"/>
</g>
<path d="M403.929 248.043C403.929 256.351 397.453 263.086 389.464 263.086C381.476 263.086 375 256.351 375 248.043C375 239.735 381.476 233 389.464 233C397.453 233 403.929 239.735 403.929 248.043Z" fill="#00E1E1"/>
<g filter="url(#filter8_f)">
<path d="M403.929 248.043C403.929 256.351 397.453 263.086 389.464 263.086C381.476 263.086 375 256.351 375 248.043C375 239.735 381.476 233 389.464 233C397.453 233 403.929 239.735 403.929 248.043Z" fill="#00E1E1"/>
</g>
<defs>
<filter id="filter0_f" x="86.9995" y="85.1045" width="97.6714" height="194.058" filterUnits="userSpaceOnUse" color-interpolation-filters="sRGB">
<feFlood flood-opacity="0" result="BackgroundImageFix"/>
<feBlend mode="normal" in="SourceGraphic" in2="BackgroundImageFix" result="shape"/>
<feGaussianBlur stdDeviation="8" result="effect1_foregroundBlur"/>
</filter>
<filter id="filter1_f" x="20.5" y="235.838" width="97.6714" height="194.058" filterUnits="userSpaceOnUse" color-interpolation-filters="sRGB">
<feFlood flood-opacity="0" result="BackgroundImageFix"/>
<feBlend mode="normal" in="SourceGraphic" in2="BackgroundImageFix" result="shape"/>
<feGaussianBlur stdDeviation="8" result="effect1_foregroundBlur"/>
</filter>
<filter id="filter2_f" x="15.5" y="25" width="379.771" height="97.6714" filterUnits="userSpaceOnUse" color-interpolation-filters="sRGB">
<feFlood flood-opacity="0" result="BackgroundImageFix"/>
<feBlend mode="normal" in="SourceGraphic" in2="BackgroundImageFix" result="shape"/>
<feGaussianBlur stdDeviation="8" result="effect1_foregroundBlur"/>
</filter>
<filter id="filter3_f" x="0" y="0" width="74.9286" height="76.0857" filterUnits="userSpaceOnUse" color-interpolation-filters="sRGB">
<feFlood flood-opacity="0" result="BackgroundImageFix"/>
<feBlend mode="normal" in="SourceGraphic" in2="BackgroundImageFix" result="shape"/>
<feGaussianBlur stdDeviation="11.5" result="effect1_foregroundBlur"/>
</filter>
<filter id="filter4_f" x="353" y="60.1714" width="74.9286" height="76.0857" filterUnits="userSpaceOnUse" color-interpolation-filters="sRGB">
<feFlood flood-opacity="0" result="BackgroundImageFix"/>
<feBlend mode="normal" in="SourceGraphic" in2="BackgroundImageFix" result="shape"/>
<feGaussianBlur stdDeviation="11.5" result="effect1_foregroundBlur"/>
</filter>
<filter id="filter5_f" x="4" y="376" width="74.9286" height="76.0857" filterUnits="userSpaceOnUse" color-interpolation-filters="sRGB">
<feFlood flood-opacity="0" result="BackgroundImageFix"/>
<feBlend mode="normal" in="SourceGraphic" in2="BackgroundImageFix" result="shape"/>
<feGaussianBlur stdDeviation="11.5" result="effect1_foregroundBlur"/>
</filter>
<filter id="filter6_f" x="66" y="220" width="74.9286" height="76.0857" filterUnits="userSpaceOnUse" color-interpolation-filters="sRGB">
<feFlood flood-opacity="0" result="BackgroundImageFix"/>
<feBlend mode="normal" in="SourceGraphic" in2="BackgroundImageFix" result="shape"/>
<feGaussianBlur stdDeviation="11.5" result="effect1_foregroundBlur"/>
</filter>
<filter id="filter7_f" x="126" y="63" width="74.9286" height="76.0857" filterUnits="userSpaceOnUse" color-interpolation-filters="sRGB">
<feFlood flood-opacity="0" result="BackgroundImageFix"/>
<feBlend mode="normal" in="SourceGraphic" in2="BackgroundImageFix" result="shape"/>
<feGaussianBlur stdDeviation="11.5" result="effect1_foregroundBlur"/>
</filter>
<filter id="filter8_f" x="352" y="210" width="74.9286" height="76.0857" filterUnits="userSpaceOnUse" color-interpolation-filters="sRGB">
<feFlood flood-opacity="0" result="BackgroundImageFix"/>
<feBlend mode="normal" in="SourceGraphic" in2="BackgroundImageFix" result="shape"/>
<feGaussianBlur stdDeviation="11.5" result="effect1_foregroundBlur"/>
</filter>
</defs>
</svg>
