<svg width="175" height="52" viewBox="0 0 175 52" fill="none" xmlns="http://www.w3.org/2000/svg">
<path d="M35.2686 14.628L21.6737 14.6281L21.6737 50.8483L14.0658 50.8483L14.0658 28.4216L1 28.4216L1 20.7475L14.0658 20.7475L14.0658 14.6281L1 14.6281L1 7.08636L35.2686 7.08636L35.2686 14.628Z" stroke="#FF6DC3" stroke-miterlimit="10" stroke-linecap="round" stroke-linejoin="round"/>
<path d="M57.6288 50.8483L40.5938 50.8483L40.5938 43.4389L45.0923 43.4389L45.0923 28.4876L40.5938 28.4876L40.5938 20.7475L45.0923 20.7475L45.0923 14.6281L40.5938 14.6281L40.5938 7.08636L57.6288 7.08636L57.6288 14.6281L52.7664 14.6281L52.7664 20.7475L57.6288 20.7475L57.6288 28.4216L52.8326 28.4216L52.8326 43.4389L57.6288 43.4389L57.6288 50.8483Z" stroke="#FF6DC3" stroke-miterlimit="10" stroke-linecap="round" stroke-linejoin="round"/>
<path d="M97.9498 7.08645L97.9498 16.0175C97.9498 23.1954 95.6344 28.8848 91.0365 33.0526C86.7033 36.8896 81.1132 38.775 74.233 38.775L74.6299 38.775L74.233 38.775L71.2891 38.775L71.2891 50.8815L63.5488 50.8815L63.5488 7.1194L76.78 7.1194L76.78 0.999999L84.3879 0.999999L84.3879 7.1194L97.9498 7.1194L97.9498 7.08645ZM89.8788 14.6281L71.2229 14.6281L71.2229 31.1008L74.663 31.1008C79.8562 31.1008 83.7594 29.6124 86.4056 26.6684C88.688 24.0884 89.8457 20.6814 89.8457 16.4474L89.8788 14.6281Z" stroke="#FF6DC3" stroke-miterlimit="10" stroke-linecap="round" stroke-linejoin="round"/>
<path d="M137.312 14.628L117.267 14.628C114.885 14.628 113.198 15.0911 112.173 15.9842C111.147 16.8773 110.651 18.465 110.651 20.7474L137.246 20.7474L137.246 32.7877C137.246 39.0063 135.03 43.7034 130.564 46.8789C126.661 49.6574 121.402 51.0467 114.786 51.0467C113.661 51.0467 111.743 51.0137 108.997 50.9144C106.517 50.8814 104.532 50.8482 103.143 50.8482L103.143 43.4388L107.74 43.4388L112.14 43.4388C123.816 43.4388 129.704 39.3701 129.737 31.2661L129.671 28.3222L103.143 28.3222L103.143 19.0935C103.143 15.488 104.333 12.511 106.715 10.2287C108.964 8.11168 111.743 7.05316 115.018 7.05316L137.345 7.05316L137.345 14.628L137.312 14.628Z" stroke="#FF6DC3" stroke-miterlimit="10" stroke-linecap="round" stroke-linejoin="round"/>
<path d="M162.918 26.3705L156.997 31.1668L141.648 10.4601L147.9 5.89539L162.918 26.3705ZM173.899 26.6682C173.899 34.2761 173.172 39.3371 171.716 41.818C170.062 44.6957 168.111 46.7796 165.861 48.1028C162.818 49.922 158.816 50.8482 153.887 50.8482L142.74 50.8482L142.74 43.4388L153.986 43.4388C156.467 43.4388 158.518 43.0086 160.106 42.1817C161.991 41.2224 163.447 39.8333 164.538 38.014C165.233 36.8232 165.663 35.5662 165.795 34.2761C166.093 31.3983 166.225 29.8768 166.225 29.6783L166.225 7.11917L173.899 7.11917L173.899 26.6682Z" stroke="#FF6DC3" stroke-miterlimit="10" stroke-linecap="round" stroke-linejoin="round"/>
</svg>
