<svg width="45" height="46" viewBox="0 0 45 46" fill="none" xmlns="http://www.w3.org/2000/svg">
<path fill-rule="evenodd" clip-rule="evenodd" d="M8.09148 7.1875C7.3817 3.45 10.2208 0 13.9117 0C17.1767 0 19.8738 2.73125 19.8738 6.0375V13.5125C20.7256 13.5125 21.5773 13.3688 22.429 13.3688C23.2808 13.3688 23.9905 13.3687 24.8423 13.5125V6.0375C24.8423 2.73125 27.5394 0 30.8044 0C34.4953 0 37.3344 3.45 36.7666 7.1875L35.205 15.9563C40.7413 18.4 45 22.7125 45 28.0312V31.3375C45 35.7937 42.1609 39.5312 38.0442 41.975C33.9274 44.5625 28.5331 46 22.429 46C16.3249 46 10.9306 44.5625 6.81388 41.975C2.83912 39.5312 0 35.7937 0 31.3375V28.0312C0 22.7125 4.11672 18.4 9.653 15.9563L8.09148 7.1875ZM33.0757 17.1062L34.9211 6.75625C35.347 4.16875 33.5016 1.725 30.8044 1.725C28.5331 1.725 26.6877 3.59375 26.6877 5.89375V15.3812C26.1199 15.2375 25.4101 15.2375 24.8423 15.2375C23.9905 15.2375 23.2808 15.0938 22.429 15.0938C21.5773 15.0938 20.7256 15.0938 19.8738 15.2375C19.306 15.2375 18.5962 15.3812 18.0284 15.3812V6.0375C18.0284 3.7375 16.183 1.86875 13.9117 1.86875C11.3565 1.86875 9.36908 4.3125 9.93691 6.9L11.7823 17.25C5.82019 19.55 1.84543 23.575 1.84543 28.175V31.4812C1.84543 38.525 11.0726 44.275 22.429 44.275C33.7855 44.275 43.0126 38.525 43.0126 31.4812V28.175C43.1546 23.4313 39.1798 19.4062 33.0757 17.1062Z" fill="#633001"/>
<path d="M43.1547 31.3375C43.1547 38.3812 33.9276 44.1313 22.5711 44.1313C11.2147 44.1313 1.98755 38.3812 1.98755 31.3375V28.0312H43.2967V31.3375H43.1547Z" fill="#FEDC90"/>
<path fill-rule="evenodd" clip-rule="evenodd" d="M9.93708 6.8999C9.36925 4.3124 11.3566 1.86865 13.9118 1.86865C16.1831 1.86865 18.0286 3.7374 18.0286 6.0374V15.5249C19.4481 15.3812 20.8677 15.2374 22.4292 15.2374C23.8487 15.2374 25.2683 15.3812 26.6879 15.5249V6.0374C26.6879 3.7374 28.5333 1.86865 30.8046 1.86865C33.3598 1.86865 35.3472 4.3124 34.9213 6.8999L33.0759 17.2499C39.038 19.5499 43.1547 23.5749 43.1547 28.1749C43.1547 35.2187 33.9276 40.9687 22.5711 40.9687C11.2147 40.9687 1.98755 35.2187 1.98755 28.1749C1.98755 23.5749 5.96231 19.5499 11.9245 17.2499L9.93708 6.8999Z" fill="#D1884F"/>
<path d="M16.7506 27.1687C16.7506 29.0375 15.7569 30.6187 14.4793 30.6187C13.2017 30.6187 12.208 29.0375 12.208 27.1687C12.208 25.3 13.2017 23.7188 14.4793 23.7188C15.7569 23.7188 16.7506 25.3 16.7506 27.1687Z" fill="#633001"/>
<path d="M32.5075 27.1687C32.5075 29.0375 31.5139 30.6187 30.2363 30.6187C28.9587 30.6187 27.965 29.0375 27.965 27.1687C27.965 25.3 28.9587 23.7188 30.2363 23.7188C31.5139 23.7188 32.5075 25.3 32.5075 27.1687Z" fill="#633001"/>
</svg>
