<svg width="129" height="143" viewBox="0 0 129 143" fill="none" xmlns="http://www.w3.org/2000/svg">
<g filter="url(#filter0_f)">
<path d="M58.3987 37.5541C39.2448 50.7399 26.5139 76.643 29.9597 95.4071C33.4054 114.171 51.7262 118.698 70.8796 105.509C90.0335 92.3235 102.764 66.4204 99.3186 47.6563C95.8728 28.8922 77.5525 24.3683 58.3987 37.5541ZM47.9668 105.449C44.8478 104.678 42.2211 103.093 40.158 100.737C38.0237 98.2983 36.5874 95.1339 35.8886 91.3277C35.1899 87.5216 35.2714 83.311 36.1329 78.8115C36.965 74.4603 38.4863 70.0182 40.6528 65.6113C42.8193 61.2045 45.5232 57.0531 48.6847 53.279C51.9562 49.375 55.5828 46.0399 59.4686 43.3653C63.3545 40.6907 67.2554 38.8416 71.0654 37.8728C74.7477 36.9353 78.1969 36.8485 81.3159 37.6192C84.4349 38.3898 87.0615 39.9753 89.1246 42.3309C91.2585 44.7673 92.6953 47.9343 93.394 51.7405C94.0928 55.5466 94.0112 59.7572 93.1497 64.2567C92.3177 68.6079 90.7959 73.0473 88.6299 77.4568C86.4633 81.8637 83.7628 86.0144 80.5979 89.7892C77.3264 93.6932 73.6999 97.0283 69.814 99.7029C65.9316 102.377 62.0302 104.223 58.2206 105.195C54.5349 106.133 51.0853 106.217 47.9668 105.449Z" fill="#DE0C88"/>
<path d="M39.0794 79.3756L39.0795 79.3749C39.856 75.3143 41.2842 71.1268 43.345 66.9349C45.405 62.7448 47.9769 58.796 50.9841 55.2058L39.0794 79.3756ZM39.0794 79.3756C38.2753 83.5752 38.2187 87.4057 38.8393 90.786C39.4593 94.1631 40.7002 96.8008 42.4148 98.7607M39.0794 79.3756L42.4148 98.7607M71.8047 40.7803L71.8057 40.7801C75.0979 39.9418 78.0385 39.8996 80.5963 40.5316C83.1351 41.1589 85.22 42.426 86.8678 44.3074L71.8047 40.7803ZM71.8047 40.7803C68.4004 41.6459 64.8209 43.3233 61.1695 45.8365C57.5244 48.3454 54.096 51.4923 50.9845 55.2054L71.8047 40.7803ZM90.2032 63.6926L90.2031 63.6933C89.4268 67.753 87.9984 71.9378 85.9376 76.1332L90.2032 63.6926ZM90.2032 63.6926C91.0073 59.493 91.0639 55.6625 90.4433 52.2821C89.8231 48.9038 88.5813 46.2639 86.8679 44.3075L90.2032 63.6926ZM78.299 87.8617L78.2985 87.8623C75.1869 91.5756 71.7584 94.7227 68.1131 97.2317L68.1124 97.2322C64.4662 99.7434 60.8857 101.419 57.4793 102.288C54.1866 103.126 51.2454 103.166 48.6864 102.537L78.299 87.8617ZM78.299 87.8617C81.3083 84.2725 83.8768 80.3249 85.9372 76.1341L78.299 87.8617ZM42.4148 98.7607C44.0622 100.642 46.1463 101.909 48.6841 102.536L42.4148 98.7607ZM27.009 95.949C25.1339 85.7376 27.6844 73.9039 33.012 63.0654C38.3566 52.1922 46.6475 42.0016 56.6975 35.0831C66.7132 28.1882 76.9598 25.6108 85.4683 27.7115C94.1804 29.8625 100.365 36.7455 102.269 47.1145C104.144 57.3259 101.594 69.1596 96.2663 79.9981C90.9217 90.8711 82.6309 101.062 72.581 107.98C62.5655 114.877 52.3188 117.454 43.8101 115.353C35.0979 113.202 28.9131 106.318 27.009 95.949Z" stroke="#DE0C88" stroke-width="6"/>
</g>
<path d="M60.245 41.6766C76.8593 30.2381 92.7478 34.1622 95.7394 50.4409C98.7276 66.7202 87.6847 89.1857 71.0705 100.624C54.4563 112.063 38.5678 108.139 35.5762 91.86C32.5845 75.5813 43.6303 53.1125 60.245 41.6766Z" fill="#DE0C88"/>
<path d="M48.7342 105.316C50.7817 105.38 52.9401 105.124 55.1858 104.552C56.5685 104.199 57.9656 103.73 59.3707 103.15C61.8305 102.13 64.3086 100.762 66.7792 99.0602C70.665 96.3856 74.2916 93.0505 77.5631 89.1465C80.7245 85.3723 83.429 81.2236 85.595 76.8141C85.7775 76.4429 85.9536 76.0755 86.1254 75.7034C88.0099 71.661 89.3502 67.5981 90.1115 63.6146C90.1739 63.298 90.229 62.9799 90.2811 62.6651C90.9782 58.5198 91.0056 54.6326 90.3553 51.0957C89.6565 47.2896 88.2202 44.1252 86.0859 41.6861C84.0489 39.3589 81.463 37.7853 78.398 37.0022L84.6412 38.592C87.7057 39.3724 90.2921 40.9487 92.3291 43.2759C94.4629 45.7123 95.8997 48.8794 96.5985 52.6855C97.2488 56.2224 97.2214 60.1096 96.5243 64.2549C96.4722 64.5697 96.4132 64.8857 96.3546 65.2044C95.5934 69.1879 94.2531 73.2508 92.3686 77.2932C92.1963 77.6627 92.0172 78.0333 91.8382 78.4039C89.6717 82.8108 86.9711 86.9615 83.8063 90.7363C80.5348 94.6403 76.9082 97.9754 73.0223 100.65C70.5518 102.352 68.0703 103.72 65.6139 104.74L64.4953 104.454L65.6139 104.74C64.2092 105.323 62.8156 105.791 61.429 106.142C59.1833 106.714 57.0283 106.969 54.9774 106.906C53.6645 106.867 52.398 106.696 51.1785 106.396L44.9353 104.806C46.1515 105.107 47.4213 105.277 48.7342 105.316Z" fill="#BF0774"/>
<path d="M51.1793 106.398L44.9361 104.808C44.8958 104.799 44.8551 104.787 44.8148 104.778L51.058 106.368C51.0983 106.377 51.139 106.389 51.1793 106.398Z" fill="#827116"/>
<path d="M26.921 94.7706C27.342 97.0721 27.9908 99.1566 28.8319 101.022C31.405 106.72 35.8236 110.363 41.3456 111.769L47.5922 113.358C42.0701 111.952 37.6516 108.309 35.079 102.614C34.234 100.746 33.5886 98.6613 33.1676 96.3598C32.9614 95.233 32.8135 94.0793 32.722 92.9071C32.5252 90.4084 32.5851 87.814 32.8767 85.1615C32.9759 84.2494 33.1048 83.3265 33.2613 82.4014C33.5877 80.4496 34.0365 78.4759 34.5999 76.4953C35.2995 74.0225 36.1768 71.5424 37.2118 69.0808C37.559 68.2589 37.9206 67.44 38.3003 66.6233C39.1874 64.7248 40.1658 62.8456 41.2349 61.0024C42.5896 58.6594 44.0841 56.371 45.7027 54.1675C46.4947 53.0868 47.3158 52.0311 48.1684 50.9945C49.395 49.5 50.6802 48.0581 52.0211 46.6723C53.0277 45.6328 54.0618 44.6296 55.1269 43.662C56.4363 42.4717 57.7878 41.3399 59.179 40.2724C59.9777 39.6583 60.7914 39.0689 61.6158 38.4996C61.7875 38.3807 61.9596 38.2644 62.1318 38.1482C62.1853 38.1138 62.2383 38.0767 62.2918 38.0423C62.4143 37.9625 62.5364 37.88 62.6589 37.8002C62.7187 37.7619 62.7752 37.7243 62.835 37.686C62.9575 37.6062 63.0805 37.529 63.1997 37.4498C63.2532 37.4154 63.3037 37.3843 63.3572 37.3499C63.5308 37.2416 63.7005 37.1313 63.8746 37.0257C63.8775 37.0224 63.881 37.0218 63.8839 37.0185C63.9028 37.0069 63.9184 36.9958 63.9378 36.9868C64.0861 36.8941 64.2383 36.8035 64.3866 36.7107C64.4406 36.679 64.4946 36.6473 64.5486 36.6156C64.6691 36.5444 64.7897 36.4731 64.9103 36.4019C64.9706 36.3663 65.028 36.334 65.0883 36.2984C65.2089 36.2271 65.3299 36.1586 65.4505 36.0874C65.5016 36.0589 65.5521 36.0278 65.6032 35.9994C65.7753 35.9024 65.944 35.806 66.1166 35.7117C66.1229 35.7078 66.1292 35.7039 66.1356 35.7C66.3018 35.6096 66.4652 35.5224 66.6281 35.4326C66.6825 35.4035 66.7336 35.3751 66.7885 35.3487C66.9071 35.2861 67.0257 35.2234 67.1444 35.1608C67.2022 35.1312 67.2635 35.1009 67.3213 35.0712C67.4399 35.0086 67.5624 34.9481 67.6815 34.8881C67.7331 34.8623 67.7846 34.8366 67.8361 34.8108C68.0068 34.725 68.1745 34.6426 68.3422 34.5602C68.3519 34.5557 68.365 34.5505 68.3747 34.546C68.5332 34.4708 68.6917 34.3955 68.8501 34.3202C68.9021 34.2971 68.9571 34.2707 69.0091 34.2476C69.1257 34.1936 69.2424 34.1396 69.3595 34.0882C69.4179 34.0612 69.4767 34.0369 69.535 34.0099C69.6293 33.9682 69.727 33.9258 69.8247 33.8835C69.8475 33.8739 69.8704 33.8643 69.8932 33.8547C69.9452 33.8315 69.9943 33.8117 70.043 33.7892C70.2126 33.7174 70.3788 33.6462 70.5455 33.5777C70.6894 33.5188 70.8332 33.4599 70.9771 33.401C70.9902 33.3959 71.0033 33.3908 71.0199 33.3851C71.1477 33.3346 71.2784 33.2808 71.4067 33.2329C71.4558 33.2131 71.5054 33.1959 71.5511 33.1767C71.6463 33.1403 71.7382 33.1045 71.8334 33.0681C71.8893 33.0471 71.9486 33.0254 72.0045 33.0044C72.09 32.9725 72.1756 32.9406 72.2616 32.9113C72.3209 32.8897 72.3835 32.8674 72.4462 32.8451C72.5289 32.8165 72.6081 32.7885 72.6907 32.7598C72.7534 32.7376 72.8161 32.7153 72.8826 32.695C72.9584 32.6677 73.0381 32.6423 73.1173 32.6143C73.18 32.592 73.2466 32.5718 73.3093 32.5495C73.3856 32.5248 73.4619 32.5 73.5416 32.4747C73.6047 32.4551 73.6708 32.4322 73.7374 32.412C73.8137 32.3872 73.89 32.3625 73.9667 32.3404C74.0299 32.3208 74.0965 32.3006 74.163 32.2804C74.2364 32.2589 74.3127 32.2342 74.3861 32.2127C74.4527 32.1925 74.5163 32.1755 74.5829 32.1553C74.6562 32.1339 74.733 32.1118 74.8064 32.0903C74.8734 32.0728 74.9366 32.0532 75.0036 32.0356C75.0775 32.0168 75.1509 31.9954 75.2247 31.9766C75.2918 31.959 75.3554 31.942 75.4225 31.9245C75.4963 31.9057 75.5668 31.8875 75.6406 31.8687C75.7077 31.8512 75.7718 31.8369 75.8388 31.8193C75.9127 31.8005 75.9831 31.7824 76.0575 31.7662C76.125 31.7513 76.1886 31.7344 76.2562 31.7195C76.3271 31.704 76.4009 31.6852 76.4719 31.6697C76.536 31.6554 76.6035 31.6405 76.6677 31.6262C76.7386 31.6107 76.8095 31.5952 76.8839 31.579C76.948 31.5648 77.0121 31.5505 77.0801 31.5382C77.151 31.5227 77.2224 31.5099 77.2934 31.4944C77.358 31.4827 77.4221 31.4685 77.4901 31.4562C77.5615 31.4434 77.6325 31.4279 77.7039 31.415L77.7719 31.4028L71.5321 29.8124L71.4607 29.8252C71.3893 29.8381 71.3179 29.8509 71.2435 29.867C71.1789 29.8786 71.1148 29.8929 71.0502 29.9046C70.9793 29.9201 70.9078 29.9329 70.8335 29.949C70.7694 29.9633 70.7048 29.9749 70.6407 29.9892C70.5697 30.0047 70.4954 30.0209 70.4245 30.0364C70.3603 30.0507 70.2962 30.0649 70.2287 30.0798C70.1544 30.096 70.0839 30.1142 70.0096 30.1303C69.9454 30.1446 69.8818 30.1615 69.8143 30.1764C69.7404 30.1952 69.6695 30.2107 69.5957 30.2295C69.532 30.2465 69.4645 30.2613 69.4008 30.2783C69.327 30.2971 69.2531 30.3159 69.1793 30.3347L68.9849 30.3861C68.9111 30.4049 68.8377 30.4264 68.7605 30.4458C68.6968 30.4627 68.6302 30.483 68.5666 30.4999C68.4932 30.5214 68.4165 30.5434 68.3397 30.5655C68.276 30.5824 68.2095 30.6027 68.1463 30.6223C68.0695 30.6444 67.9966 30.6685 67.9199 30.6905C67.8567 30.7102 67.7935 30.7298 67.727 30.75C67.6502 30.7721 67.5739 30.7968 67.4976 30.8215C67.4344 30.8412 67.3679 30.8614 67.3047 30.881C67.2284 30.9057 67.1487 30.9311 67.0695 30.9591C67.0063 30.9787 66.9436 31.001 66.8805 31.0206C66.8008 31.0459 66.7216 31.0739 66.6424 31.102C66.5792 31.1216 66.5199 31.1432 66.4572 31.1655C66.3746 31.1941 66.2925 31.2254 66.2098 31.254C66.1506 31.2757 66.0913 31.2974 66.032 31.3191C65.9465 31.351 65.8575 31.3835 65.7686 31.416C65.7127 31.437 65.6597 31.4548 65.6038 31.4759C65.5052 31.5129 65.4065 31.5499 65.3113 31.5863C65.2651 31.6029 65.2228 31.6215 65.1767 31.638C65.0357 31.6936 64.8948 31.7493 64.7572 31.8043C64.7538 31.8049 64.7509 31.8082 64.7475 31.8088C64.6066 31.8644 64.4627 31.9233 64.3222 31.9816C64.3222 31.9816 64.3188 31.9822 64.3159 31.9855C64.1492 32.054 63.983 32.1252 63.8167 32.1963C63.7681 32.2188 63.7157 32.2393 63.6637 32.2624C63.6442 32.2714 63.6214 32.281 63.6019 32.29C63.5042 32.3323 63.4065 32.3747 63.3093 32.4197C63.251 32.4467 63.1922 32.471 63.1304 32.4986C63.0133 32.55 62.8966 32.604 62.78 32.658C62.7246 32.6817 62.673 32.7075 62.6181 32.7339C62.4592 32.8065 62.3041 32.8812 62.1456 32.9564C62.1325 32.9615 62.1228 32.9661 62.1101 32.9738C61.9424 33.0563 61.7747 33.1387 61.6036 33.2218C61.5521 33.2476 61.5005 33.2733 61.449 33.2991C61.3299 33.3591 61.2108 33.419 61.0922 33.4816C61.0343 33.5113 60.9731 33.5416 60.9123 33.5745C60.7932 33.6345 60.6746 33.6971 60.5594 33.7591C60.5049 33.7881 60.45 33.8145 60.3956 33.8436C60.2322 33.9307 60.0722 34.0173 59.9094 34.1071C59.903 34.111 59.8933 34.1155 59.887 34.1194C59.7178 34.2131 59.5457 34.3101 59.377 34.4065C59.3259 34.4349 59.272 34.4667 59.2209 34.4951C59.0999 34.5637 58.9788 34.6322 58.8582 34.7034C58.7979 34.739 58.7405 34.7714 58.6803 34.807C58.5597 34.8782 58.4391 34.9494 58.3219 35.02C58.2679 35.0517 58.214 35.0835 58.1605 35.1179C58.0117 35.2079 57.8629 35.298 57.7146 35.3907C57.6956 35.4023 57.6796 35.4107 57.6606 35.4224C57.6577 35.4257 57.6509 35.4269 57.648 35.4302C57.4773 35.5352 57.3042 35.6461 57.134 35.7538C57.0805 35.7881 57.0299 35.8193 56.9764 35.8536C56.8568 35.9302 56.7338 36.0073 56.6112 36.0872C56.5514 36.1254 56.4916 36.1637 56.4323 36.2047C56.3131 36.2839 56.1906 36.3637 56.0685 36.4462C56.015 36.4806 55.962 36.5176 55.9085 36.552C55.7363 36.6683 55.5642 36.7845 55.3925 36.9035C54.5677 37.4701 53.7579 38.0615 52.9553 38.6736C51.5641 39.7411 50.2126 40.8729 48.9032 42.0632C47.8381 43.0307 46.8039 44.034 45.7974 45.0735C44.456 46.4566 43.1713 47.9011 41.9442 49.393C41.0945 50.4264 40.271 51.488 39.4785 52.5661C37.8599 54.7695 36.3654 57.0579 35.0106 59.401C33.942 61.2468 32.9637 63.126 32.0766 65.0245C31.6964 65.8385 31.3313 66.6581 30.9876 67.4793C29.9525 69.941 29.0753 72.421 28.3757 74.8938C27.8123 76.8744 27.3635 78.8482 27.0375 80.8025C26.881 81.7277 26.7551 82.6473 26.6525 83.56C26.3609 86.2126 26.301 88.8069 26.4977 91.3056C26.5669 92.4901 26.7148 93.6438 26.921 94.7706Z" fill="#E90F8F"/>
<path d="M71.5087 29.819L77.7485 31.4095C77.7893 31.4021 77.8335 31.3942 77.8743 31.3868C77.9457 31.374 78.0171 31.3611 78.0885 31.3483C78.1531 31.3367 78.2177 31.325 78.2828 31.3161C78.3547 31.3059 78.4227 31.2937 78.4946 31.2835C78.5597 31.2745 78.6243 31.2629 78.6894 31.254C78.7579 31.2444 78.8293 31.2315 78.9012 31.2214C78.9663 31.2124 79.0279 31.2041 79.093 31.1951C79.1615 31.1855 79.2334 31.1754 79.3024 31.1685C79.3675 31.1595 79.4291 31.1511 79.4947 31.1449C79.5637 31.138 79.6356 31.1278 79.7045 31.1209C79.7662 31.1125 79.8284 31.1068 79.894 31.1006C79.9629 31.0936 80.0319 31.0867 80.1043 31.0792C80.1664 31.0735 80.2286 31.0679 80.2907 31.0622C80.3597 31.0553 80.4292 31.051 80.4981 31.0441C80.5603 31.0385 80.6225 31.0328 80.6851 31.0298C80.7545 31.0255 80.8235 31.0186 80.893 31.0144C80.9556 31.0114 81.0144 31.0063 81.077 31.0033C81.1465 30.999 81.2125 30.9954 81.2853 30.9906C81.3446 30.9882 81.4072 30.9851 81.4699 30.9821C81.5393 30.9779 81.6059 30.9769 81.6753 30.9727C81.7345 30.9703 81.7972 30.9673 81.8564 30.9649C81.9264 30.9633 81.9929 30.9623 82.0628 30.9608C82.1221 30.9584 82.1818 30.9586 82.241 30.9562C82.311 30.9546 82.378 30.9563 82.4479 30.9548C82.5076 30.955 82.5635 30.9532 82.6232 30.9535C82.6936 30.9546 82.7601 30.9536 82.8339 30.9541C82.8902 30.955 82.9466 30.9559 83.0063 30.9561C83.0767 30.9572 83.1471 30.9583 83.2175 30.9594C83.2738 30.9603 83.3301 30.9612 83.3865 30.962C83.4112 30.9631 83.436 30.9641 83.4608 30.9652C83.6268 30.9711 83.7929 30.977 83.9594 30.9855C83.9914 30.988 84.0235 30.9905 84.0584 30.9897C84.2356 30.9991 84.4099 31.0118 84.5847 31.0271C84.6201 31.029 84.6561 31.0335 84.6954 31.0375C84.8663 31.0507 85.0376 31.0667 85.2061 31.0859C85.2134 31.0874 85.2241 31.0882 85.2347 31.089C85.41 31.107 85.5862 31.1304 85.759 31.1543C85.7949 31.1588 85.8347 31.1654 85.8707 31.17C86.0435 31.1939 86.2129 31.2185 86.3798 31.249C86.4051 31.2527 86.4308 31.2591 86.456 31.2628C86.6118 31.2898 86.7676 31.3168 86.9205 31.3471C86.9496 31.3528 86.9788 31.3586 87.0074 31.3617C87.1749 31.3948 87.3394 31.4313 87.5039 31.4677C87.5403 31.4749 87.5733 31.4828 87.6097 31.49C87.7781 31.5285 87.947 31.5696 88.1125 31.6114L81.8693 30.0216C81.7038 29.9798 81.5349 29.9386 81.3665 29.9001C81.3301 29.8929 81.2971 29.8851 81.2607 29.8779C81.0962 29.8415 80.9317 29.805 80.7642 29.7719C80.7351 29.7661 80.706 29.7603 80.6773 29.7572C80.5245 29.727 80.3686 29.7 80.2128 29.673C80.1876 29.6692 80.1624 29.6655 80.1366 29.6592C79.9702 29.6313 79.7969 29.6047 79.6275 29.5802C79.5915 29.5756 79.5517 29.569 79.5158 29.5645C79.343 29.5405 79.1673 29.5199 78.9916 29.4992C78.9843 29.4978 78.9736 29.4969 78.9629 29.4961C78.7945 29.4769 78.6231 29.4609 78.4522 29.4477C78.4163 29.4431 78.3808 29.4412 78.3415 29.4373C78.1672 29.4246 77.9929 29.412 77.8152 29.3999C77.7832 29.3974 77.7482 29.3982 77.7162 29.3957C77.5531 29.3865 77.387 29.3806 77.221 29.3747C77.2035 29.3751 77.1889 29.3722 77.1715 29.3726C77.1608 29.3718 77.154 29.373 77.1433 29.3722C77.087 29.3713 77.034 29.3698 76.9777 29.369C76.9073 29.3679 76.8369 29.3668 76.7665 29.3657C76.7102 29.3648 76.6539 29.364 76.5941 29.3637C76.5237 29.3626 76.4538 29.3642 76.3834 29.3631C76.3271 29.3622 76.2678 29.3646 76.2081 29.3644C76.1382 29.3659 76.0678 29.3648 75.9978 29.3664C75.9386 29.3688 75.8789 29.3685 75.8196 29.3709C75.7497 29.3725 75.6798 29.3741 75.6099 29.3757C75.5506 29.3781 75.4914 29.3805 75.4287 29.3835C75.3588 29.3851 75.2928 29.3887 75.2199 29.3935C75.1607 29.3959 75.098 29.399 75.0392 29.404C74.9698 29.4083 74.9004 29.4125 74.8309 29.4167C74.7683 29.4198 74.7095 29.4248 74.6468 29.4278C74.5774 29.4321 74.5084 29.439 74.439 29.4432C74.3768 29.4489 74.3181 29.454 74.2554 29.457C74.1864 29.4639 74.117 29.4681 74.0446 29.4756C73.9825 29.4813 73.9203 29.487 73.8581 29.4927C73.7892 29.4996 73.7168 29.5071 73.6478 29.514C73.5857 29.5197 73.524 29.528 73.4584 29.5343C73.3894 29.5412 73.3176 29.5514 73.2486 29.5583C73.1869 29.5667 73.1214 29.573 73.0597 29.5813C72.9912 29.5909 72.9188 29.5984 72.8503 29.608C72.7886 29.6163 72.7235 29.6253 72.6584 29.6342C72.5866 29.6444 72.5181 29.654 72.4467 29.6668C72.3816 29.6758 72.3204 29.6868 72.2553 29.6957C72.1834 29.7059 72.112 29.7188 72.0401 29.7289C71.9755 29.7406 71.9138 29.7489 71.8492 29.7605C71.7778 29.7734 71.7064 29.7862 71.635 29.7991C71.5869 29.805 71.5461 29.8123 71.5087 29.819Z" fill="#DE0C88"/>
<path d="M52.9251 38.6858L59.1688 40.2783C59.9675 39.6641 60.7812 39.0747 61.6055 38.5055C61.7772 38.3865 61.9494 38.2703 62.1215 38.154C62.175 38.1196 62.228 38.0826 62.2815 38.0482C62.4041 37.9684 62.5261 37.8859 62.6487 37.8061C62.7085 37.7678 62.7649 37.7301 62.8247 37.6918C62.9473 37.612 63.0703 37.5349 63.1894 37.4556C63.2429 37.4213 63.2935 37.3901 63.347 37.3558C63.5206 37.2475 63.6903 37.1372 63.8644 37.0316C63.8673 37.0283 63.8707 37.0277 63.8736 37.0244C63.8926 37.0127 63.9082 37.0017 63.9276 36.9927C64.0759 36.9 64.2281 36.8093 64.3764 36.7166C64.4304 36.6849 64.4844 36.6531 64.5383 36.6214C64.6589 36.5502 64.7795 36.479 64.9001 36.4078C64.9604 36.3722 65.0177 36.3398 65.078 36.3042C65.1986 36.233 65.3197 36.1644 65.4403 36.0932C65.4913 36.0648 65.5419 36.0337 65.5929 36.0052C65.7651 35.9082 65.9338 35.8118 66.1064 35.7175C66.1127 35.7136 66.119 35.7097 66.1253 35.7059C66.2916 35.6154 66.4549 35.5282 66.6178 35.4384C66.6723 35.4094 66.7233 35.3809 66.7782 35.3545C66.8969 35.2919 67.0155 35.2293 67.1341 35.1667C67.192 35.137 67.2532 35.1067 67.3111 35.0771C67.4297 35.0145 67.5522 34.9539 67.6713 34.894C67.7228 34.8682 67.7743 34.8424 67.8259 34.8166C67.9965 34.7309 68.1642 34.6485 68.3319 34.566C68.3417 34.5615 68.3548 34.5564 68.3645 34.5519C68.523 34.4766 68.6814 34.4013 68.8399 34.326C68.8919 34.3029 68.9468 34.2765 68.9988 34.2534C69.1155 34.1994 69.2322 34.1454 69.3493 34.0941C69.4076 34.0671 69.4664 34.0427 69.5248 34.0157C69.6191 33.974 69.7168 33.9317 69.8145 33.8893L63.5742 32.2962C63.4765 32.3386 63.3788 32.3809 63.2816 32.4259C63.2233 32.4529 63.1644 32.4773 63.1027 32.5049C62.9856 32.5562 62.8689 32.6102 62.7523 32.6642C62.6969 32.688 62.6453 32.7137 62.5904 32.7401C62.4314 32.8127 62.2764 32.8874 62.1179 32.9627C62.1048 32.9678 62.0951 32.9723 62.0824 32.9801C61.9147 33.0625 61.747 33.145 61.5759 33.228C61.5244 33.2538 61.4728 33.2796 61.4213 33.3054C61.3022 33.3653 61.1831 33.4253 61.0645 33.4879C61.0066 33.5175 60.9454 33.5478 60.8846 33.5808C60.7655 33.6407 60.6469 33.7033 60.5317 33.7653C60.4772 33.7944 60.4223 33.8208 60.3678 33.8498C60.2045 33.937 60.0445 34.0235 59.8816 34.1134C59.8753 34.1173 59.8656 34.1218 59.8593 34.1257C59.6901 34.2194 59.518 34.3164 59.3493 34.4127C59.2982 34.4412 59.2442 34.4729 59.1932 34.5014C59.0721 34.5699 58.9511 34.6385 58.8305 34.7097C58.7702 34.7453 58.7128 34.7776 58.6525 34.8132C58.5319 34.8845 58.4114 34.9557 58.2942 35.0263C58.2402 35.058 58.1862 35.0897 58.1327 35.1241C57.9839 35.2142 57.8352 35.3042 57.6868 35.3969C57.6679 35.4086 57.6518 35.417 57.6329 35.4286C57.63 35.4319 57.6231 35.4331 57.6202 35.4364C57.4496 35.5414 57.2764 35.6524 57.1062 35.76C57.0527 35.7944 57.0022 35.8255 56.9487 35.8599C56.8291 35.9364 56.706 36.0136 56.5835 36.0934C56.5237 36.1317 56.4639 36.17 56.4045 36.2109C56.2854 36.2901 56.1629 36.3699 56.0408 36.4524C55.9873 36.4868 55.9343 36.5239 55.8808 36.5583C55.7086 36.6745 55.5365 36.7908 55.3648 36.9097C54.5375 37.4823 53.7243 38.0743 52.9251 38.6858Z" fill="#DE0C88"/>
<path d="M39.4538 52.5763L45.6975 54.1688C46.4895 53.088 47.3106 52.0324 48.1632 50.9958C49.3898 49.5012 50.675 48.0593 52.0159 46.6735L45.7756 45.0804C44.4342 46.4636 43.1495 47.9081 41.9224 49.4C41.0664 50.4372 40.2463 51.4982 39.4538 52.5763Z" fill="#DE0C88"/>
<path d="M30.964 67.489L37.2076 69.0814C37.5548 68.2596 37.9164 67.4406 38.2961 66.624C39.1832 64.7255 40.1616 62.8463 41.2307 61.0031L34.987 59.4106C33.9184 61.2565 32.94 63.1356 32.0529 65.0341C31.6728 65.8481 31.3077 66.6677 30.964 67.489Z" fill="#DE0C88"/>
<path d="M26.6286 83.569L32.8722 85.1615C32.9714 84.2494 33.1003 83.3265 33.2568 82.4014C33.5832 80.4496 34.032 78.4759 34.5955 76.4953L28.3518 74.9028C27.7884 76.8834 27.3396 78.8572 27.0136 80.8115C26.8571 81.7367 26.7278 82.6569 26.6286 83.569Z" fill="#DE0C88"/>
<path d="M26.9222 94.7678C27.3433 97.0693 27.9921 99.1538 28.8332 101.019L35.0768 102.612C34.2318 100.744 33.5865 98.6592 33.1654 96.3576C32.9592 95.2309 32.8113 94.0771 32.7198 92.905L26.4762 91.3125C26.5681 92.4873 26.716 93.6411 26.9222 94.7678Z" fill="#DE0C88"/>
<path d="M61.6085 38.5048C42.4546 51.6906 29.7238 77.5937 33.1695 96.3578C36.6153 115.122 54.9361 119.648 74.0895 106.46C93.2434 93.2742 105.974 67.3711 102.528 48.607C99.0827 29.8429 80.7624 25.319 61.6085 38.5048ZM51.1766 106.4C48.0576 105.629 45.431 104.044 43.3679 101.688C41.2336 99.2489 39.7972 96.0845 39.0985 92.2784C38.3997 88.4723 38.4812 84.2617 39.3428 79.7621C40.1748 75.411 41.6961 70.9689 43.8626 66.562C46.0292 62.1552 48.7331 58.0038 51.8945 54.2297C55.166 50.3256 58.7926 46.9906 62.6785 44.316C66.5643 41.6414 70.4652 39.7923 74.2753 38.8235C77.9575 37.8859 81.4067 37.7992 84.5257 38.5698C87.6447 39.3405 90.2714 40.926 92.3345 43.2816C94.4683 45.7179 95.9051 48.885 96.6039 52.6911C97.3026 56.4973 97.2211 60.7079 96.3596 65.2074C95.5275 69.5585 94.0057 73.998 91.8397 78.4075C89.6732 82.8144 86.9726 86.9651 83.8078 90.7399C80.5363 94.6439 76.9097 97.979 73.0239 100.654C69.1414 103.328 65.24 105.174 61.4305 106.145C57.7448 107.084 54.2951 107.168 51.1766 106.4Z" fill="#FF50B7"/>
<path d="M72.188 86.6505L69.7978 86.0409L65.909 88.7214L68.2952 89.3316L72.188 86.6505Z" fill="#F01B99"/>
<path d="M78.4616 58.7957L76.0714 58.1861L76.7768 62.0399L79.167 62.6494L78.4616 58.7957Z" fill="#AB0B6A"/>
<path d="M69.2387 70.5927L66.8485 69.9832L69.7978 86.0407L72.188 86.6503L69.2387 70.5927Z" fill="#BF0774"/>
<path d="M79.1687 62.65L76.7785 62.0405L67.6719 68.309L70.0622 68.9186L79.1687 62.65Z" fill="#BF0774"/>
<path d="M70.0622 68.9186L67.6719 68.309C67.6686 68.3128 67.6645 68.3135 67.6611 68.3173L70.0513 68.9268C70.0547 68.923 70.0582 68.9193 70.0622 68.9186Z" fill="#BF0774"/>
<path d="M70.0512 68.9237L67.661 68.3142C67.6464 68.3231 67.6324 68.3352 67.6178 68.3441L70.008 68.9537C70.0265 68.944 70.0411 68.935 70.0512 68.9237Z" fill="#BF0774"/>
<path d="M70.012 68.956L67.6218 68.3465C67.6078 68.3585 67.5932 68.3674 67.5792 68.3795L69.9694 68.989C69.9834 68.977 69.9974 68.965 70.012 68.956Z" fill="#BF0774"/>
<path d="M69.9692 68.986L67.579 68.3764C67.565 68.3885 67.551 68.4005 67.537 68.4125L69.9272 69.0221C69.9412 69.0101 69.9552 68.998 69.9692 68.986Z" fill="#BF0774"/>
<path d="M69.9267 69.0221L67.5365 68.4126C67.5225 68.4246 67.5085 68.4366 67.4945 68.4487L69.8847 69.0582C69.8987 69.0462 69.9127 69.0341 69.9267 69.0221Z" fill="#BF0774"/>
<path d="M69.885 69.0581L67.4948 68.4485C67.4808 68.4606 67.4673 68.4757 67.4533 68.4877L69.8435 69.0972C69.8536 69.0859 69.8676 69.0739 69.885 69.0581Z" fill="#BF0774"/>
<path d="M69.8399 69.1012L67.4497 68.4916C67.4362 68.5067 67.4222 68.5188 67.4087 68.5339L69.7989 69.1434C69.8124 69.1283 69.8258 69.1132 69.8399 69.1012Z" fill="#BF0774"/>
<path d="M69.7987 69.1402L67.4085 68.5306C67.395 68.5457 67.3816 68.5608 67.3675 68.5728L69.7578 69.1824C69.7718 69.1704 69.7852 69.1553 69.7987 69.1402Z" fill="#BF0774"/>
<path d="M69.7587 69.1854L67.3684 68.5759C67.355 68.591 67.3415 68.6061 67.3281 68.6212L69.7183 69.2307C69.7312 69.2126 69.7452 69.2005 69.7587 69.1854Z" fill="#BF0774"/>
<path d="M69.7173 69.2277L67.3271 68.6181C67.3136 68.6332 67.3002 68.6483 67.2906 68.6627L69.6808 69.2723C69.6904 69.2579 69.7038 69.2428 69.7173 69.2277Z" fill="#BF0774"/>
<path d="M69.6773 69.2729L67.287 68.6634C67.2736 68.6785 67.2641 68.6929 67.2506 68.708L69.6408 69.3175C69.6543 69.3024 69.6677 69.2873 69.6773 69.2729Z" fill="#BF0774"/>
<path d="M69.6441 69.317L67.2539 68.7074C67.2404 68.7225 67.2309 68.7369 67.218 68.7551L69.6082 69.3646C69.6177 69.3502 69.6307 69.3321 69.6441 69.317Z" fill="#BF0774"/>
<path d="M69.6082 69.3646L67.218 68.7551C67.2045 68.7702 67.1958 68.7876 67.1823 68.8027L69.5726 69.4122C69.586 69.3971 69.5947 69.3797 69.6082 69.3646Z" fill="#BF0774"/>
<path d="M69.5726 69.4122L67.1823 68.8027C67.1694 68.8209 67.1573 68.842 67.1444 68.8602L69.5346 69.4697C69.5475 69.4516 69.5602 69.4335 69.5726 69.4122Z" fill="#BF0774"/>
<path d="M69.5342 69.4699L67.144 68.8603C67.1249 68.8891 67.1064 68.9209 67.0873 68.9497L69.4775 69.5593C69.4966 69.5305 69.5157 69.5017 69.5342 69.4699Z" fill="#BF0774"/>
<path d="M69.4782 69.5624L67.088 68.9529C67.0666 68.9916 67.0453 69.0303 67.024 69.069L69.4142 69.6785C69.4355 69.6398 69.4563 69.598 69.4782 69.5624Z" fill="#BF0774"/>
<path d="M69.4145 69.6783L67.0243 69.0688C67.0092 69.0968 66.9979 69.1242 66.9833 69.1554L69.3735 69.7649C69.3881 69.7338 69.3994 69.7064 69.4145 69.6783Z" fill="#BF0774"/>
<path d="M69.3727 69.762L66.9825 69.1524C66.9741 69.173 66.9651 69.1904 66.9566 69.211L69.3469 69.8205C69.3558 69.803 69.3643 69.7825 69.3727 69.762Z" fill="#BF0774"/>
<path d="M69.3508 69.8198L66.9605 69.2102C66.9555 69.227 66.9465 69.2445 66.9414 69.2612L69.3316 69.8708C69.3367 69.854 69.3418 69.8373 69.3508 69.8198Z" fill="#BF0774"/>
<path d="M69.3316 69.8708L66.9414 69.2612C66.9358 69.2749 66.9306 69.2916 66.9255 69.3084L69.3157 69.918C69.3169 69.9019 69.3221 69.8852 69.3316 69.8708Z" fill="#BF0774"/>
<path d="M69.3111 69.9157L66.9209 69.3062C66.9153 69.3199 66.9102 69.3366 66.9046 69.3503L69.2948 69.9599C69.3005 69.9462 69.3061 69.9325 69.3111 69.9157Z" fill="#BF0774"/>
<path d="M69.2997 69.9621L66.9095 69.3525C66.9044 69.3693 66.8988 69.3829 66.8977 69.399L69.2879 70.0086C69.289 69.9925 69.2941 69.9757 69.2997 69.9621Z" fill="#BF0774"/>
<path d="M69.2832 70.0062L66.893 69.3966C66.8879 69.4134 66.8862 69.4264 66.8811 69.4431L69.2713 70.0527C69.2764 70.0359 69.2781 70.023 69.2832 70.0062Z" fill="#BF0774"/>
<path d="M69.2713 70.0527L66.8811 69.4431C66.8761 69.4599 66.8741 69.473 66.869 69.4897L69.2592 70.0993C69.2648 70.0856 69.2663 70.0694 69.2713 70.0527Z" fill="#BF0774"/>
<path d="M69.2597 70.0992L66.8695 69.4897C66.8644 69.5065 66.8632 69.5225 66.8576 69.5362L69.2478 70.1457C69.2534 70.1321 69.2546 70.116 69.2597 70.0992Z" fill="#BF0774"/>
<path d="M69.248 70.1488L66.8578 69.5393C66.8528 69.5561 66.8516 69.5721 66.8505 69.5882L69.2407 70.1977C69.2457 70.1809 69.2469 70.1649 69.248 70.1488Z" fill="#BF0774"/>
<path d="M69.2405 70.1946L66.8503 69.5851C66.8491 69.6011 66.844 69.6179 66.8429 69.6339L69.2331 70.2435C69.2342 70.2274 69.2393 70.2107 69.2405 70.1946Z" fill="#BF0774"/>
<path d="M69.2327 70.2435L66.8425 69.634C66.8413 69.65 66.8402 69.6661 66.839 69.6821L69.2292 70.2917C69.2304 70.2756 69.2315 70.2596 69.2327 70.2435Z" fill="#BF0774"/>
<path d="M69.2292 70.2917L66.839 69.6821C66.8379 69.6982 66.837 69.7142 66.8358 69.7302L69.226 70.3398C69.2272 70.3237 69.2281 70.3077 69.2292 70.2917Z" fill="#BF0774"/>
<path d="M69.2258 70.3367L66.8356 69.7271C66.8344 69.7432 66.8327 69.7562 66.8355 69.7715L69.2257 70.3811C69.2235 70.3688 69.2246 70.3528 69.2258 70.3367Z" fill="#BF0774"/>
<path d="M69.2213 70.3819L66.831 69.7724C66.8299 69.7884 66.8321 69.8007 66.8309 69.8168L69.2212 70.4263C69.2229 70.4133 69.224 70.3973 69.2213 70.3819Z" fill="#BF0774"/>
<path d="M69.2212 70.4263L66.8309 69.8168C66.8298 69.8328 66.8322 69.8449 66.831 69.861L69.2212 70.4705C69.223 70.4576 69.2239 70.4417 69.2212 70.4263Z" fill="#BF0774"/>
<path d="M69.2252 70.4699L66.835 69.8603C66.8378 69.8757 66.8361 69.8887 66.8389 69.904L69.2291 70.5136C69.2263 70.4982 69.228 70.4852 69.2252 70.4699Z" fill="#BF0774"/>
<path d="M69.2291 70.5136L66.8389 69.904C66.8411 69.9163 66.8439 69.9317 66.8422 69.9447L69.2324 70.5542C69.2302 70.5419 69.2313 70.5258 69.2291 70.5136Z" fill="#BF0774"/>
<path d="M69.2324 70.5542L66.8422 69.9447C66.8444 69.9569 66.8467 69.9692 66.8495 69.9845L69.2397 70.594C69.2369 70.5787 69.2346 70.5665 69.2324 70.5542Z" fill="#BF0774"/>
<path d="M79.8677 55.9393L77.4774 55.3297C77.4478 55.3223 77.4143 55.3157 77.3818 55.3152L79.772 55.9247C79.8084 55.9245 79.838 55.9319 79.8677 55.9393Z" fill="#F01B99"/>
<path d="M79.7751 55.921L77.3849 55.3115C77.3603 55.3095 77.3318 55.3083 77.3078 55.3095L79.6979 55.919C79.722 55.9179 79.7466 55.9198 79.7751 55.921Z" fill="#F01B99"/>
<path d="M79.6944 55.9198L77.3042 55.3103C77.284 55.3108 77.26 55.3119 77.2404 55.3154L79.6306 55.925C79.6541 55.9208 79.6742 55.9203 79.6944 55.9198Z" fill="#F01B99"/>
<path d="M79.6306 55.925L77.2404 55.3154C77.2208 55.319 77.2006 55.3193 77.1849 55.3222L79.5751 55.9317C79.5947 55.9282 79.6105 55.9254 79.6306 55.925Z" fill="#F01B99"/>
<path d="M79.5751 55.9317L77.1849 55.3222C77.1693 55.325 77.1494 55.3285 77.1338 55.3314L79.524 55.9409C79.5396 55.9381 79.5555 55.9352 79.5751 55.9317Z" fill="#F01B99"/>
<path d="M79.525 55.944L77.1348 55.3344C77.1191 55.3372 77.104 55.3431 77.0883 55.346L79.4785 55.9555C79.4897 55.9503 79.5093 55.9468 79.525 55.944Z" fill="#F01B99"/>
<path d="M79.4742 55.9562L77.084 55.3466C77.0689 55.3525 77.0533 55.3554 77.0382 55.3613L79.4283 55.9708C79.4435 55.9649 79.4586 55.959 79.4742 55.9562Z" fill="#F01B99"/>
<path d="M79.4283 55.9708L77.0382 55.3613C77.023 55.3671 77.0082 55.373 76.997 55.3781L79.3873 55.9877C79.3979 55.9794 79.4132 55.9767 79.4283 55.9708Z" fill="#F01B99"/>
<path d="M79.3824 55.9854L76.9922 55.3759C76.9771 55.3818 76.9619 55.3877 76.9468 55.3935L79.337 56.0031C79.3561 55.9965 79.3712 55.9906 79.3824 55.9854Z" fill="#F01B99"/>
<path d="M79.3417 56.0054L76.9515 55.3959C76.9364 55.4018 76.9252 55.4069 76.9106 55.4159L79.3009 56.0254C79.3154 56.0165 79.3266 56.0113 79.3417 56.0054Z" fill="#F01B99"/>
<path d="M79.3005 56.0223L76.9103 55.4127C76.8952 55.4186 76.8846 55.4269 76.8695 55.4328L79.2597 56.0423C79.2709 56.0371 79.286 56.0312 79.3005 56.0223Z" fill="#F01B99"/>
<path d="M79.2591 56.0424L76.8689 55.4329C76.8538 55.4387 76.8432 55.447 76.8286 55.456L79.2188 56.0655C79.2294 56.0572 79.2446 56.0514 79.2591 56.0424Z" fill="#F01B99"/>
<path d="M79.2153 56.0662L76.8251 55.4567C76.8105 55.4656 76.7954 55.4715 76.7847 55.4798L79.1749 56.0893C79.1901 56.0835 79.2046 56.0745 79.2153 56.0662Z" fill="#F01B99"/>
<path d="M79.1757 56.0922L76.7855 55.4827C76.7709 55.4916 76.7564 55.5006 76.7457 55.5089L79.1359 56.1184C79.146 56.1071 79.1606 56.0981 79.1757 56.0922Z" fill="#F01B99"/>
<path d="M79.1349 56.1155L76.7447 55.506C76.734 55.5142 76.7228 55.5194 76.7122 55.5277L79.1024 56.1372C79.1136 56.132 79.1242 56.1238 79.1349 56.1155Z" fill="#F01B99"/>
<path d="M79.1031 56.1372L76.7135 55.5307L67.6108 61.7986L69.9966 62.4057L79.1031 56.1372Z" fill="#F01B99"/>
<path d="M76.557 48.4309L74.1668 47.8214L74.859 51.5793L77.2453 52.1895L76.557 48.4309Z" fill="#AB0B6A"/>
<path d="M77.2462 52.1881L74.8599 51.5778L65.7534 57.8464L68.1436 58.456L77.2462 52.1881Z" fill="#BF0774"/>
<path d="M68.1706 64.7708L65.7809 64.1643L65.7815 64.1674L68.1712 64.7739L68.1706 64.7708Z" fill="#BF0774"/>
<path d="M68.1712 64.7739L65.7809 64.1643C65.7837 64.1797 65.7859 64.1919 65.7881 64.2042L68.1783 64.8138C68.1761 64.8015 68.1739 64.7892 68.1712 64.7739Z" fill="#BF0774"/>
<path d="M68.1788 64.8169L65.7886 64.2073C65.7908 64.2196 65.7936 64.235 65.7997 64.2466L68.1899 64.8561C68.1832 64.8415 68.181 64.8292 68.1788 64.8169Z" fill="#BF0774"/>
<path d="M68.1906 64.856L65.8004 64.2464C65.8031 64.2617 65.8092 64.2733 65.8114 64.2856L68.2017 64.8952C68.1994 64.8829 68.1928 64.8682 68.1906 64.856Z" fill="#BF0774"/>
<path d="M68.2017 64.8952L65.8114 64.2856C65.8181 64.3002 65.8201 64.3125 65.8263 64.3241L68.2165 64.9336C68.2104 64.9221 68.2083 64.9098 68.2017 64.8952Z" fill="#BF0774"/>
<path d="M68.2165 64.9336L65.8263 64.3241C65.8329 64.3387 65.8388 64.3505 65.8455 64.3651L68.2357 64.9747C68.2296 64.9631 68.2232 64.9483 68.2165 64.9336Z" fill="#BF0774"/>
<path d="M68.2361 64.9745L65.8459 64.3649C65.8526 64.3796 65.8592 64.3942 65.8693 64.4051L68.2595 65.0147C68.2494 65.0038 68.2427 64.9891 68.2361 64.9745Z" fill="#BF0774"/>
<path d="M68.259 65.0148L65.8688 64.4052C65.8755 64.4199 65.8861 64.4338 65.8967 64.4478L68.2869 65.0573C68.2763 65.0434 68.2657 65.0294 68.259 65.0148Z" fill="#BF0774"/>
<path d="M68.2869 65.0573L65.8967 64.4478C65.9073 64.4617 65.9185 64.4787 65.9331 64.4919L68.3233 65.1014C68.3088 65.0882 68.2975 65.0713 68.2869 65.0573Z" fill="#BF0774"/>
<path d="M68.3192 65.1022L65.929 64.4927C65.9446 64.5121 65.9636 64.5276 65.9826 64.5432L68.3728 65.1528C68.3538 65.1372 68.3348 65.1216 68.3192 65.1022Z" fill="#BF0774"/>
<path d="M68.3728 65.1528L65.9826 64.5432C66.0445 64.5955 66.1162 64.6333 66.1967 64.6537L68.5869 65.2632C68.5064 65.2428 68.4348 65.205 68.3728 65.1528Z" fill="#BF0774"/>
<path d="M67.3153 60.1326L64.9296 59.5254L65.7803 64.1644L68.1699 64.7708L67.3153 60.1326Z" fill="#BF0774"/>
<path d="M68.1426 58.4562L65.7524 57.8466C65.749 57.8504 65.7451 57.8511 65.7418 57.8549L68.132 58.4644C68.1353 58.4606 68.1387 58.4569 68.1426 58.4562Z" fill="#BF0774"/>
<path d="M68.1318 58.4612L65.7416 57.8517C65.727 57.8606 65.713 57.8727 65.6984 57.8816L68.0887 58.4912C68.1032 58.4822 68.1178 58.4733 68.1318 58.4612Z" fill="#BF0774"/>
<path d="M68.0888 58.4943L65.6986 57.8848C65.6846 57.8968 65.67 57.9057 65.656 57.9178L68.0462 58.5273C68.0602 58.5153 68.0743 58.5033 68.0888 58.4943Z" fill="#BF0774"/>
<path d="M68.046 58.5243L65.6558 57.9147C65.6418 57.9268 65.6278 57.9388 65.6138 57.9508L68.004 58.5604C68.018 58.5483 68.032 58.5363 68.046 58.5243Z" fill="#BF0774"/>
<path d="M68.0036 58.5604L65.6133 57.9508C65.5993 57.9629 65.5853 57.9749 65.5713 57.9869L67.9615 58.5965C67.9755 58.5845 67.9896 58.5724 68.0036 58.5604Z" fill="#BF0774"/>
<path d="M67.9615 58.5965L65.5713 57.9869C65.5573 57.999 65.5442 58.014 65.5302 58.026L67.9204 58.6355C67.9344 58.6235 67.9481 58.6116 67.9615 58.5965Z" fill="#BF0774"/>
<path d="M67.9205 58.6388L65.5303 58.0292C65.5168 58.0443 65.5028 58.0564 65.4894 58.0715L67.8796 58.681C67.8891 58.6666 67.9026 58.6515 67.9205 58.6388Z" fill="#BF0774"/>
<path d="M67.8755 58.6784L65.4853 58.0689C65.4719 58.084 65.4584 58.0991 65.4444 58.1111L67.8346 58.7207C67.8486 58.7086 67.8621 58.6935 67.8755 58.6784Z" fill="#BF0774"/>
<path d="M67.8347 58.7238L65.4445 58.1143C65.4311 58.1294 65.4176 58.1445 65.4041 58.1596L67.7944 58.7692C67.8073 58.751 67.8207 58.7359 67.8347 58.7238Z" fill="#BF0774"/>
<path d="M67.7941 58.766L65.4039 58.1564C65.3905 58.1715 65.377 58.1866 65.3675 58.201L67.7577 58.8106C67.7711 58.7955 67.7807 58.7811 67.7941 58.766Z" fill="#BF0774"/>
<path d="M67.7577 58.8106L65.3675 58.201C65.354 58.2161 65.3447 58.2305 65.3313 58.2456L67.7215 58.8552C67.7349 58.8401 67.7442 58.8257 67.7577 58.8106Z" fill="#BF0774"/>
<path d="M67.721 58.8553L65.3307 58.2457C65.3173 58.2608 65.3078 58.2752 65.2948 58.2934L67.6851 58.9029C67.6985 58.8878 67.7075 58.8704 67.721 58.8553Z" fill="#BF0774"/>
<path d="M67.6851 58.9029L65.2948 58.2934C65.2814 58.3085 65.2726 58.3259 65.2592 58.341L67.6494 58.9505C67.6629 58.9354 67.6755 58.9173 67.6851 58.9029Z" fill="#BF0774"/>
<path d="M67.6494 58.9505L65.2592 58.341C65.2463 58.3591 65.2342 58.3803 65.2213 58.3985L67.6115 59.008C67.6244 58.9898 67.637 58.9718 67.6494 58.9505Z" fill="#BF0774"/>
<path d="M67.611 59.0081L65.2208 58.3986C65.2017 58.4274 65.1832 58.4592 65.1641 58.488L67.5544 59.0976C67.5734 59.0688 67.5925 59.04 67.611 59.0081Z" fill="#BF0774"/>
<path d="M67.555 59.1007L65.1648 58.4911C65.1435 58.5298 65.1221 58.5686 65.1008 58.6073L67.491 59.2168C67.5118 59.175 67.5331 59.1363 67.555 59.1007Z" fill="#BF0774"/>
<path d="M67.4952 59.2159L65.105 58.6064C65.0898 58.6345 65.0786 58.6618 65.0634 58.6899L67.4536 59.2995C67.4649 59.2721 67.48 59.244 67.4952 59.2159Z" fill="#BF0774"/>
<path d="M67.4536 59.2995L65.0634 58.6899C65.055 58.7104 65.0458 58.728 65.0373 58.7486L67.4275 59.3581C67.436 59.3376 67.4452 59.32 67.4536 59.2995Z" fill="#BF0774"/>
<path d="M67.4275 59.3581L65.0373 58.7486C65.0323 58.7653 65.0233 58.7827 65.0183 58.7995L67.4085 59.409C67.4136 59.3923 67.4225 59.3749 67.4275 59.3581Z" fill="#BF0774"/>
<path d="M67.4085 59.409L65.0183 58.7995C65.0126 58.8132 65.0074 58.8299 65.0023 58.8467L67.3925 59.4562C67.3976 59.4395 67.4029 59.4227 67.4085 59.409Z" fill="#BF0774"/>
<path d="M67.3918 59.4532L65.0016 58.8436C64.996 58.8573 64.9909 58.8741 64.9853 58.8878L67.3755 59.4973C67.3811 59.4836 67.3867 59.4699 67.3918 59.4532Z" fill="#BF0774"/>
<path d="M67.3766 59.5003L64.9864 58.8908C64.9813 58.9075 64.9757 58.9212 64.9745 58.9373L67.3647 59.5468C67.3659 59.5308 67.371 59.514 67.3766 59.5003Z" fill="#BF0774"/>
<path d="M67.3639 59.5439L64.9737 58.9344C64.9686 58.9511 64.9669 58.9641 64.9618 58.9809L67.352 59.5904C67.3532 59.5744 67.3588 59.5607 67.3639 59.5439Z" fill="#BF0774"/>
<path d="M67.3517 59.5904L64.9615 58.9808C64.9564 58.9976 64.9547 59.0106 64.9496 59.0273L67.3399 59.6369C67.341 59.6208 67.3466 59.6071 67.3517 59.5904Z" fill="#BF0774"/>
<path d="M67.3403 59.6369L64.9501 59.0273C64.945 59.0441 64.9439 59.0601 64.9383 59.0738L67.3285 59.6834C67.3302 59.6704 67.3353 59.6536 67.3403 59.6369Z" fill="#BF0774"/>
<path d="M67.3287 59.6864L64.9385 59.0769C64.9334 59.0937 64.9323 59.1097 64.9311 59.1258L67.3213 59.7353C67.3225 59.7193 67.3236 59.7032 67.3287 59.6864Z" fill="#BF0774"/>
<path d="M67.3212 59.7322L64.931 59.1227C64.9298 59.1387 64.9247 59.1555 64.9236 59.1715L67.3138 59.7811C67.3149 59.765 67.3161 59.749 67.3212 59.7322Z" fill="#BF0774"/>
<path d="M67.3134 59.7811L64.9231 59.1716C64.922 59.1876 64.9209 59.2037 64.9197 59.2197L67.3099 59.8293C67.3071 59.8139 67.3083 59.7979 67.3134 59.7811Z" fill="#BF0774"/>
<path d="M67.3063 59.8299L64.9161 59.2204C64.915 59.2364 64.9138 59.2525 64.9126 59.2685L67.3029 59.8781C67.304 59.862 67.3052 59.8459 67.3063 59.8299Z" fill="#BF0774"/>
<path d="M67.3024 59.8781L64.9122 59.2686C64.911 59.2846 64.9093 59.2976 64.9121 59.313L67.3023 59.9225C67.3034 59.9065 67.3007 59.8911 67.3024 59.8781Z" fill="#BF0774"/>
<path d="M67.3023 59.9225L64.9121 59.313C64.9109 59.329 64.9133 59.3413 64.9122 59.3574L67.3024 59.9669C67.2996 59.9516 67.3006 59.9355 67.3023 59.9225Z" fill="#BF0774"/>
<path d="M67.3024 59.9669L64.9122 59.3574C64.911 59.3734 64.9134 59.3857 64.9122 59.4018L67.3025 60.0113C67.3036 59.9952 67.3007 59.9799 67.3024 59.9669Z" fill="#BF0774"/>
<path d="M67.3025 60.0113L64.9122 59.4018C64.915 59.4171 64.9135 59.4301 64.9162 59.4455L67.3065 60.055C67.3076 60.0389 67.3047 60.0236 67.3025 60.0113Z" fill="#BF0774"/>
<path d="M67.306 60.0519L64.9158 59.4423C64.9185 59.4577 64.9169 59.4706 64.9196 59.486L67.3098 60.0956C67.311 60.0795 67.3088 60.0672 67.306 60.0519Z" fill="#BF0774"/>
<path d="M67.3137 60.0949L64.9235 59.4853C64.9257 59.4976 64.9279 59.5099 64.9307 59.5253L67.3209 60.1348C67.3142 60.1202 67.312 60.1079 67.3137 60.0949Z" fill="#BF0774"/>
<path d="M66.4671 91.6963L64.0774 91.0898L66.4677 91.6994L66.4671 91.6963Z" fill="#BF0774"/>
<path d="M66.4677 91.6994L64.0774 91.0898C64.0802 91.1052 64.0824 91.1175 64.0846 91.1297L66.4748 91.7393C66.4726 91.727 66.4704 91.7147 66.4677 91.6994Z" fill="#BF0774"/>
<path d="M66.4791 91.7417L64.0889 91.1322C64.0911 91.1444 64.0939 91.1598 64.1 91.1714L66.4902 91.7809C66.4836 91.7663 66.4813 91.754 66.4791 91.7417Z" fill="#BF0774"/>
<path d="M66.4863 91.7816L64.0961 91.172C64.0989 91.1874 64.105 91.199 64.1072 91.2113L66.4974 91.8208C66.4952 91.8085 66.4924 91.7932 66.4863 91.7816Z" fill="#BF0774"/>
<path d="M66.5018 91.82L64.1116 91.2104C64.1183 91.2251 64.1205 91.2373 64.1266 91.2489L66.5168 91.8585C66.5107 91.8469 66.5046 91.8353 66.5018 91.82Z" fill="#BF0774"/>
<path d="M66.5168 91.8585L64.1266 91.2489C64.1333 91.2636 64.1391 91.2752 64.1458 91.2898L66.536 91.8993C66.526 91.8885 66.5235 91.8731 66.5168 91.8585Z" fill="#BF0774"/>
<path d="M66.5364 91.8993L64.1462 91.2898C64.1529 91.3044 64.1596 91.3191 64.1696 91.3299L66.5598 91.9395C66.5498 91.9286 66.5431 91.914 66.5364 91.8993Z" fill="#BF0774"/>
<path d="M66.5555 91.9403L64.1653 91.3307C64.172 91.3454 64.1826 91.3593 64.1932 91.3733L66.5834 91.9828C66.5728 91.9689 66.5661 91.9542 66.5555 91.9403Z" fill="#BF0774"/>
<path d="M66.5834 91.9828L64.1932 91.3733C64.2038 91.3872 64.2151 91.4042 64.2296 91.4174L66.6198 92.0269C66.6053 92.0137 66.594 91.9968 66.5834 91.9828Z" fill="#BF0774"/>
<path d="M66.6198 92.0269L64.2296 91.4174C64.2452 91.4368 64.2639 91.4525 64.2829 91.4681L66.6731 92.0776C66.6502 92.0627 66.6354 92.0463 66.6198 92.0269Z" fill="#BF0774"/>
<path d="M66.6695 92.0782L64.2793 91.4687C64.3412 91.5209 64.4127 91.5588 64.4932 91.5792L66.8834 92.1887C66.8069 92.1676 66.7314 92.1305 66.6695 92.0782Z" fill="#BF0774"/>
<path d="M61.5999 65.1796L59.2097 64.5701L64.0774 91.0898L66.4671 91.6963L61.5999 65.1796Z" fill="#BF0774"/>
<path d="M63.0067 62.3177L60.6165 61.7081C60.5869 61.7008 60.5533 61.6941 60.5209 61.6936L62.9111 62.3032C62.948 62.306 62.9771 62.3103 63.0067 62.3177Z" fill="#F01B99"/>
<path d="M62.9147 62.3026L60.5245 61.693C60.4999 61.6911 60.4714 61.6899 60.4434 61.6918L62.8336 62.3013C62.8616 62.2995 62.8862 62.3014 62.9147 62.3026Z" fill="#F01B99"/>
<path d="M62.8334 62.2981L60.4432 61.6886C60.423 61.689 60.399 61.6902 60.3794 61.6937L62.7696 62.3033C62.7898 62.3028 62.8132 62.2986 62.8334 62.2981Z" fill="#F01B99"/>
<path d="M62.7696 62.3033L60.3794 61.6937C60.3598 61.6972 60.3396 61.6978 60.3239 61.7006L62.7142 62.3101C62.7298 62.3073 62.75 62.3068 62.7696 62.3033Z" fill="#F01B99"/>
<path d="M62.7142 62.3101L60.3239 61.7006C60.3083 61.7034 60.2885 61.707 60.2728 61.7098L62.663 62.3193C62.6787 62.3165 62.6946 62.3137 62.7142 62.3101Z" fill="#F01B99"/>
<path d="M62.6601 62.3229L60.2699 61.7134C60.2543 61.7162 60.2391 61.7221 60.2235 61.7249L62.6137 62.3345C62.6294 62.3317 62.6445 62.3258 62.6601 62.3229Z" fill="#F01B99"/>
<path d="M62.6133 62.3346L60.2231 61.7251C60.2079 61.731 60.1923 61.7338 60.1772 61.7397L62.5674 62.3492C62.5825 62.3433 62.5982 62.3405 62.6133 62.3346Z" fill="#F01B99"/>
<path d="M62.5674 62.3492L60.1772 61.7397C60.1621 61.7456 60.1473 61.7514 60.1361 61.7566L62.5263 62.3661C62.5375 62.3609 62.5523 62.3551 62.5674 62.3492Z" fill="#F01B99"/>
<path d="M62.5219 62.3668L60.1317 61.7573C60.1166 61.7632 60.1015 61.7691 60.0864 61.775L62.4766 62.3845C62.4956 62.3779 62.5107 62.372 62.5219 62.3668Z" fill="#F01B99"/>
<path d="M62.4808 62.3838L60.0906 61.7743C60.0754 61.7802 60.0642 61.7854 60.0497 61.7943L62.4399 62.4039C62.4544 62.3949 62.4657 62.3897 62.4808 62.3838Z" fill="#F01B99"/>
<path d="M62.4396 62.4007L60.0494 61.7911C60.0343 61.797 60.0236 61.8053 60.0085 61.8112L62.3987 62.4207C62.4099 62.4155 62.425 62.4097 62.4396 62.4007Z" fill="#F01B99"/>
<path d="M62.3988 62.424L60.0085 61.8144C59.9934 61.8203 59.9828 61.8286 59.9682 61.8375L62.3584 62.4471C62.3691 62.4388 62.3836 62.4299 62.3988 62.424Z" fill="#F01B99"/>
<path d="M62.3543 62.4446L59.9641 61.8351C59.9495 61.8441 59.9383 61.8492 59.9238 61.8582L62.314 62.4678C62.3291 62.4619 62.3436 62.4529 62.3543 62.4446Z" fill="#F01B99"/>
<path d="M62.3148 62.4708L59.9246 61.8613C59.91 61.8702 59.8954 61.8792 59.8848 61.8874L62.275 62.497C62.2896 62.488 62.3002 62.4797 62.3148 62.4708Z" fill="#F01B99"/>
<path d="M62.2745 62.4969L59.8842 61.8874C59.8736 61.8956 59.8624 61.9008 59.8517 61.9091L62.242 62.5186C62.2526 62.5104 62.2633 62.5021 62.2745 62.4969Z" fill="#F01B99"/>
<path d="M62.242 62.5186L59.8517 61.9091L50.3139 68.477L52.6997 69.0842L62.242 62.5186Z" fill="#F01B99"/>
<path d="M50.8745 71.4524L48.4843 70.8429L48.4849 70.8459L50.8751 71.4555L50.8745 71.4524Z" fill="#BF0774"/>
<path d="M50.8751 71.4555L48.4849 70.8459C48.4876 70.8613 48.4898 70.8735 48.492 70.8858L50.8823 71.4953C50.8801 71.483 50.8773 71.4678 50.8751 71.4555Z" fill="#BF0774"/>
<path d="M50.8868 71.4946L48.4966 70.8851C48.4988 70.8973 48.5015 70.9127 48.5077 70.9243L50.8979 71.5338C50.8918 71.5222 50.8895 71.51 50.8868 71.4946Z" fill="#BF0774"/>
<path d="M50.894 71.5345L48.5038 70.9249C48.5065 70.9403 48.5126 70.9519 48.5148 70.9641L50.9051 71.5737C50.9028 71.5614 50.9006 71.5491 50.894 71.5345Z" fill="#BF0774"/>
<path d="M50.9092 71.5761L48.519 70.9666C48.5257 70.9812 48.5279 70.9935 48.5341 71.0051L50.9243 71.6146C50.9181 71.6031 50.9115 71.5884 50.9092 71.5761Z" fill="#BF0774"/>
<path d="M50.9243 71.6146L48.5341 71.0051C48.5407 71.0197 48.5466 71.0313 48.5532 71.046L50.9435 71.6555C50.9368 71.6409 50.9309 71.6293 50.9243 71.6146Z" fill="#BF0774"/>
<path d="M50.9439 71.6555L48.5536 71.046C48.5603 71.0606 48.567 71.0752 48.5771 71.0861L50.9673 71.6957C50.9567 71.6817 50.95 71.6671 50.9439 71.6555Z" fill="#BF0774"/>
<path d="M50.963 71.6963L48.5728 71.0868C48.5794 71.1014 48.59 71.1154 48.6006 71.1293L50.9908 71.7388C50.9802 71.7249 50.9736 71.7103 50.963 71.6963Z" fill="#BF0774"/>
<path d="M50.9904 71.7358L48.6002 71.1263C48.6108 71.1402 48.6219 71.1572 48.6364 71.1704L51.0267 71.78C51.0122 71.7668 51.0016 71.7528 50.9904 71.7358Z" fill="#BF0774"/>
<path d="M51.0267 71.78L48.6364 71.1704C48.6521 71.1898 48.6708 71.2055 48.6898 71.2211L51.08 71.8307C51.061 71.8151 51.0423 71.7994 51.0267 71.78Z" fill="#BF0774"/>
<path d="M51.0764 71.8313L48.6861 71.2218C48.7481 71.274 48.8196 71.3118 48.9001 71.3322L51.2903 71.9418C51.2143 71.9237 51.1389 71.8866 51.0764 71.8313Z" fill="#BF0774"/>
<path d="M49.8239 65.7243L47.4337 65.1148L48.4843 70.8429L50.8745 71.4524L49.8239 65.7243Z" fill="#BF0774"/>
<path d="M50.6443 64.0499C50.0903 64.4316 49.7194 65.1798 49.8217 65.7255L50.8723 71.4536C50.974 71.9963 51.5028 72.1261 52.0574 71.7475L61.5992 65.1788L66.4709 91.6978C66.5726 92.2405 67.1014 92.3704 67.656 91.9918L73.5565 87.9289C74.1145 87.5465 74.4809 86.796 74.3831 86.2526L71.4338 70.1951L80.5364 63.9272C81.0904 63.5455 81.4608 62.7943 81.3591 62.2516L80.2918 56.4314C80.1896 55.8857 79.6614 55.7589 79.1068 56.1375L70.0042 62.4054L69.5153 59.7329L78.6179 53.465C79.172 53.0833 79.5423 52.3321 79.4406 51.7894L78.3899 46.0613C78.2877 45.5156 77.7595 45.3887 77.2049 45.7674L50.6443 64.0499ZM52.6983 69.0841L52.0101 65.3255L76.555 48.4261L77.2433 52.1847L68.1368 58.4532C67.5827 58.835 67.2124 59.5862 67.3141 60.1288L68.1648 64.7678C68.2665 65.3105 68.7953 65.4404 69.3498 65.0617L78.4564 58.7931L79.1657 62.6462L70.0592 68.9148C69.5051 69.2965 69.1348 70.0477 69.2365 70.5904L72.1863 86.651L68.293 89.329L63.4213 62.81C63.3191 62.2642 62.7902 62.1343 62.2362 62.5161L52.6983 69.0841Z" fill="#FF50B7"/>
<path d="M77.9674 45.5701L75.5772 44.9606C75.5476 44.9532 75.5141 44.9466 75.4816 44.9461L77.8718 45.5556C77.9043 45.5561 77.9378 45.5628 77.9674 45.5701Z" fill="#F01B99"/>
<path d="M77.8711 45.5526L75.4809 44.943C75.4563 44.9411 75.4278 44.9399 75.4037 44.9411L77.7939 45.5506C77.818 45.5494 77.8465 45.5506 77.8711 45.5526Z" fill="#F01B99"/>
<path d="M77.7939 45.5506L75.4037 44.9411C75.3836 44.9415 75.3598 44.9428 75.3402 44.9463L77.7304 45.5558C77.75 45.5523 77.7699 45.5518 77.7939 45.5506Z" fill="#F01B99"/>
<path d="M77.7304 45.5558L75.3402 44.9463C75.3206 44.9498 75.3004 44.9502 75.2847 44.953L77.6749 45.5626C77.6906 45.5597 77.7102 45.5563 77.7304 45.5558Z" fill="#F01B99"/>
<path d="M77.6709 45.5633L75.2806 44.9538C75.265 44.9566 75.2454 44.9601 75.2297 44.9629L77.6199 45.5725C77.6356 45.5696 77.6552 45.5661 77.6709 45.5633Z" fill="#F01B99"/>
<path d="M77.6204 45.5724L75.2301 44.9628C75.2145 44.9657 75.1994 44.9715 75.1837 44.9744L77.5739 45.5839C77.5896 45.5811 77.6052 45.5783 77.6204 45.5724Z" fill="#F01B99"/>
<path d="M77.574 45.5871L75.1838 44.9775C75.1687 44.9834 75.153 44.9862 75.1379 44.9921L77.5281 45.6017C77.5393 45.5965 77.5584 45.5899 77.574 45.5871Z" fill="#F01B99"/>
<path d="M77.5247 45.6023L75.1344 44.9927C75.1193 44.9986 75.1042 45.0045 75.093 45.0097L77.4832 45.6192C77.4978 45.6103 77.5129 45.6044 77.5247 45.6023Z" fill="#F01B99"/>
<path d="M77.4822 45.6163L75.0919 45.0067C75.0768 45.0126 75.0617 45.0185 75.0466 45.0244L77.4368 45.6339C77.4519 45.6281 77.467 45.6222 77.4822 45.6163Z" fill="#F01B99"/>
<path d="M77.4371 45.6338L75.0469 45.0243C75.0318 45.0302 75.0206 45.0353 75.006 45.0443L77.3962 45.6539C77.4114 45.648 77.4259 45.639 77.4371 45.6338Z" fill="#F01B99"/>
<path d="M77.3962 45.6539L75.006 45.0443C74.9909 45.0502 74.9805 45.0584 74.9654 45.0643L77.3556 45.6738C77.3708 45.668 77.3811 45.6597 77.3962 45.6539Z" fill="#F01B99"/>
<path d="M77.3551 45.674L74.9649 45.0644C74.9498 45.0703 74.9391 45.0786 74.9246 45.0875L77.3148 45.6971C77.3254 45.6888 77.3406 45.6829 77.3551 45.674Z" fill="#F01B99"/>
<path d="M77.3148 45.6971L74.9246 45.0875C74.91 45.0965 74.8952 45.1024 74.8845 45.1106L77.2747 45.7202C77.2854 45.7119 77.3002 45.706 77.3148 45.6971Z" fill="#F01B99"/>
<path d="M77.2711 45.7208L74.8809 45.1112C74.8664 45.1202 74.8518 45.1292 74.8412 45.1374L77.2314 45.7469C77.2459 45.738 77.2605 45.729 77.2711 45.7208Z" fill="#F01B99"/>
<path d="M77.2308 45.7471L74.8406 45.1375C74.83 45.1458 74.8188 45.151 74.8081 45.1592L77.1983 45.7688C77.2095 45.7636 77.2202 45.7553 77.2308 45.7471Z" fill="#F01B99"/>
<path d="M77.1983 45.7688L74.8086 45.1623L48.2553 63.4403L50.6455 64.0498L77.1983 45.7688Z" fill="#F01B99"/>
<path d="M50.6455 64.0498L48.2553 63.4403C48.252 63.4441 48.2481 63.4447 48.2447 63.4485L50.6349 64.058C50.6382 64.0542 50.6422 64.0536 50.6455 64.0498Z" fill="#F01B99"/>
<path d="M50.6349 64.058L48.2447 63.4485C48.2301 63.4574 48.2162 63.4695 48.2016 63.4785L50.5918 64.088C50.6058 64.076 50.6203 64.067 50.6349 64.058Z" fill="#F01B99"/>
<path d="M50.5955 64.0872L48.2053 63.4777C48.1912 63.4897 48.1767 63.4987 48.1627 63.5107L50.5529 64.1202C50.5669 64.1082 50.5809 64.0962 50.5955 64.0872Z" fill="#F01B99"/>
<path d="M50.5529 64.1202L48.1627 63.5107C48.1487 63.5227 48.135 63.5347 48.121 63.5468L50.5112 64.1563C50.5247 64.1412 50.5389 64.1323 50.5529 64.1202Z" fill="#F01B99"/>
<path d="M50.5102 64.1533L48.12 63.5438C48.106 63.5558 48.092 63.5678 48.078 63.5799L50.4682 64.1894C50.4788 64.1812 50.4923 64.1661 50.5102 64.1533Z" fill="#F01B99"/>
<path d="M50.4653 64.1931L48.075 63.5836C48.061 63.5956 48.0476 63.6107 48.0336 63.6227L50.4238 64.2323C50.4372 64.2172 50.4513 64.2052 50.4653 64.1931Z" fill="#F01B99"/>
<path d="M50.4234 64.2324L48.0331 63.6229C48.0197 63.638 48.0057 63.65 47.9922 63.6651L50.3824 64.2746C50.3959 64.2595 50.4094 64.2444 50.4234 64.2324Z" fill="#F01B99"/>
<path d="M50.3789 64.2752L47.9887 63.6657C47.9753 63.6808 47.9618 63.6959 47.9478 63.7079L50.338 64.3174C50.3515 64.3023 50.3649 64.2872 50.3789 64.2752Z" fill="#F01B99"/>
<path d="M50.3376 64.3175L47.9474 63.7079C47.9339 63.723 47.9204 63.7381 47.907 63.7532L50.2972 64.3628C50.3107 64.3477 50.3241 64.3326 50.3376 64.3175Z" fill="#F01B99"/>
<path d="M50.2972 64.3628L47.907 63.7532C47.8935 63.7683 47.8804 63.7834 47.8709 63.7978L50.2611 64.4073C50.2746 64.3922 50.2877 64.3772 50.2972 64.3628Z" fill="#F01B99"/>
<path d="M50.2611 64.4073L47.8709 63.7978C47.8574 63.8129 47.8481 63.8273 47.8347 63.8424L50.2249 64.4519C50.2383 64.4368 50.2476 64.4224 50.2611 64.4073Z" fill="#F01B99"/>
<path d="M50.2244 64.452L47.8342 63.8425C47.8207 63.8576 47.8112 63.872 47.7983 63.8902L50.1885 64.4997C50.2014 64.4815 50.2109 64.4671 50.2244 64.452Z" fill="#F01B99"/>
<path d="M50.1881 64.4965L47.7979 63.8869C47.7845 63.902 47.7755 63.9195 47.762 63.9346L50.1522 64.5441C50.1657 64.529 50.1791 64.5139 50.1881 64.4965Z" fill="#F01B99"/>
<path d="M50.1569 64.5465L47.7666 63.937C47.7537 63.9551 47.7414 63.9764 47.7285 63.9946L50.1187 64.6041C50.1271 64.5836 50.14 64.5654 50.1569 64.5465Z" fill="#F01B99"/>
<path d="M50.1145 64.6049L47.7242 63.9954C47.7051 64.0241 47.6866 64.056 47.6675 64.0848L50.0578 64.6943C50.0763 64.6625 50.0954 64.6337 50.1145 64.6049Z" fill="#F01B99"/>
<path d="M50.0617 64.6936L47.6715 64.0841C47.6501 64.1228 47.6254 64.1652 47.608 64.2032L49.9982 64.8128C50.0151 64.7717 50.0364 64.733 50.0617 64.6936Z" fill="#F01B99"/>
<path d="M49.9948 64.8134L47.6046 64.2038C47.5894 64.2319 47.5782 64.2593 47.5669 64.2867L49.9571 64.8962C49.9684 64.8688 49.9835 64.8408 49.9948 64.8134Z" fill="#F01B99"/>
<path d="M49.9568 64.8963L47.5666 64.2868C47.5576 64.3043 47.5492 64.3248 47.5407 64.3453L49.931 64.9549C49.9394 64.9343 49.9478 64.9138 49.9568 64.8963Z" fill="#F01B99"/>
<path d="M49.9304 64.9517L47.5402 64.3421C47.5351 64.3589 47.5262 64.3764 47.5211 64.3931L49.9113 65.0027C49.9203 64.9852 49.9254 64.9685 49.9304 64.9517Z" fill="#F01B99"/>
<path d="M49.9113 65.0027L47.5211 64.3931C47.5155 64.4068 47.5103 64.4236 47.5046 64.4373L49.8948 65.0468C49.9005 65.0331 49.9057 65.0164 49.9113 65.0027Z" fill="#F01B99"/>
<path d="M49.8948 65.0468L47.5046 64.4373C47.499 64.4509 47.4937 64.4679 47.4881 64.4815L49.8783 65.0911C49.884 65.0774 49.8898 65.0635 49.8948 65.0468Z" fill="#F01B99"/>
<path d="M49.8832 65.0933L47.493 64.4837C47.488 64.5005 47.4823 64.5142 47.4812 64.5302L49.8714 65.1398C49.8726 65.1237 49.8776 65.107 49.8832 65.0933Z" fill="#F01B99"/>
<path d="M49.8667 65.1376L47.4765 64.528C47.4715 64.5448 47.4697 64.5578 47.4647 64.5745L49.8549 65.1841C49.86 65.1673 49.8617 65.1543 49.8667 65.1376Z" fill="#F01B99"/>
<path d="M49.8546 65.184L47.4643 64.5745C47.4593 64.5912 47.4576 64.6042 47.4525 64.621L49.8427 65.2305C49.8478 65.2137 49.8495 65.2008 49.8546 65.184Z" fill="#F01B99"/>
<path d="M49.8432 65.2305L47.4529 64.6209C47.4479 64.6377 47.4467 64.6537 47.4411 64.6674L49.8313 65.277C49.8369 65.2633 49.8381 65.2472 49.8432 65.2305Z" fill="#F01B99"/>
<path d="M49.8313 65.277L47.4411 64.6674C47.436 64.6842 47.4346 64.7003 47.4334 64.7164L49.8236 65.3259C49.8248 65.3099 49.8302 65.293 49.8313 65.277Z" fill="#F01B99"/>
<path d="M49.824 65.3258L47.4338 64.7163C47.4326 64.7323 47.4276 64.7491 47.4264 64.7652L49.8166 65.3747C49.8178 65.3586 49.8228 65.3419 49.824 65.3258Z" fill="#F01B99"/>
<path d="M49.8162 65.3747L47.426 64.7652C47.4248 64.7813 47.4237 64.7973 47.4225 64.8133L49.8128 65.4229C49.8139 65.4068 49.815 65.3908 49.8162 65.3747Z" fill="#F01B99"/>
<path d="M49.8128 65.4229L47.4225 64.8133C47.4214 64.8294 47.4205 64.8454 47.4193 64.8615L49.8095 65.471C49.8101 65.4519 49.811 65.4359 49.8128 65.4229Z" fill="#F01B99"/>
<path d="M49.8093 65.4679L47.4191 64.8584C47.4179 64.8744 47.4162 64.8874 47.419 64.9028L49.8092 65.5123C49.807 65.5 49.8081 65.484 49.8093 65.4679Z" fill="#F01B99"/>
<path d="M49.8048 65.5131L47.4146 64.9036C47.4134 64.9196 47.4156 64.9319 47.4144 64.948L49.8047 65.5575C49.8064 65.5445 49.8075 65.5285 49.8048 65.5131Z" fill="#F01B99"/>
<path d="M49.8047 65.5575L47.4144 64.948C47.4133 64.964 47.4157 64.9763 47.4145 64.9924L49.8048 65.6019C49.8059 65.5859 49.8074 65.5729 49.8047 65.5575Z" fill="#F01B99"/>
<path d="M49.8088 65.6011L47.4185 64.9915C47.4213 65.0069 47.4196 65.0199 47.4223 65.0352L49.8126 65.6448C49.8098 65.6294 49.8076 65.6172 49.8088 65.6011Z" fill="#F01B99"/>
<path d="M49.8126 65.6448L47.4223 65.0352C47.4251 65.0506 47.4235 65.0636 47.4263 65.0789L49.8165 65.6885C49.8137 65.6731 49.8148 65.6571 49.8126 65.6448Z" fill="#F01B99"/>
<path d="M49.816 65.6854L47.4258 65.0758C47.428 65.0881 47.4302 65.1004 47.433 65.1157L49.8232 65.7253C49.821 65.713 49.8182 65.6977 49.816 65.6854Z" fill="#F01B99"/>
<defs>
<filter id="filter0_f" x="0.396118" y="0.998047" width="128.486" height="141.068" filterUnits="userSpaceOnUse" color-interpolation-filters="sRGB">
<feFlood flood-opacity="0" result="BackgroundImageFix"/>
<feBlend mode="normal" in="SourceGraphic" in2="BackgroundImageFix" result="shape"/>
<feGaussianBlur stdDeviation="11.5" result="effect1_foregroundBlur"/>
</filter>
</defs>
</svg>
