<svg width="51" height="58" viewBox="0 0 51 58" fill="none" xmlns="http://www.w3.org/2000/svg">
<path fill-rule="evenodd" clip-rule="evenodd" d="M25.4999 0L41.1569 8.8839L35.4006 12.1659L25.4999 6.56391L15.5993 12.1659L9.84306 8.8839L25.4999 0ZM15.5993 16.8059L9.84306 20.0878V26.6517L19.7439 32.2537V43.4577L25.4999 46.7397L31.2561 43.4577V32.2537L41.1569 26.6517V20.0878L35.4006 16.8059L25.4999 22.4078L15.5993 16.8059ZM9.84306 31.2918V37.8557L15.5993 41.1378V34.5736L9.84306 31.2918ZM15.6569 45.7775L5.75602 40.1756V28.9717L0 25.6898V43.4577L15.6569 52.3414V45.7775ZM5.75602 17.7678L11.5124 14.4859L5.75602 11.2039L0 14.4859V21.0498L5.75602 24.3318V17.7678ZM31.2561 54.7182V48.1543L25.4999 51.4361L19.7439 48.1543V54.7182L25.4999 58L31.2561 54.7182ZM35.4006 41.1378L41.1569 37.8557V31.2918L35.4006 34.5736V41.1378ZM25.4999 17.7678L31.2561 14.4859L25.4999 11.2039L19.7439 14.4859L25.4999 17.7678ZM39.4876 14.4859L45.2438 17.7678V24.3318L51 21.0498V14.4859L45.2438 11.2039L39.4876 14.4859ZM51 25.6898L45.2438 28.9717V40.1756L35.3431 45.7775V52.3414L51 43.4577V25.6898Z" fill="#F0B90B"/>
</svg>
