<svg width="57" height="57" viewBox="0 0 57 57" fill="none" xmlns="http://www.w3.org/2000/svg">
<path fill-rule="evenodd" clip-rule="evenodd" d="M56.0461 28.0231C56.0461 43.4988 43.4988 56.0461 28.0231 56.0461C12.5473 56.0461 0 43.4988 0 28.0231C0 12.5473 12.5473 0 28.0231 0C43.4988 0 56.0461 12.5473 56.0461 28.0231ZM45.9765 25.8233C46.4296 26.4701 46.6864 27.2338 46.7145 28.0231C46.7267 28.7953 46.52 29.5551 46.1183 30.2147C45.7166 30.8743 45.1363 31.4067 44.4446 31.7501C44.4773 32.1611 44.4773 32.5722 44.4446 32.9832C44.4446 39.2603 37.1306 44.3605 28.1071 44.3605C19.0837 44.3605 11.7697 39.2603 11.7697 32.9832C11.7381 32.5728 11.7381 32.1605 11.7697 31.7501C11.2353 31.5 10.7614 31.1371 10.3807 30.6864C9.99986 30.2357 9.72117 29.7079 9.56375 29.1393C9.40632 28.5706 9.37389 27.9747 9.46869 27.3923C9.56349 26.8099 9.78326 26.255 10.1129 25.7657C10.4426 25.2763 10.8743 24.8642 11.3783 24.5575C11.8824 24.2509 12.4469 24.057 13.033 23.9892C13.6191 23.9215 14.213 23.9815 14.7737 24.165C15.3345 24.3486 15.8488 24.6514 16.2814 25.0526C19.5104 22.8627 23.3093 21.6646 27.2104 21.6058L29.2841 11.8818C29.3074 11.7692 29.3528 11.6624 29.4177 11.5675C29.4826 11.4726 29.5656 11.3915 29.6621 11.3289C29.7585 11.2664 29.8664 11.2236 29.9795 11.203C30.0926 11.1825 30.2087 11.1846 30.321 11.2092L37.1866 12.5824C37.5219 12.0063 38.0515 11.5686 38.6804 11.3479C39.3093 11.1271 39.9963 11.1378 40.6181 11.3779C41.2399 11.618 41.7557 12.0719 42.073 12.658C42.3903 13.2442 42.4882 13.9242 42.3493 14.5761C42.2104 15.228 41.8437 15.809 41.315 16.2149C40.7863 16.6208 40.1302 16.8249 39.4646 16.7906C38.7989 16.7564 38.1673 16.486 37.683 16.028C37.1988 15.5701 36.8936 14.9545 36.8223 14.2918L30.8254 13.0307L29.0039 21.7739C32.8576 21.8566 36.6049 23.0538 39.7928 25.2208C40.2183 24.8116 40.7274 24.4994 41.2851 24.3057C41.8428 24.112 42.4358 24.0414 43.0233 24.0986C43.6109 24.1559 44.1791 24.3397 44.6889 24.6374C45.1987 24.9351 45.6379 25.3396 45.9765 25.8233ZM19.1631 29.2678C18.9586 29.5738 18.8163 29.9172 18.7444 30.2782C18.6726 30.6392 18.6725 31.0109 18.7443 31.372C18.8893 32.1011 19.318 32.7429 19.9361 33.156C20.5542 33.5691 21.3111 33.7197 22.0403 33.5748C22.4013 33.503 22.7447 33.3608 23.0508 33.1563C23.3569 32.9518 23.6197 32.6891 23.8243 32.383C24.2374 31.7649 24.388 31.008 24.2431 30.2788C24.0981 29.5496 23.6694 28.9079 23.0513 28.4948C22.4332 28.0817 21.6763 27.931 20.9471 28.076C20.2179 28.221 19.5762 28.6497 19.1631 29.2678ZM28.0511 40.6895C30.5381 40.7923 32.9855 40.1431 34.9728 38.6438C35.1214 38.4989 35.2064 38.3008 35.209 38.0933C35.2117 37.8857 35.1317 37.6855 34.9868 37.5369C34.915 37.4633 34.8295 37.4046 34.735 37.364C34.6406 37.3235 34.539 37.302 34.4363 37.3007C34.2287 37.298 34.0285 37.378 33.8799 37.5229C32.1792 38.7429 30.113 39.346 28.0231 39.2323C25.9357 39.3256 23.8791 38.7027 22.1943 37.4669C22.0491 37.3477 21.8648 37.2868 21.6771 37.296C21.4895 37.3052 21.3121 37.3839 21.1792 37.5167C21.0464 37.6495 20.9678 37.827 20.9585 38.0146C20.9493 38.2022 21.0102 38.3865 21.1294 38.5317C23.1176 40.03 25.5637 40.7926 28.0511 40.6895ZM32.9108 33.2681C33.3731 33.5763 33.8869 33.8519 34.4404 33.8519C34.8204 33.8563 35.1974 33.7833 35.5484 33.6373C35.8993 33.4914 36.2169 33.2755 36.4817 33.0028C36.7465 32.7301 36.953 32.4064 37.0887 32.0513C37.2243 31.6962 37.2862 31.3173 37.2707 30.9375C37.2705 30.4534 37.1449 29.9777 36.9062 29.5566C36.6675 29.1355 36.3238 28.7834 35.9086 28.5346C35.4933 28.2858 35.0207 28.1489 34.5368 28.137C34.0529 28.1252 33.5742 28.2389 33.1473 28.4671C32.7204 28.6953 32.3599 29.0302 32.1009 29.4392C31.8419 29.8481 31.6933 30.3171 31.6695 30.8006C31.6456 31.2841 31.7475 31.7655 31.965 32.1979C32.1825 32.6303 32.5084 32.999 32.9108 33.2681Z" fill="url(#paint0_linear)"/>
<defs>
<linearGradient id="paint0_linear" x1="23.875" y1="-8.80469" x2="97.875" y2="84.4727" gradientUnits="userSpaceOnUse">
<stop stop-color="white"/>
<stop offset="0.967014" stop-color="#ACACAC"/>
</linearGradient>
</defs>
</svg>
