<svg width="758" height="461" viewBox="0 0 758 461" fill="none" xmlns="http://www.w3.org/2000/svg">
<path d="M169 93L122.272 22H1" stroke="white" stroke-width="2" stroke-linecap="round"/>
<rect y="22" width="48" height="9" fill="white"/>
<path d="M593.857 249.207L639.11 179.976L756.551 179.976" stroke="white" stroke-width="2" stroke-linecap="round"/>
<rect x="709.82" y="179.976" width="47.5966" height="9.51932" fill="white"/>
<g filter="url(#filter0_f)">
<path d="M240.762 71.1964C291.853 62.6476 351.092 71.3796 407.564 95.794C464.037 120.217 510.986 157.392 539.756 200.477C568.534 243.563 575.691 287.406 559.911 323.915C544.13 360.433 507.304 385.255 456.213 393.804C405.123 402.353 345.884 393.621 289.412 369.198C232.939 344.783 185.998 307.608 157.22 264.514C146.555 248.549 138.773 232.3 134.107 216.218L217.042 222.495C219.9 232.334 224.674 242.306 231.231 252.12C267.641 306.642 349.875 342.195 414.53 331.373C479.176 320.552 502.155 267.386 465.745 212.864C429.335 158.341 347.109 122.789 282.455 133.61C271.931 135.375 262.3 138.288 253.818 142.267L194.121 85.3057C207.969 78.8046 223.657 74.0599 240.762 71.1964Z" fill="#005252"/>
</g>
<path d="M278.868 82.6777L258.637 129.332L198.913 72.2915L219.135 25.6372L278.868 82.6777Z" fill="url(#paint0_linear)"/>
<path d="M490.881 153.364C490.181 152.313 489.456 151.263 488.714 150.229C488.506 149.929 488.289 149.637 488.081 149.346C487.497 148.537 486.905 147.737 486.305 146.937C486.114 146.678 485.922 146.428 485.73 146.17C484.955 145.153 484.171 144.153 483.363 143.152C483.204 142.961 483.046 142.761 482.888 142.569C482.221 141.752 481.537 140.935 480.845 140.118C480.595 139.827 480.354 139.543 480.104 139.251C479.378 138.418 478.645 137.584 477.903 136.759C477.761 136.601 477.628 136.451 477.486 136.292C476.611 135.334 475.719 134.375 474.819 133.433C474.577 133.183 474.335 132.933 474.094 132.683C473.385 131.949 472.668 131.224 471.943 130.507C471.685 130.249 471.426 129.991 471.159 129.732C470.218 128.807 469.267 127.89 468.3 126.981C468.284 126.965 468.275 126.956 468.259 126.94C468.159 126.848 468.059 126.756 467.959 126.665C467.175 125.939 466.392 125.214 465.591 124.497C465.291 124.231 464.983 123.964 464.683 123.689C464.058 123.13 463.424 122.58 462.791 122.03C462.457 121.738 462.124 121.455 461.782 121.163C461.14 120.613 460.49 120.071 459.831 119.529C459.523 119.271 459.215 119.013 458.906 118.762C458.031 118.054 457.156 117.345 456.272 116.645C456.18 116.57 456.097 116.504 456.005 116.429C455.022 115.662 454.038 114.903 453.038 114.153C452.738 113.928 452.438 113.703 452.129 113.478C451.421 112.953 450.704 112.427 449.987 111.902C449.629 111.644 449.262 111.385 448.903 111.127C448.212 110.635 447.52 110.152 446.828 109.668C446.478 109.427 446.119 109.177 445.769 108.935C444.961 108.376 444.144 107.835 443.327 107.284C443.135 107.159 442.943 107.026 442.752 106.893C442.71 106.868 442.668 106.834 442.627 106.809C441.593 106.134 440.559 105.459 439.509 104.8C439.259 104.642 439.001 104.484 438.751 104.325C437.95 103.825 437.15 103.325 436.342 102.833C435.967 102.6 435.583 102.375 435.208 102.15C434.508 101.733 433.808 101.316 433.107 100.908C432.699 100.674 432.291 100.433 431.882 100.199C431.182 99.799 430.473 99.3989 429.765 98.9988C429.373 98.7821 428.981 98.557 428.581 98.3403C427.781 97.8985 426.972 97.4651 426.164 97.0316C425.864 96.8732 425.572 96.7148 425.272 96.5565C424.172 95.973 423.063 95.3978 421.946 94.831C421.704 94.706 421.471 94.5893 421.229 94.4726C420.346 94.0308 419.462 93.589 418.579 93.1556C418.187 92.9638 417.787 92.7804 417.395 92.5887C416.653 92.2303 415.903 91.8802 415.161 91.5301C414.961 91.4384 414.761 91.3384 414.552 91.2467C414.369 91.1633 414.186 91.0883 414.011 91.005C412.744 90.4215 411.468 89.8547 410.193 89.2962C410.093 89.2545 409.993 89.2045 409.893 89.1628C408.526 88.571 407.159 87.9958 405.783 87.4373C405.433 87.2956 405.083 87.1539 404.733 87.0122C403.474 86.5037 402.216 86.0119 400.949 85.5285C400.807 85.4701 400.657 85.4118 400.515 85.3618C399.132 84.8366 397.74 84.3282 396.348 83.828C395.997 83.703 395.639 83.578 395.289 83.4529C394.047 83.0195 392.797 82.586 391.546 82.1776C391.363 82.1192 391.18 82.0525 390.996 81.9942C389.596 81.5357 388.195 81.094 386.787 80.6688C386.437 80.5605 386.086 80.4604 385.728 80.3521C384.486 79.9853 383.252 79.6185 382.002 79.2768C381.794 79.2184 381.577 79.1517 381.368 79.0934C379.96 78.7016 378.543 78.3349 377.126 77.9764C376.984 77.9431 376.842 77.9014 376.701 77.8597C376.467 77.8014 376.234 77.7514 376 77.693C375.008 77.4513 374.016 77.2096 373.025 76.9762C372.658 76.8928 372.291 76.8011 371.924 76.7178C370.616 76.4177 369.299 76.1343 367.982 75.8675C367.806 75.8342 367.64 75.8008 367.465 75.7675C366.314 75.5341 365.156 75.3091 364.005 75.1007C363.605 75.0256 363.214 74.959 362.813 74.8839C361.805 74.7089 360.796 74.5339 359.788 74.3755C359.446 74.3171 359.104 74.2588 358.771 74.2088C357.462 74.0004 356.153 73.817 354.836 73.6336C354.586 73.6003 354.328 73.5669 354.078 73.5336C353.002 73.3919 351.927 73.2668 350.852 73.1418C350.452 73.1001 350.052 73.0501 349.652 73.0084C348.618 72.9001 347.584 72.8 346.559 72.7084C346.259 72.6834 345.959 72.65 345.659 72.625C344.358 72.5166 343.058 72.4249 341.766 72.3416C341.458 72.3249 341.158 72.3082 340.849 72.2916C339.832 72.2332 338.807 72.1915 337.79 72.1499C337.398 72.1332 336.998 72.1249 336.606 72.1082C335.531 72.0749 334.464 72.0498 333.397 72.0415C333.164 72.0415 332.922 72.0332 332.689 72.0332C331.405 72.0248 330.121 72.0332 328.846 72.0582C328.512 72.0665 328.179 72.0749 327.846 72.0832C326.87 72.1082 325.895 72.1415 324.92 72.1832C324.536 72.1999 324.153 72.2166 323.77 72.2332C322.636 72.2916 321.511 72.3583 320.385 72.4416C320.244 72.4499 320.094 72.4583 319.952 72.4666C318.693 72.5666 317.443 72.675 316.192 72.8084C315.842 72.8417 315.492 72.8834 315.142 72.9251C314.2 73.0251 313.258 73.1418 312.325 73.2668C311.958 73.3168 311.6 73.3585 311.233 73.4085C309.991 73.5836 308.757 73.767 307.532 73.967C306.315 74.1671 305.106 74.3921 303.914 74.6255C303.531 74.7006 303.156 74.7839 302.772 74.8589C301.955 75.0256 301.147 75.2007 300.347 75.3841C299.913 75.4841 299.48 75.5841 299.055 75.6841C298.304 75.8675 297.562 76.0509 296.821 76.2426C296.395 76.351 295.97 76.4594 295.554 76.5761C295.32 76.6427 295.078 76.7011 294.845 76.7594C294.52 76.8511 294.212 76.9512 293.886 77.0428C293.061 77.2846 292.236 77.5263 291.427 77.7764C290.919 77.9348 290.411 78.1015 289.91 78.2682C289.11 78.5349 288.31 78.81 287.526 79.0934C287.051 79.2601 286.568 79.4352 286.101 79.6102C285.259 79.927 284.434 80.2521 283.609 80.5855C283.217 80.7439 282.817 80.8939 282.425 81.0606C281.233 81.5607 280.058 82.0775 278.899 82.6194C278.891 82.6194 278.891 82.6194 278.882 82.6277L258.66 129.282C259.819 128.74 260.994 128.215 262.195 127.715C262.586 127.548 262.986 127.398 263.378 127.24C264.195 126.906 265.029 126.581 265.862 126.265C266.337 126.089 266.812 125.923 267.288 125.748C268.079 125.464 268.871 125.189 269.672 124.922C270.172 124.756 270.68 124.597 271.189 124.431C271.997 124.172 272.822 123.931 273.648 123.697C274.206 123.539 274.756 123.372 275.315 123.222C275.732 123.105 276.157 122.997 276.582 122.889C277.324 122.697 278.066 122.514 278.816 122.33C279.249 122.23 279.674 122.122 280.108 122.03C280.908 121.847 281.716 121.68 282.533 121.505C282.917 121.43 283.292 121.347 283.675 121.271C284.867 121.038 286.076 120.813 287.293 120.613C288.518 120.405 289.76 120.221 290.994 120.055C291.352 120.004 291.719 119.954 292.078 119.913C293.011 119.788 293.953 119.679 294.903 119.571C295.254 119.529 295.604 119.496 295.954 119.454C297.204 119.329 298.454 119.213 299.713 119.113C299.855 119.104 300.005 119.096 300.146 119.088C301.272 119.004 302.405 118.938 303.531 118.879C303.914 118.863 304.298 118.846 304.681 118.829C305.656 118.787 306.632 118.754 307.607 118.729C307.94 118.721 308.274 118.712 308.607 118.704C309.882 118.679 311.166 118.671 312.45 118.679C312.683 118.679 312.925 118.687 313.158 118.687C314.225 118.696 315.301 118.721 316.368 118.754C316.759 118.762 317.159 118.779 317.551 118.796C318.568 118.837 319.593 118.879 320.61 118.938C320.91 118.954 321.219 118.971 321.519 118.988C322.819 119.063 324.12 119.163 325.42 119.271C325.72 119.296 326.012 119.329 326.312 119.354C327.346 119.446 328.379 119.546 329.413 119.654C329.813 119.696 330.213 119.738 330.613 119.788C331.688 119.904 332.764 120.038 333.839 120.18C334.089 120.213 334.347 120.238 334.597 120.28C335.906 120.455 337.223 120.646 338.532 120.855C338.865 120.905 339.207 120.963 339.54 121.021C340.549 121.188 341.566 121.355 342.575 121.538C342.975 121.605 343.367 121.68 343.767 121.755C344.917 121.963 346.076 122.188 347.226 122.422C347.401 122.455 347.568 122.488 347.743 122.522C349.06 122.789 350.368 123.08 351.685 123.372C352.052 123.455 352.411 123.539 352.777 123.622C353.769 123.856 354.77 124.089 355.762 124.339C356.137 124.431 356.512 124.522 356.887 124.622C358.304 124.981 359.713 125.356 361.13 125.739C361.346 125.798 361.555 125.864 361.771 125.923C363.013 126.273 364.256 126.631 365.489 126.998C365.839 127.106 366.189 127.206 366.548 127.315C367.957 127.74 369.357 128.182 370.757 128.64C370.941 128.698 371.116 128.765 371.299 128.824C372.558 129.24 373.808 129.665 375.05 130.107C375.4 130.232 375.75 130.357 376.109 130.482C377.501 130.982 378.893 131.491 380.277 132.016C380.418 132.066 380.56 132.124 380.702 132.183C381.969 132.666 383.236 133.166 384.494 133.675C384.844 133.817 385.186 133.958 385.536 134.1C386.912 134.667 388.287 135.234 389.654 135.825C389.754 135.867 389.846 135.909 389.946 135.95C391.23 136.509 392.505 137.084 393.78 137.668C394.164 137.843 394.539 138.018 394.922 138.193C395.672 138.543 396.423 138.893 397.164 139.251C397.556 139.443 397.956 139.626 398.348 139.818C399.24 140.252 400.124 140.693 401.015 141.135C401.249 141.252 401.482 141.369 401.724 141.485C402.841 142.052 403.95 142.627 405.05 143.211C405.35 143.369 405.642 143.528 405.933 143.686C406.742 144.119 407.551 144.553 408.351 144.995C408.743 145.211 409.134 145.428 409.526 145.653C410.235 146.053 410.943 146.453 411.643 146.853C412.052 147.087 412.452 147.32 412.86 147.554C413.569 147.962 414.269 148.379 414.969 148.804C415.344 149.029 415.728 149.254 416.103 149.487C416.911 149.979 417.712 150.479 418.512 150.98C418.762 151.138 419.02 151.296 419.27 151.455C420.321 152.113 421.354 152.788 422.388 153.464C422.621 153.622 422.855 153.78 423.096 153.939C423.913 154.48 424.73 155.031 425.539 155.581C425.897 155.823 426.247 156.073 426.606 156.323C427.298 156.806 427.989 157.29 428.681 157.781C429.048 158.04 429.406 158.298 429.773 158.565C430.49 159.082 431.199 159.607 431.907 160.132C432.207 160.357 432.516 160.582 432.816 160.807C433.816 161.557 434.8 162.316 435.775 163.083C435.875 163.158 435.967 163.241 436.067 163.316C436.942 164.008 437.817 164.708 438.684 165.408C439.001 165.667 439.309 165.925 439.618 166.184C440.268 166.725 440.918 167.267 441.56 167.809C441.893 168.093 442.235 168.384 442.568 168.676C443.202 169.226 443.835 169.776 444.461 170.335C444.761 170.602 445.069 170.868 445.369 171.143C446.161 171.86 446.953 172.585 447.736 173.311C447.853 173.419 447.962 173.519 448.078 173.627C449.045 174.536 449.995 175.453 450.937 176.378C451.196 176.636 451.462 176.895 451.721 177.153C452.446 177.878 453.163 178.604 453.871 179.329C454.113 179.579 454.355 179.829 454.597 180.079C455.497 181.029 456.397 181.98 457.272 182.938C457.414 183.088 457.547 183.247 457.681 183.397C458.423 184.222 459.156 185.055 459.881 185.889C460.131 186.181 460.382 186.464 460.623 186.756C461.307 187.564 461.99 188.373 462.657 189.198C462.816 189.398 462.982 189.59 463.141 189.79C463.949 190.79 464.733 191.791 465.508 192.808C465.7 193.058 465.891 193.316 466.083 193.566C466.683 194.366 467.275 195.166 467.859 195.975C468.075 196.267 468.284 196.567 468.492 196.859C469.226 197.901 469.959 198.943 470.659 199.993C481.487 216.222 487.064 232.335 487.864 247.247C487.947 248.814 487.981 250.373 487.956 251.915C487.897 255.766 487.522 259.534 486.814 263.185C486.672 263.918 486.522 264.644 486.355 265.361C485.522 268.97 484.38 272.462 482.921 275.822L503.143 229.167C512.471 207.695 509.12 180.704 490.881 153.364Z" fill="url(#paint1_linear)"/>
<path d="M225.663 159.366C225.763 159.174 225.863 158.974 225.971 158.782C226.33 158.124 226.688 157.473 227.072 156.832C227.08 156.823 227.08 156.815 227.088 156.807C227.463 156.173 227.855 155.548 228.255 154.931C228.38 154.739 228.505 154.556 228.622 154.364C228.93 153.897 229.239 153.439 229.556 152.981C229.681 152.797 229.806 152.614 229.939 152.439C230.381 151.83 230.823 151.222 231.289 150.622C231.815 149.938 232.356 149.263 232.915 148.596C233.082 148.396 233.265 148.204 233.432 148.004C233.832 147.546 234.224 147.079 234.64 146.629C234.874 146.379 235.107 146.129 235.349 145.887C235.716 145.495 236.082 145.103 236.466 144.72C236.724 144.453 236.999 144.195 237.274 143.936C237.641 143.578 238.008 143.22 238.383 142.861C238.666 142.594 238.967 142.336 239.258 142.069C239.633 141.728 240.008 141.394 240.392 141.061C240.7 140.794 241.017 140.536 241.326 140.277C241.709 139.96 242.092 139.635 242.484 139.319C242.809 139.06 243.143 138.802 243.476 138.543C243.876 138.235 244.268 137.935 244.676 137.635C245.018 137.385 245.368 137.135 245.718 136.885C246.127 136.593 246.535 136.301 246.952 136.009C247.41 135.693 247.877 135.384 248.344 135.076C248.578 134.926 248.803 134.776 249.036 134.626C249.761 134.159 250.495 133.7 251.245 133.259L271.467 86.6042C270.717 87.0544 269.983 87.5045 269.258 87.9713C269.025 88.1213 268.8 88.2714 268.566 88.4214C268.225 88.6465 267.874 88.8632 267.541 89.0883C267.416 89.1716 267.299 89.2633 267.174 89.3467C266.757 89.6301 266.341 89.9301 265.932 90.2219C265.582 90.472 265.232 90.722 264.89 90.9721C264.482 91.2722 264.09 91.5806 263.69 91.889C263.356 92.1474 263.023 92.3975 262.698 92.6642C262.306 92.981 261.923 93.2977 261.539 93.6228C261.223 93.8812 260.906 94.148 260.597 94.4147C260.214 94.7481 259.847 95.0816 259.472 95.4233C259.18 95.6901 258.88 95.9485 258.589 96.2235C258.213 96.5736 257.847 96.9404 257.48 97.2988C257.213 97.5572 256.938 97.8156 256.68 98.0823C256.296 98.4658 255.929 98.8576 255.563 99.2577C255.329 99.5077 255.088 99.7495 254.863 99.9995C254.454 100.45 254.054 100.908 253.662 101.367C253.487 101.567 253.312 101.767 253.137 101.967C252.579 102.634 252.037 103.309 251.512 103.992L251.503 104.001C251.045 104.601 250.595 105.201 250.161 105.809C250.036 105.993 249.911 106.168 249.778 106.351C249.461 106.81 249.144 107.268 248.836 107.735C248.711 107.918 248.586 108.11 248.469 108.293C248.069 108.91 247.677 109.535 247.302 110.169C247.294 110.177 247.285 110.194 247.285 110.202C246.902 110.844 246.544 111.494 246.185 112.153C246.077 112.345 245.977 112.545 245.877 112.736C245.618 113.228 245.368 113.72 245.127 114.212C245.027 114.412 244.935 114.604 244.835 114.804C244.51 115.479 244.201 116.146 243.901 116.829L223.679 163.483C223.971 162.8 224.288 162.125 224.604 161.458C224.696 161.258 224.796 161.058 224.896 160.866C225.154 160.341 225.405 159.849 225.663 159.366Z" fill="#670D42"/>
<path d="M240.217 155.231L219.986 201.885L135.822 190.632L156.052 143.969L240.217 155.231Z" fill="#7D084D"/>
<path d="M207.016 32.0559L271.467 86.5874C246.218 101.608 234.832 126.623 240.216 155.223L156.052 143.97C147.266 97.3403 165.838 56.5542 207.016 32.0559Z" fill="url(#paint2_linear)"/>
<g filter="url(#filter1_f)">
<path d="M183.1 93.1993L247.551 147.731C222.302 162.752 210.916 187.767 216.301 216.366L132.136 205.113C123.351 158.484 141.922 117.698 183.1 93.1993Z" fill="#D50C82"/>
</g>
<path d="M155.261 143.559L135.038 190.213C130.771 167.557 132.963 146.268 141.065 127.571L161.287 80.917C153.185 99.6221 150.984 120.903 155.261 143.559Z" fill="#63033C"/>
<path d="M555.943 327.502C555.977 327.444 556.018 327.394 556.052 327.336C556.66 326.435 557.244 325.535 557.819 324.618C558.019 324.301 558.211 323.985 558.402 323.668C558.811 323.001 559.211 322.334 559.603 321.659C559.819 321.292 560.028 320.917 560.236 320.55C560.603 319.909 560.953 319.258 561.303 318.6C561.503 318.225 561.703 317.85 561.903 317.466C562.262 316.766 562.612 316.066 562.962 315.357C563.12 315.024 563.287 314.699 563.445 314.365C563.937 313.324 564.421 312.282 564.871 311.223L585.093 264.569C584.634 265.627 584.159 266.678 583.668 267.711C583.509 268.045 583.342 268.37 583.184 268.703C582.842 269.412 582.492 270.112 582.125 270.812C581.925 271.187 581.725 271.571 581.525 271.946C581.175 272.596 580.825 273.246 580.458 273.888C580.25 274.263 580.042 274.63 579.825 275.005C579.433 275.68 579.033 276.347 578.625 277.005C578.433 277.322 578.241 277.647 578.041 277.964C577.466 278.881 576.874 279.789 576.266 280.69C576.232 280.74 576.199 280.79 576.166 280.848C575.524 281.798 574.857 282.732 574.182 283.666C573.965 283.957 573.748 284.241 573.531 284.532C573.09 285.133 572.631 285.724 572.173 286.316C571.606 287.041 571.031 287.75 570.447 288.458C570.164 288.8 569.897 289.142 569.614 289.475C568.739 290.509 567.847 291.534 566.921 292.543C566.913 292.551 566.913 292.551 566.905 292.56C565.988 293.56 565.046 294.543 564.087 295.51C563.771 295.827 563.445 296.136 563.129 296.452C562.462 297.102 561.795 297.761 561.12 298.394C560.736 298.753 560.345 299.111 559.953 299.47C559.311 300.053 558.669 300.637 558.011 301.204C557.594 301.562 557.177 301.929 556.752 302.279C556.085 302.837 555.418 303.396 554.735 303.946C554.31 304.288 553.885 304.63 553.459 304.963C552.726 305.538 551.984 306.097 551.234 306.655C550.842 306.947 550.45 307.247 550.058 307.539C549.091 308.239 548.108 308.931 547.108 309.614C546.908 309.748 546.724 309.889 546.524 310.023C546.424 310.089 546.324 310.156 546.224 310.223C545.332 310.823 544.432 311.406 543.523 311.99C543.232 312.173 542.94 312.357 542.648 312.54C541.831 313.048 540.998 313.557 540.164 314.049C539.939 314.182 539.722 314.315 539.506 314.44C538.472 315.049 537.422 315.641 536.355 316.224C536.105 316.366 535.846 316.499 535.588 316.641C534.738 317.1 533.879 317.558 533.012 318C532.704 318.158 532.387 318.325 532.079 318.483C530.995 319.033 529.903 319.575 528.786 320.1C528.761 320.109 528.744 320.125 528.719 320.134C527.586 320.667 526.444 321.192 525.285 321.709C524.96 321.851 524.626 322.001 524.301 322.143C523.393 322.543 522.468 322.934 521.542 323.31C521.251 323.426 520.967 323.551 520.675 323.668C519.492 324.151 518.3 324.618 517.091 325.077C516.849 325.168 516.599 325.26 516.349 325.352C515.357 325.719 514.349 326.085 513.34 326.444C512.982 326.569 512.623 326.694 512.265 326.819C511.156 327.202 510.048 327.569 508.922 327.927C508.772 327.977 508.614 328.028 508.464 328.078C507.197 328.478 505.913 328.869 504.621 329.253C504.271 329.353 503.921 329.453 503.571 329.553C502.746 329.786 501.912 330.02 501.079 330.245C500.145 330.503 499.195 330.745 498.244 330.987C497.586 331.153 496.936 331.32 496.277 331.487C495.294 331.729 494.293 331.962 493.301 332.187C492.668 332.329 492.034 332.479 491.393 332.62C490.292 332.862 489.175 333.087 488.058 333.312C487.508 333.421 486.966 333.537 486.416 333.646C484.741 333.971 483.057 334.271 481.348 334.563C479.923 334.804 478.497 335.021 477.064 335.229C476.689 335.288 476.313 335.338 475.938 335.396C474.655 335.58 473.363 335.755 472.062 335.913C471.896 335.93 471.729 335.955 471.562 335.98C470.12 336.155 468.678 336.313 467.228 336.463C466.853 336.505 466.486 336.538 466.111 336.571C464.877 336.697 463.643 336.805 462.41 336.905C462.143 336.93 461.868 336.955 461.601 336.972C460.142 337.088 458.684 337.188 457.217 337.28C456.867 337.305 456.508 337.322 456.158 337.338C454.941 337.405 453.716 337.472 452.482 337.522C452.149 337.538 451.815 337.555 451.482 337.563C450.006 337.622 448.523 337.663 447.039 337.697C446.722 337.705 446.397 337.705 446.08 337.713C444.838 337.738 443.588 337.747 442.338 337.747C441.962 337.747 441.596 337.747 441.221 337.747C439.72 337.747 438.211 337.73 436.703 337.705C436.453 337.697 436.203 337.688 435.953 337.688C434.652 337.663 433.344 337.622 432.035 337.58C431.635 337.563 431.243 337.555 430.843 337.538C429.317 337.48 427.784 337.405 426.25 337.322C426.125 337.313 426 337.305 425.875 337.297C424.449 337.213 423.016 337.122 421.59 337.013C421.182 336.98 420.773 336.955 420.365 336.922C418.89 336.805 417.414 336.688 415.939 336.546C415.855 336.538 415.78 336.53 415.697 336.521C414.147 336.38 412.596 336.213 411.037 336.046C410.629 336.005 410.221 335.955 409.804 335.905C408.453 335.746 407.095 335.588 405.744 335.413C405.511 335.38 405.278 335.354 405.044 335.329C403.494 335.129 401.943 334.913 400.385 334.679C399.984 334.621 399.593 334.563 399.193 334.504C397.884 334.313 396.584 334.104 395.275 333.887C394.958 333.837 394.65 333.787 394.333 333.737C392.774 333.479 391.215 333.204 389.657 332.921C389.29 332.854 388.923 332.787 388.565 332.72C387.273 332.479 385.972 332.229 384.68 331.979C384.314 331.904 383.938 331.837 383.572 331.762C382.005 331.445 380.446 331.12 378.879 330.778C378.562 330.712 378.254 330.637 377.937 330.57C376.62 330.278 375.294 329.978 373.969 329.67C373.569 329.578 373.169 329.486 372.777 329.386C371.227 329.019 369.668 328.636 368.109 328.244C366.059 327.727 364.008 327.186 361.966 326.627C361.391 326.469 360.816 326.302 360.249 326.144C358.748 325.727 357.256 325.302 355.756 324.86C355.047 324.652 354.339 324.443 353.639 324.226C352.213 323.801 350.779 323.36 349.354 322.909C348.696 322.701 348.037 322.501 347.379 322.284C345.536 321.692 343.694 321.084 341.852 320.459C341.644 320.384 341.435 320.317 341.219 320.25C339.168 319.55 337.126 318.825 335.075 318.091C334.467 317.875 333.867 317.641 333.258 317.425C331.799 316.883 330.332 316.341 328.874 315.783C328.173 315.516 327.465 315.241 326.765 314.966C325.331 314.407 323.897 313.832 322.463 313.257C321.83 312.998 321.196 312.748 320.563 312.49C318.529 311.656 316.495 310.798 314.461 309.923C312.069 308.889 309.71 307.822 307.351 306.747C306.693 306.447 306.042 306.147 305.392 305.846C304.209 305.296 303.033 304.738 301.858 304.171C301.149 303.829 300.433 303.496 299.724 303.146C298.449 302.521 297.173 301.887 295.906 301.254C295.323 300.962 294.731 300.67 294.156 300.378C292.322 299.445 290.488 298.495 288.679 297.536C288.546 297.469 288.421 297.394 288.288 297.319C286.604 296.427 284.937 295.519 283.278 294.602C282.686 294.277 282.094 293.935 281.502 293.602C280.31 292.935 279.118 292.259 277.935 291.576C277.26 291.184 276.584 290.792 275.917 290.401C274.826 289.759 273.734 289.117 272.65 288.467C271.966 288.058 271.283 287.642 270.599 287.225C269.524 286.566 268.449 285.899 267.382 285.233C266.732 284.824 266.073 284.416 265.423 284.007C264.281 283.282 263.139 282.549 262.014 281.807C261.472 281.448 260.922 281.098 260.372 280.74C258.655 279.606 256.946 278.456 255.254 277.297C254.987 277.114 254.728 276.93 254.462 276.739C253.036 275.755 251.628 274.763 250.227 273.763C249.669 273.363 249.119 272.963 248.56 272.554C247.443 271.746 246.343 270.937 245.243 270.112C244.651 269.67 244.059 269.228 243.475 268.786C242.383 267.961 241.308 267.136 240.233 266.302C239.699 265.886 239.158 265.469 238.624 265.052C237.307 264.019 236.007 262.968 234.723 261.918C234.456 261.701 234.19 261.493 233.931 261.276C232.389 260.009 230.864 258.734 229.355 257.442C228.921 257.075 228.505 256.7 228.071 256.333C226.996 255.4 225.921 254.466 224.862 253.516C224.337 253.049 223.812 252.574 223.295 252.107C222.328 251.232 221.361 250.348 220.411 249.465C219.777 248.881 219.144 248.289 218.519 247.697C218.202 247.397 217.885 247.097 217.568 246.797C216.535 245.814 215.51 244.822 214.493 243.821C214.401 243.73 214.309 243.646 214.226 243.555C213.134 242.479 212.059 241.387 210.983 240.295C210.692 239.995 210.4 239.695 210.116 239.404C209.274 238.528 208.433 237.653 207.599 236.778C207.349 236.519 207.099 236.253 206.857 235.994C205.824 234.894 204.807 233.785 203.798 232.677C203.59 232.443 203.381 232.21 203.173 231.985C202.348 231.068 201.539 230.151 200.739 229.234C200.464 228.917 200.18 228.601 199.905 228.275C198.963 227.184 198.03 226.092 197.121 225C197.08 224.95 197.038 224.9 196.996 224.85C196.046 223.708 195.104 222.549 194.179 221.399C193.92 221.082 193.67 220.757 193.412 220.44C192.678 219.515 191.953 218.581 191.228 217.648C191.02 217.381 190.811 217.114 190.611 216.847C189.728 215.689 188.852 214.522 187.994 213.346C187.802 213.088 187.619 212.83 187.427 212.571C186.735 211.621 186.051 210.662 185.376 209.704C185.143 209.37 184.91 209.037 184.676 208.704C183.843 207.512 183.026 206.311 182.217 205.111C171.548 189.123 163.762 172.852 159.094 156.748L138.872 203.402C143.54 219.498 151.325 235.778 161.995 251.765C162.795 252.966 163.62 254.166 164.454 255.358C164.687 255.691 164.921 256.025 165.154 256.358C165.829 257.317 166.513 258.267 167.205 259.226C167.396 259.484 167.58 259.742 167.772 260.009C168.63 261.176 169.505 262.343 170.389 263.51C170.597 263.777 170.806 264.044 171.014 264.319C171.731 265.252 172.456 266.177 173.19 267.103C173.44 267.419 173.698 267.745 173.957 268.061C174.882 269.22 175.824 270.37 176.774 271.512C176.816 271.562 176.866 271.621 176.907 271.671C177.824 272.763 178.75 273.855 179.691 274.938C179.967 275.255 180.242 275.58 180.525 275.897C181.325 276.822 182.142 277.739 182.959 278.647C183.167 278.881 183.376 279.114 183.584 279.339C184.593 280.448 185.61 281.557 186.643 282.657C186.893 282.924 187.143 283.19 187.394 283.449C188.219 284.324 189.061 285.199 189.903 286.066C190.194 286.366 190.486 286.666 190.778 286.966C191.845 288.058 192.92 289.142 194.012 290.217C194.104 290.309 194.195 290.401 194.287 290.492C195.296 291.484 196.321 292.476 197.355 293.46C197.671 293.76 197.988 294.06 198.305 294.36C198.63 294.668 198.955 294.977 199.28 295.285C199.58 295.569 199.897 295.844 200.197 296.127C201.147 297.011 202.114 297.894 203.081 298.77C203.606 299.245 204.123 299.712 204.648 300.187C205.707 301.129 206.782 302.07 207.857 303.004C208.283 303.371 208.708 303.746 209.141 304.113C210.65 305.405 212.175 306.68 213.717 307.947C213.984 308.164 214.251 308.372 214.518 308.589C215.81 309.639 217.11 310.681 218.419 311.723C218.952 312.14 219.494 312.557 220.027 312.973C221.103 313.807 222.178 314.641 223.27 315.466C223.853 315.908 224.445 316.349 225.037 316.791C226.137 317.608 227.246 318.425 228.355 319.233C228.905 319.634 229.463 320.042 230.022 320.442C231.422 321.442 232.831 322.434 234.256 323.418C234.523 323.601 234.79 323.793 235.056 323.976C236.749 325.135 238.449 326.285 240.175 327.419C240.291 327.494 240.4 327.569 240.516 327.644C240.941 327.927 241.383 328.203 241.817 328.478C242.95 329.22 244.084 329.953 245.234 330.678C245.884 331.087 246.535 331.495 247.185 331.904C248.252 332.57 249.327 333.237 250.411 333.896C251.094 334.313 251.769 334.721 252.461 335.138C253.545 335.788 254.637 336.438 255.737 337.08C256.412 337.472 257.079 337.863 257.754 338.255C258.938 338.939 260.13 339.614 261.322 340.281C261.914 340.614 262.497 340.948 263.089 341.273C264.765 342.198 266.448 343.115 268.14 344.015C268.257 344.082 268.374 344.14 268.491 344.207C270.308 345.165 272.133 346.116 273.975 347.049C274.55 347.341 275.142 347.633 275.717 347.925C276.984 348.558 278.26 349.2 279.544 349.817C280.252 350.158 280.961 350.5 281.661 350.834C282.836 351.401 284.02 351.959 285.212 352.509C285.57 352.676 285.92 352.851 286.279 353.018C286.57 353.151 286.871 353.276 287.162 353.409C289.521 354.493 291.889 355.552 294.272 356.594C296.298 357.469 298.332 358.327 300.374 359.161C301.008 359.419 301.641 359.678 302.275 359.928C303.708 360.511 305.142 361.078 306.576 361.637C307.284 361.912 307.985 362.187 308.693 362.454C310.152 363.012 311.611 363.554 313.069 364.096C313.678 364.321 314.286 364.546 314.895 364.771C316.937 365.513 318.988 366.238 321.03 366.93C321.238 367.005 321.447 367.071 321.663 367.138C323.505 367.763 325.348 368.372 327.19 368.964C327.848 369.172 328.515 369.38 329.174 369.589C330.599 370.039 332.024 370.481 333.458 370.906C334.167 371.114 334.875 371.331 335.575 371.539C337.076 371.981 338.568 372.406 340.068 372.823C340.643 372.981 341.21 373.148 341.785 373.306C343.836 373.865 345.886 374.407 347.937 374.924C347.995 374.94 348.045 374.957 348.104 374.965C349.604 375.34 351.105 375.707 352.597 376.065C352.997 376.157 353.397 376.249 353.797 376.349C355.122 376.657 356.448 376.957 357.765 377.249C358.073 377.316 358.382 377.391 358.69 377.458C360.257 377.799 361.824 378.124 363.383 378.441C363.75 378.516 364.125 378.591 364.492 378.658C365.792 378.916 367.084 379.166 368.384 379.408C368.743 379.475 369.109 379.541 369.468 379.608C371.027 379.892 372.594 380.167 374.152 380.425C374.469 380.475 374.778 380.525 375.094 380.575C376.403 380.792 377.712 380.992 379.02 381.192C379.412 381.25 379.804 381.309 380.204 381.367C381.763 381.592 383.313 381.809 384.872 382.017C385.097 382.05 385.33 382.076 385.556 382.101C386.914 382.276 388.281 382.442 389.632 382.592C390.04 382.642 390.449 382.684 390.849 382.734C392.407 382.909 393.958 383.067 395.508 383.209C395.592 383.217 395.667 383.226 395.75 383.234C397.234 383.367 398.709 383.493 400.176 383.609C400.585 383.643 400.993 383.668 401.402 383.701C402.827 383.809 404.252 383.901 405.678 383.984C405.811 383.993 405.936 384.001 406.069 384.009C407.603 384.093 409.129 384.168 410.654 384.226C411.054 384.243 411.454 384.259 411.854 384.268C413.163 384.318 414.463 384.351 415.764 384.376C416.014 384.384 416.264 384.393 416.522 384.393C418.031 384.418 419.531 384.434 421.032 384.434C421.407 384.434 421.782 384.434 422.149 384.434C423.399 384.434 424.641 384.418 425.883 384.401C426.2 384.393 426.525 384.393 426.842 384.384C428.326 384.351 429.809 384.309 431.285 384.251C431.618 384.234 431.951 384.226 432.285 384.209C433.51 384.159 434.736 384.093 435.953 384.026C436.311 384.009 436.661 383.984 437.019 383.968C438.487 383.876 439.945 383.776 441.404 383.659C441.679 383.634 441.946 383.609 442.221 383.593C443.455 383.493 444.688 383.376 445.914 383.259C446.289 383.226 446.664 383.184 447.039 383.151C448.489 383.001 449.931 382.842 451.373 382.667C451.54 382.651 451.715 382.626 451.882 382.601C453.174 382.442 454.466 382.267 455.75 382.084C456.125 382.034 456.5 381.975 456.875 381.917C458.309 381.709 459.742 381.484 461.159 381.25C462.868 380.967 464.552 380.658 466.227 380.333C466.778 380.225 467.319 380.108 467.861 380C468.978 379.775 470.095 379.55 471.204 379.308C471.846 379.166 472.471 379.025 473.104 378.875C474.105 378.65 475.105 378.416 476.088 378.174C476.747 378.016 477.397 377.849 478.056 377.683C479.006 377.441 479.948 377.191 480.89 376.932C481.223 376.841 481.557 376.757 481.89 376.666C482.39 376.524 482.882 376.382 483.374 376.241C483.724 376.141 484.074 376.041 484.424 375.94C485.716 375.557 487 375.174 488.267 374.765C488.425 374.715 488.575 374.665 488.725 374.615C489.85 374.257 490.959 373.882 492.059 373.507C492.418 373.381 492.776 373.256 493.135 373.131C494.143 372.773 495.144 372.415 496.144 372.039C496.394 371.948 496.644 371.856 496.886 371.764C498.094 371.306 499.286 370.839 500.47 370.356C500.762 370.239 501.054 370.114 501.337 369.997C502.262 369.614 503.187 369.222 504.096 368.83C504.421 368.689 504.755 368.547 505.08 368.397C506.238 367.88 507.38 367.363 508.514 366.83C508.539 366.821 508.564 366.805 508.581 366.796C509.689 366.271 510.781 365.729 511.865 365.179C512.182 365.021 512.49 364.863 512.807 364.696C513.674 364.246 514.532 363.796 515.374 363.337C515.632 363.195 515.891 363.062 516.141 362.92C517.2 362.337 518.25 361.737 519.292 361.136C519.517 361.003 519.734 360.87 519.95 360.745C520.784 360.245 521.617 359.744 522.434 359.236C522.726 359.053 523.018 358.869 523.31 358.686C524.218 358.111 525.127 357.519 526.01 356.919C526.11 356.852 526.21 356.785 526.31 356.719C526.335 356.702 526.36 356.685 526.385 356.669C526.56 356.552 526.719 356.427 526.894 356.31C527.886 355.627 528.878 354.943 529.845 354.235C530.245 353.943 530.628 353.651 531.02 353.351C531.77 352.793 532.512 352.234 533.246 351.659C533.679 351.325 534.096 350.984 534.521 350.642C535.204 350.092 535.88 349.542 536.538 348.975C536.963 348.616 537.38 348.258 537.797 347.9C538.455 347.324 539.105 346.749 539.747 346.166C540.139 345.807 540.531 345.457 540.914 345.099C541.598 344.457 542.265 343.807 542.932 343.148C543.248 342.831 543.573 342.523 543.882 342.206C544.84 341.231 545.782 340.256 546.699 339.247C546.707 339.239 546.707 339.239 546.716 339.231C547.633 338.222 548.533 337.197 549.408 336.163C549.692 335.83 549.967 335.488 550.242 335.146C550.825 334.438 551.409 333.721 551.967 333.004C552.076 332.862 552.192 332.729 552.301 332.587C552.651 332.137 552.984 331.678 553.326 331.22C553.543 330.928 553.759 330.645 553.976 330.353C554.643 329.386 555.302 328.453 555.943 327.502Z" fill="url(#paint3_linear)"/>
<path d="M265.807 11.5002C316.921 2.93954 376.187 11.6836 432.685 36.1318C489.184 60.5885 536.155 97.8152 564.938 140.96C593.729 184.105 600.889 228.009 585.101 264.569C569.314 301.137 532.471 325.994 481.357 334.554C430.243 343.115 370.977 334.371 314.478 309.914C257.98 285.466 211.017 248.239 182.226 205.086C171.556 189.098 163.771 172.827 159.103 156.723L242.075 163.008C244.934 172.861 249.711 182.847 256.271 192.674C292.697 247.272 374.97 282.874 439.654 272.037C504.33 261.201 527.319 207.962 490.893 153.364C454.466 98.7655 372.202 63.1642 307.518 74.0004C296.99 75.7676 287.354 78.685 278.869 82.6694L219.144 25.629C232.998 19.1189 248.694 14.3676 265.807 11.5002Z" fill="url(#paint4_radial)"/>
<path d="M564.924 141.434L565.756 140.88L564.924 141.434C593.578 184.464 600.599 228.08 584.992 264.297C569.386 300.522 532.916 325.27 482.048 333.808C431.181 342.345 372.139 333.631 315.809 309.196C259.48 284.769 212.705 247.594 184.052 204.558L184.052 204.557C173.742 189.075 166.149 173.344 161.476 157.775L242.277 163.909C245.187 173.672 249.94 183.538 256.399 193.234C274.733 220.772 304.564 243.469 337.891 257.923C371.218 272.376 408.137 278.626 440.695 273.16C473.258 267.693 495.509 251.488 504.952 229.572C514.394 207.657 510.916 180.295 492.577 152.75C474.243 125.211 444.415 102.514 411.089 88.0609C377.764 73.6079 340.847 67.3576 308.289 72.8235L308.289 72.8235C297.944 74.5636 288.437 77.4118 280.016 81.2978L221.87 25.648C235.299 19.4855 250.445 14.9601 266.928 12.1924C317.795 3.65514 376.837 12.3695 433.166 36.796C489.496 61.2307 536.279 98.4062 564.924 141.434Z" stroke="url(#paint5_linear)" stroke-width="2"/>
<g filter="url(#filter2_f)">
<path d="M265.762 11.2062C316.853 2.63137 376.092 11.3898 432.564 35.8785C489.037 60.3755 535.986 97.6638 564.756 140.88C593.534 184.096 600.691 228.072 584.911 264.693C569.13 301.321 532.304 326.219 481.213 334.794C430.123 343.369 370.884 334.61 314.412 310.113C257.939 285.625 210.998 248.336 182.22 205.112C171.555 189.098 163.773 172.8 159.107 156.669L242.042 162.964C244.9 172.833 249.674 182.836 256.231 192.68C292.641 247.368 374.875 283.028 439.53 272.174C504.176 261.32 527.155 207.992 490.745 153.304C454.335 98.6156 372.109 62.9555 307.455 73.8097C296.931 75.5797 287.3 78.502 278.818 82.493L219.121 25.3583C232.969 18.8375 248.657 14.0783 265.762 11.2062Z" stroke="url(#paint6_linear)" stroke-width="4"/>
</g>
<g filter="url(#filter3_f)">
<path d="M207.483 31.8691L271.934 86.4006C246.685 101.421 235.299 126.436 240.684 155.036L156.519 143.783C147.733 97.1535 166.305 56.3674 207.483 31.8691Z" stroke="#FF75C7" stroke-width="3"/>
</g>
<defs>
<filter id="filter0_f" x="70.1074" y="4" width="562" height="457" filterUnits="userSpaceOnUse" color-interpolation-filters="sRGB">
<feFlood flood-opacity="0" result="BackgroundImageFix"/>
<feBlend mode="normal" in="SourceGraphic" in2="BackgroundImageFix" result="shape"/>
<feGaussianBlur stdDeviation="32" result="effect1_foregroundBlur"/>
</filter>
<filter id="filter1_f" x="66" y="29.1993" width="245.551" height="251.167" filterUnits="userSpaceOnUse" color-interpolation-filters="sRGB">
<feFlood flood-opacity="0" result="BackgroundImageFix"/>
<feBlend mode="normal" in="SourceGraphic" in2="BackgroundImageFix" result="shape"/>
<feGaussianBlur stdDeviation="32" result="effect1_foregroundBlur"/>
</filter>
<filter id="filter2_f" x="150.385" y="-0.00012207" width="450.724" height="346" filterUnits="userSpaceOnUse" color-interpolation-filters="sRGB">
<feFlood flood-opacity="0" result="BackgroundImageFix"/>
<feBlend mode="normal" in="SourceGraphic" in2="BackgroundImageFix" result="shape"/>
<feGaussianBlur stdDeviation="3" result="effect1_foregroundBlur"/>
</filter>
<filter id="filter3_f" x="146.883" y="24.0331" width="133.626" height="138.764" filterUnits="userSpaceOnUse" color-interpolation-filters="sRGB">
<feFlood flood-opacity="0" result="BackgroundImageFix"/>
<feBlend mode="normal" in="SourceGraphic" in2="BackgroundImageFix" result="shape"/>
<feGaussianBlur stdDeviation="3" result="effect1_foregroundBlur"/>
</filter>
<linearGradient id="paint0_linear" x1="230.862" y1="36.3028" x2="241.946" y2="152.313" gradientUnits="userSpaceOnUse">
<stop stop-color="#00968E"/>
<stop offset="1" stop-color="#054A47"/>
</linearGradient>
<linearGradient id="paint1_linear" x1="275.196" y1="96.894" x2="491.698" y2="275.712" gradientUnits="userSpaceOnUse">
<stop stop-color="#21DBD5"/>
<stop offset="0.279514" stop-color="#05AAA5"/>
<stop offset="1" stop-color="#00413F"/>
</linearGradient>
<linearGradient id="paint2_linear" x1="271.134" y1="112.781" x2="176.552" y2="58.4704" gradientUnits="userSpaceOnUse">
<stop stop-color="#D50C82"/>
<stop offset="1" stop-color="#730646"/>
</linearGradient>
<linearGradient id="paint3_linear" x1="59.8029" y1="156.746" x2="463.621" y2="366.229" gradientUnits="userSpaceOnUse">
<stop stop-color="#14C7BD"/>
<stop offset="0.415882" stop-color="#00968E"/>
<stop offset="1" stop-color="#002B28"/>
</linearGradient>
<radialGradient id="paint4_radial" cx="0" cy="0" r="1" gradientUnits="userSpaceOnUse" gradientTransform="translate(354.262 49.6033) rotate(116.085) scale(256.276 337.753)">
<stop stop-color="#A0EFEF"/>
<stop offset="0.25868" stop-color="#00E1E1"/>
<stop offset="0.696203" stop-color="#5BC2C2"/>
<stop offset="1" stop-color="#0D7070"/>
</radialGradient>
<linearGradient id="paint5_linear" x1="168.97" y1="191.554" x2="594.464" y2="104.202" gradientUnits="userSpaceOnUse">
<stop offset="0.0920137" stop-color="#70E4E4"/>
<stop offset="0.654514" stop-color="#46D0D0"/>
<stop offset="1" stop-color="#CDFFFF"/>
</linearGradient>
<linearGradient id="paint6_linear" x1="167.97" y1="191.554" x2="593.464" y2="104.202" gradientUnits="userSpaceOnUse">
<stop offset="0.0920137" stop-color="#70E4E4"/>
<stop offset="0.654514" stop-color="#46D0D0"/>
<stop offset="1" stop-color="#CDFFFF"/>
</linearGradient>
</defs>
</svg>
