<svg width="58" height="51" viewBox="0 0 58 51" fill="none" xmlns="http://www.w3.org/2000/svg">
<g filter="url(#filter0_f)">
<path d="M48.8042 6.25466L8.14337 22.0292C5.36843 23.1506 5.38448 24.7079 7.63425 25.4024L18.0735 28.6787L42.2269 13.3471C43.369 12.648 44.4125 13.0241 43.5548 13.7901L23.9857 31.5581H23.9811L23.9857 31.5604L23.2656 42.386C24.3206 42.386 24.7861 41.8992 25.3778 41.3247L30.4483 36.3641L40.9954 44.2018C42.9401 45.2793 44.3368 44.7255 44.8207 42.3906L51.7443 9.56324C52.4529 6.70457 50.6595 5.41021 48.8042 6.25466Z" fill="white"/>
</g>
<path d="M48.8042 6.25466L8.14337 22.0292C5.36843 23.1506 5.38448 24.7079 7.63425 25.4024L18.0735 28.6787L42.2269 13.3471C43.369 12.648 44.4125 13.0241 43.5548 13.7901L23.9857 31.5581H23.9811L23.9857 31.5604L23.2656 42.386C24.3206 42.386 24.7861 41.8992 25.3778 41.3247L30.4483 36.3641L40.9954 44.2018C42.9401 45.2793 44.3368 44.7255 44.8207 42.3906L51.7443 9.56324C52.4529 6.70457 50.6595 5.41021 48.8042 6.25466Z" fill="url(#paint0_linear)"/>
<defs>
<filter id="filter0_f" x="0" y="0" width="57.9026" height="50.7303" filterUnits="userSpaceOnUse" color-interpolation-filters="sRGB">
<feFlood flood-opacity="0" result="BackgroundImageFix"/>
<feBlend mode="normal" in="SourceGraphic" in2="BackgroundImageFix" result="shape"/>
<feGaussianBlur stdDeviation="3" result="effect1_foregroundBlur"/>
</filter>
<linearGradient id="paint0_linear" x1="23.0396" y1="11.5329" x2="34.8399" y2="49.9842" gradientUnits="userSpaceOnUse">
<stop stop-color="white"/>
<stop offset="1" stop-color="#ACACAC"/>
</linearGradient>
</defs>
</svg>
