<svg width="519" height="202" viewBox="0 0 519 202" fill="none" xmlns="http://www.w3.org/2000/svg">
<mask id="path-1-inside-1" fill="white">
<path fill-rule="evenodd" clip-rule="evenodd" d="M79.5 13C43.3254 13 14 42.3254 14 78.5C14 114.675 43.3253 144 79.5 144H184.485C184.532 144.33 184.581 144.663 184.635 145C184.936 146.9 185.342 148.904 185.869 150.968C190.147 167.733 202.332 188.41 229.816 188.988C229.834 188.988 229.853 188.988 229.871 188.989C230.244 188.996 230.621 189 231 189C230.8 188.68 230.594 188.346 230.386 187.997C229.874 187.143 229.34 186.204 228.795 185.191C223.542 175.441 217.219 158.827 219.945 145C219.949 144.981 219.952 144.962 219.956 144.943C220.019 144.627 220.087 144.313 220.159 144H412.5C448.675 144 478 114.675 478 78.5C478 42.3254 448.675 13 412.5 13H79.5Z"/>
</mask>
<path d="M184.485 144L186.465 143.72L186.221 142H184.485V144ZM184.635 145L182.659 145.313V145.313L184.635 145ZM185.869 150.968L187.807 150.473L185.869 150.968ZM229.816 188.988L229.858 186.988H229.858L229.816 188.988ZM229.871 188.989L229.83 190.988L229.831 190.988L229.871 188.989ZM231 189V191H234.614L232.695 187.938L231 189ZM230.386 187.997L232.102 186.969L232.102 186.969L230.386 187.997ZM228.795 185.191L230.555 184.243V184.243L228.795 185.191ZM219.945 145L217.983 144.613L217.983 144.613L219.945 145ZM219.956 144.943L217.995 144.553L217.995 144.553L219.956 144.943ZM220.159 144V142H218.57L218.211 143.549L220.159 144ZM16 78.5C16 43.4299 44.4299 15 79.5 15V11C42.2208 11 12 41.2208 12 78.5H16ZM79.5 142C44.4299 142 16 113.57 16 78.5H12C12 115.779 42.2208 146 79.5 146V142ZM184.485 142H79.5V146H184.485V142ZM186.61 144.687C186.559 144.361 186.51 144.039 186.465 143.72L182.505 144.28C182.553 144.621 182.604 144.965 182.659 145.313L186.61 144.687ZM187.807 150.473C187.296 148.471 186.902 146.527 186.61 144.687L182.659 145.313C182.97 147.273 183.389 149.338 183.931 151.462L187.807 150.473ZM229.858 186.988C203.688 186.438 191.986 166.85 187.807 150.473L183.931 151.462C188.309 168.616 200.976 190.382 229.774 190.987L229.858 186.988ZM229.911 186.989C229.893 186.989 229.876 186.988 229.858 186.988L229.774 190.987C229.793 190.988 229.812 190.988 229.83 190.988L229.911 186.989ZM231 187C230.634 187 230.271 186.996 229.911 186.989L229.831 190.988C230.218 190.996 230.607 191 231 191V187ZM228.67 189.024C228.885 189.384 229.097 189.73 229.305 190.062L232.695 187.938C232.502 187.63 232.304 187.307 232.102 186.969L228.67 189.024ZM227.034 186.14C227.593 187.178 228.142 188.143 228.67 189.024L232.102 186.969C231.607 186.143 231.087 185.23 230.555 184.243L227.034 186.14ZM217.983 144.613C216.538 151.938 217.506 159.88 219.445 167.141C221.39 174.42 224.349 181.156 227.034 186.14L230.555 184.243C227.987 179.477 225.159 173.031 223.31 166.109C221.456 159.168 220.625 151.889 221.907 145.387L217.983 144.613ZM217.995 144.553C217.991 144.573 217.987 144.593 217.983 144.613L221.907 145.387C221.911 145.369 221.914 145.351 221.918 145.333L217.995 144.553ZM218.211 143.549C218.134 143.882 218.062 144.217 217.995 144.553L221.918 145.334C221.977 145.038 222.04 144.744 222.108 144.451L218.211 143.549ZM412.5 142H220.159V146H412.5V142ZM476 78.5C476 113.57 447.57 142 412.5 142V146C449.779 146 480 115.779 480 78.5H476ZM412.5 15C447.57 15 476 43.4299 476 78.5H480C480 41.2208 449.779 11 412.5 11V15ZM79.5 15H412.5V11H79.5V15Z" fill="url(#paint0_linear)" mask="url(#path-1-inside-1)"/>
<path d="M90.238 54.513C91.6493 54.513 93.0027 54.7547 94.298 55.238C95.6127 55.702 96.7727 56.4077 97.778 57.355C98.8027 58.283 99.605 59.4333 100.185 60.806C100.765 62.1787 101.055 63.764 101.055 65.562C101.055 65.8907 101.036 66.3353 100.997 66.896C100.958 67.4567 100.862 68.056 100.707 68.694C100.552 69.332 100.311 69.941 99.982 70.521C99.6533 71.0817 99.2087 71.5457 98.648 71.913C98.1067 72.2803 97.4203 72.464 96.589 72.464C95.893 72.464 95.3517 72.3383 94.965 72.087C94.5977 71.855 94.327 71.5553 94.153 71.188C93.979 70.8207 93.8727 70.4533 93.834 70.086C93.2347 70.6853 92.5 71.1687 91.63 71.536C90.7793 71.884 89.8707 72.058 88.904 72.058C87.4733 72.058 86.3713 71.681 85.598 70.927C84.844 70.173 84.467 69.1967 84.467 67.998C84.467 66.9347 84.728 66.0937 85.25 65.475C85.7913 64.8563 86.4777 64.4213 87.309 64.17C88.1403 63.8993 89.0007 63.764 89.89 63.764C90.6633 63.764 91.3303 63.8413 91.891 63.996C92.4517 64.1507 92.877 64.286 93.167 64.402C93.167 63.3387 92.9447 62.4783 92.5 61.821C92.0553 61.1637 91.1757 60.835 89.861 60.835C89.0683 60.835 88.3433 60.951 87.686 61.183C87.0287 61.415 86.468 61.7243 86.004 62.111L85.25 60.052C86.7193 59.0853 88.382 58.602 90.238 58.602C91.4947 58.602 92.471 58.7953 93.167 59.182C93.8823 59.5493 94.4043 60.0423 94.733 60.661C95.0617 61.2603 95.2647 61.9177 95.342 62.633C95.4387 63.329 95.487 64.0057 95.487 64.663V67.447C95.487 68.0077 95.516 68.5393 95.574 69.042C95.632 69.5447 95.7577 69.9507 95.951 70.26C96.1637 70.5693 96.502 70.724 96.966 70.724C97.488 70.724 97.9133 70.5307 98.242 70.144C98.5707 69.7573 98.822 69.2837 98.996 68.723C99.17 68.143 99.286 67.563 99.344 66.983C99.402 66.403 99.431 65.91 99.431 65.504C99.431 63.706 99.0347 62.1013 98.242 60.69C97.4687 59.2593 96.3763 58.138 94.965 57.326C93.573 56.4947 91.9587 56.079 90.122 56.079C88.3047 56.079 86.7 56.4753 85.308 57.268C83.916 58.0607 82.8237 59.1627 82.031 60.574C81.2383 61.966 80.842 63.5513 80.842 65.33C80.842 67.0507 81.2093 68.6263 81.944 70.057C82.698 71.4683 83.742 72.5897 85.076 73.421C86.4293 74.2523 88.005 74.668 89.803 74.668C90.7117 74.668 91.514 74.5617 92.21 74.349C92.906 74.1363 93.6117 73.8753 94.327 73.566L94.791 75.074C93.9983 75.4607 93.167 75.7507 92.297 75.944C91.4463 76.1373 90.5957 76.234 89.745 76.234C88.295 76.234 86.932 75.973 85.656 75.451C84.3993 74.929 83.2877 74.1847 82.321 73.218C81.3543 72.2513 80.5907 71.101 80.03 69.767C79.4887 68.433 79.218 66.954 79.218 65.33C79.218 63.6093 79.5177 62.082 80.117 60.748C80.7163 59.414 81.5283 58.283 82.553 57.355C83.5777 56.427 84.7473 55.7213 86.062 55.238C87.396 54.7547 88.788 54.513 90.238 54.513ZM91.659 69.477C92.181 69.2257 92.558 68.9163 92.79 68.549C93.022 68.1623 93.138 67.7563 93.138 67.331V66.229C92.8673 66.1517 92.4323 66.0357 91.833 65.881C91.253 65.707 90.6053 65.62 89.89 65.62C88.9813 65.62 88.237 65.8037 87.657 66.171C87.077 66.519 86.787 67.099 86.787 67.911C86.787 68.5683 86.99 69.0903 87.396 69.477C87.8213 69.8637 88.4013 70.057 89.136 70.057C89.5227 70.057 89.948 70.0087 90.412 69.912C90.876 69.8153 91.2917 69.6703 91.659 69.477ZM113.372 71.217C112.85 71.449 112.202 71.681 111.429 71.913C110.675 72.145 109.892 72.261 109.08 72.261C108.365 72.261 107.707 72.1353 107.108 71.884C106.509 71.6327 106.025 71.2363 105.658 70.695C105.31 70.1343 105.136 69.4093 105.136 68.52V59.791H103.135V56.804H105.136V51.874H109.022V56.804H112.212V59.791H109.022V67.215C109.022 67.737 109.157 68.114 109.428 68.346C109.718 68.578 110.066 68.694 110.472 68.694C110.878 68.694 111.274 68.6263 111.661 68.491C112.048 68.3557 112.357 68.2397 112.589 68.143L113.372 71.217ZM115.396 54.687V50.83H119.282V54.687H115.396ZM115.396 72V56.804H119.282V72H115.396ZM131.894 72.29C130.695 72.29 129.651 72.0193 128.762 71.478C127.872 70.9367 127.176 70.2213 126.674 69.332V78.177H122.788V56.804H126.181V59.414C126.741 58.5247 127.466 57.8287 128.356 57.326C129.264 56.804 130.289 56.543 131.43 56.543C132.802 56.543 134.02 56.9007 135.084 57.616C136.147 58.312 136.988 59.2593 137.607 60.458C138.225 61.6373 138.535 62.9423 138.535 64.373C138.535 65.8617 138.245 67.2053 137.665 68.404C137.104 69.5833 136.321 70.5307 135.316 71.246C134.33 71.942 133.189 72.29 131.894 72.29ZM130.589 68.984C131.381 68.984 132.068 68.7713 132.648 68.346C133.247 67.9013 133.711 67.331 134.04 66.635C134.388 65.9197 134.562 65.1657 134.562 64.373C134.562 63.5223 134.378 62.7587 134.011 62.082C133.643 61.386 133.141 60.8447 132.503 60.458C131.884 60.052 131.169 59.849 130.357 59.849C129.622 59.849 128.887 60.0907 128.153 60.574C127.418 61.0573 126.925 61.6663 126.674 62.401V65.968C127.022 66.8187 127.553 67.534 128.269 68.114C128.984 68.694 129.757 68.984 130.589 68.984ZM146.764 72.29C145.469 72.29 144.232 72.0773 143.052 71.652C141.873 71.2267 140.858 70.5983 140.007 69.767L141.399 67.244C142.308 67.9787 143.197 68.52 144.067 68.868C144.937 69.216 145.788 69.39 146.619 69.39C147.373 69.39 147.973 69.2547 148.417 68.984C148.881 68.7133 149.113 68.3073 149.113 67.766C149.113 67.2053 148.833 66.8283 148.272 66.635C147.712 66.4223 146.929 66.1613 145.923 65.852C144.802 65.504 143.864 65.1463 143.11 64.779C142.356 64.4117 141.786 63.967 141.399 63.445C141.032 62.923 140.848 62.2463 140.848 61.415C140.848 59.9263 141.409 58.7373 142.53 57.848C143.652 56.9587 145.14 56.514 146.996 56.514C148.079 56.514 149.104 56.688 150.07 57.036C151.037 57.3647 151.917 57.906 152.709 58.66L151.143 61.125C149.655 59.965 148.214 59.385 146.822 59.385C146.204 59.385 145.653 59.501 145.169 59.733C144.705 59.965 144.473 60.371 144.473 60.951C144.473 61.4923 144.696 61.879 145.14 62.111C145.604 62.343 146.3 62.5943 147.228 62.865C148.427 63.2323 149.442 63.59 150.273 63.938C151.124 64.286 151.762 64.7307 152.187 65.272C152.632 65.8133 152.854 66.548 152.854 67.476C152.854 68.984 152.303 70.1633 151.201 71.014C150.099 71.8647 148.62 72.29 146.764 72.29ZM155.42 74.958C156.135 75.1513 156.715 75.248 157.16 75.248C157.682 75.248 158.098 75.0257 158.407 74.581C158.736 74.1557 159.103 73.2953 159.509 72L153.506 56.804H157.537L161.626 68.027L165.222 56.804H168.934L162.554 75.016C162.206 76.06 161.578 76.9203 160.669 77.597C159.78 78.293 158.678 78.641 157.363 78.641C156.725 78.641 156.077 78.5347 155.42 78.322V74.958ZM176.348 64.402C176.348 62.952 176.638 61.6277 177.218 60.429C177.798 59.2303 178.6 58.283 179.625 57.587C180.65 56.891 181.819 56.543 183.134 56.543C184.255 56.543 185.261 56.8233 186.15 57.384C187.059 57.9253 187.764 58.6213 188.267 59.472V50.83H192.153V67.65C192.153 68.0753 192.221 68.375 192.356 68.549C192.491 68.7037 192.723 68.8003 193.052 68.839V72C192.356 72.1353 191.805 72.203 191.399 72.203C190.703 72.203 190.123 72.029 189.659 71.681C189.214 71.333 188.963 70.8787 188.905 70.318L188.847 69.361C188.286 70.3083 187.523 71.0333 186.556 71.536C185.609 72.0387 184.613 72.29 183.569 72.29C182.158 72.29 180.911 71.942 179.828 71.246C178.745 70.5307 177.895 69.5833 177.276 68.404C176.657 67.2053 176.348 65.8713 176.348 64.402ZM188.267 66.432V62.807C187.958 61.9563 187.426 61.2507 186.672 60.69C185.918 60.1293 185.145 59.849 184.352 59.849C183.559 59.849 182.863 60.0713 182.264 60.516C181.665 60.9413 181.201 61.5117 180.872 62.227C180.543 62.923 180.379 63.677 180.379 64.489C180.379 65.3203 180.563 66.084 180.93 66.78C181.297 67.4567 181.79 67.998 182.409 68.404C183.047 68.7907 183.772 68.984 184.584 68.984C185.319 68.984 186.044 68.7423 186.759 68.259C187.494 67.7757 187.996 67.1667 188.267 66.432ZM205.015 60.168C203.836 60.168 202.782 60.4 201.854 60.864C200.926 61.3087 200.259 61.9563 199.853 62.807V72H195.967V56.804H199.534V60.052C200.056 59.008 200.733 58.1863 201.564 57.587C202.415 56.9877 203.304 56.659 204.232 56.601C204.638 56.601 204.899 56.6107 205.015 56.63V60.168ZM214.002 72.29C212.339 72.29 210.909 71.9323 209.71 71.217C208.531 70.4823 207.622 69.5157 206.984 68.317C206.346 67.1183 206.027 65.823 206.027 64.431C206.027 63.0197 206.346 61.7147 206.984 60.516C207.641 59.3173 208.56 58.3603 209.739 57.645C210.938 56.9103 212.359 56.543 214.002 56.543C215.645 56.543 217.057 56.9103 218.236 57.645C219.435 58.3603 220.353 59.3173 220.991 60.516C221.629 61.7147 221.948 63.0197 221.948 64.431C221.948 65.823 221.629 67.1183 220.991 68.317C220.353 69.5157 219.435 70.4823 218.236 71.217C217.057 71.9323 215.645 72.29 214.002 72.29ZM210.029 64.431C210.029 65.3203 210.203 66.113 210.551 66.809C210.899 67.4857 211.373 68.0173 211.972 68.404C212.571 68.7907 213.248 68.984 214.002 68.984C214.737 68.984 215.404 68.7907 216.003 68.404C216.602 67.998 217.076 67.4567 217.424 66.78C217.791 66.084 217.975 65.2913 217.975 64.402C217.975 63.532 217.791 62.7587 217.424 62.082C217.076 61.386 216.602 60.8447 216.003 60.458C215.404 60.052 214.737 59.849 214.002 59.849C213.248 59.849 212.571 60.052 211.972 60.458C211.373 60.8447 210.899 61.386 210.551 62.082C210.203 62.7587 210.029 63.5417 210.029 64.431ZM233.677 72.29C232.478 72.29 231.434 72.0193 230.545 71.478C229.655 70.9367 228.959 70.2213 228.457 69.332V78.177H224.571V56.804H227.964V59.414C228.524 58.5247 229.249 57.8287 230.139 57.326C231.047 56.804 232.072 56.543 233.213 56.543C234.585 56.543 235.803 56.9007 236.867 57.616C237.93 58.312 238.771 59.2593 239.39 60.458C240.008 61.6373 240.318 62.9423 240.318 64.373C240.318 65.8617 240.028 67.2053 239.448 68.404C238.887 69.5833 238.104 70.5307 237.099 71.246C236.113 71.942 234.972 72.29 233.677 72.29ZM232.372 68.984C233.164 68.984 233.851 68.7713 234.431 68.346C235.03 67.9013 235.494 67.331 235.823 66.635C236.171 65.9197 236.345 65.1657 236.345 64.373C236.345 63.5223 236.161 62.7587 235.794 62.082C235.426 61.386 234.924 60.8447 234.286 60.458C233.667 60.052 232.952 59.849 232.14 59.849C231.405 59.849 230.67 60.0907 229.936 60.574C229.201 61.0573 228.708 61.6663 228.457 62.401V65.968C228.805 66.8187 229.336 67.534 230.052 68.114C230.767 68.694 231.54 68.984 232.372 68.984ZM261.778 68.491V72H250.004V68.491H254.122V59.704C253.89 59.994 253.494 60.3033 252.933 60.632C252.392 60.9607 251.793 61.241 251.135 61.473C250.497 61.705 249.927 61.821 249.424 61.821V58.196C249.772 58.196 250.188 58.0897 250.671 57.877C251.174 57.645 251.667 57.3743 252.15 57.065C252.653 56.7557 253.078 56.456 253.426 56.166C253.794 55.8567 254.026 55.615 254.122 55.441H258.095V68.491H261.778ZM278.864 63.503C278.864 65.2043 278.535 66.722 277.878 68.056C277.24 69.3707 276.35 70.405 275.21 71.159C274.088 71.913 272.812 72.29 271.382 72.29C269.951 72.29 268.665 71.913 267.525 71.159C266.403 70.405 265.514 69.3707 264.857 68.056C264.219 66.722 263.9 65.2043 263.9 63.503C263.9 61.8017 264.219 60.2937 264.857 58.979C265.514 57.645 266.403 56.601 267.525 55.847C268.665 55.0737 269.951 54.687 271.382 54.687C272.812 54.687 274.088 55.0737 275.21 55.847C276.35 56.601 277.24 57.645 277.878 58.979C278.535 60.2937 278.864 61.8017 278.864 63.503ZM274.949 63.503C274.949 61.9563 274.61 60.6997 273.934 59.733C273.276 58.747 272.426 58.254 271.382 58.254C270.299 58.254 269.429 58.747 268.772 59.733C268.114 60.6997 267.786 61.9563 267.786 63.503C267.786 65.0497 268.114 66.3063 268.772 67.273C269.429 68.2397 270.299 68.723 271.382 68.723C272.426 68.723 273.276 68.2397 273.934 67.273C274.61 66.3063 274.949 65.0497 274.949 63.503ZM296.677 63.503C296.677 65.2043 296.348 66.722 295.691 68.056C295.053 69.3707 294.164 70.405 293.023 71.159C291.902 71.913 290.626 72.29 289.195 72.29C287.764 72.29 286.479 71.913 285.338 71.159C284.217 70.405 283.327 69.3707 282.67 68.056C282.032 66.722 281.713 65.2043 281.713 63.503C281.713 61.8017 282.032 60.2937 282.67 58.979C283.327 57.645 284.217 56.601 285.338 55.847C286.479 55.0737 287.764 54.687 289.195 54.687C290.626 54.687 291.902 55.0737 293.023 55.847C294.164 56.601 295.053 57.645 295.691 58.979C296.348 60.2937 296.677 61.8017 296.677 63.503ZM292.762 63.503C292.762 61.9563 292.424 60.6997 291.747 59.733C291.09 58.747 290.239 58.254 289.195 58.254C288.112 58.254 287.242 58.747 286.585 59.733C285.928 60.6997 285.599 61.9563 285.599 63.503C285.599 65.0497 285.928 66.3063 286.585 67.273C287.242 68.2397 288.112 68.723 289.195 68.723C290.239 68.723 291.09 68.2397 291.747 67.273C292.424 66.3063 292.762 65.0497 292.762 63.503ZM319.833 56.804C319.679 56.63 319.36 56.4077 318.876 56.137C318.412 55.847 317.842 55.5763 317.165 55.325C316.508 55.0737 315.812 54.9093 315.077 54.832V59.849C315.174 59.8683 315.271 59.8973 315.367 59.936C315.483 59.9553 315.599 59.9843 315.715 60.023C317.069 60.371 318.238 60.777 319.224 61.241C320.21 61.705 320.974 62.3237 321.515 63.097C322.057 63.851 322.327 64.8563 322.327 66.113C322.327 67.505 322.008 68.6457 321.37 69.535C320.732 70.405 319.882 71.0527 318.818 71.478C317.774 71.9033 316.624 72.145 315.367 72.203V75.393H313.424V72.174C312.09 72.058 310.785 71.7777 309.509 71.333C308.233 70.869 307.083 70.2793 306.058 69.564L307.827 66.113C308.04 66.3257 308.427 66.606 308.987 66.954C309.567 67.2827 310.263 67.6113 311.075 67.94C311.887 68.2493 312.757 68.462 313.685 68.578V63.59C313.531 63.532 313.366 63.4837 313.192 63.445C313.038 63.4063 312.883 63.358 312.728 63.3C311.414 62.9327 310.321 62.5267 309.451 62.082C308.601 61.618 307.953 61.0477 307.508 60.371C307.083 59.675 306.87 58.7953 306.87 57.732C306.87 56.4367 307.16 55.3347 307.74 54.426C308.32 53.498 309.103 52.773 310.089 52.251C311.075 51.729 312.187 51.41 313.424 51.294V48.365H315.367V51.294C316.585 51.3907 317.726 51.6613 318.789 52.106C319.872 52.5313 320.81 53.0147 321.602 53.556L319.833 56.804ZM311.017 57.094C311.017 57.732 311.24 58.225 311.684 58.573C312.129 58.9017 312.796 59.2013 313.685 59.472V54.803C311.907 54.9577 311.017 55.7213 311.017 57.094ZM318.064 66.519C318.064 65.8617 317.794 65.3493 317.252 64.982C316.73 64.6147 316.005 64.286 315.077 63.996V68.636C317.069 68.5587 318.064 67.853 318.064 66.519ZM340.997 54.919H334.414V72H330.441V54.919H323.858V51.41H340.997V54.919ZM343.553 72V51.41H352.282C353.23 51.41 354.1 51.6033 354.892 51.99C355.704 52.3767 356.4 52.8987 356.98 53.556C357.56 54.2133 358.015 54.948 358.343 55.76C358.672 56.572 358.836 57.4033 358.836 58.254C358.836 59.414 358.566 60.516 358.024 61.56C357.483 62.604 356.729 63.4547 355.762 64.112C354.815 64.7693 353.703 65.098 352.427 65.098H347.555V72H343.553ZM347.555 61.589H352.195C352.93 61.589 353.539 61.2893 354.022 60.69C354.525 60.0713 354.776 59.2593 354.776 58.254C354.776 57.1907 354.496 56.369 353.935 55.789C353.375 55.209 352.737 54.919 352.021 54.919H347.555V61.589ZM373.889 56.804C373.715 56.6107 373.347 56.3593 372.787 56.05C372.226 55.7213 371.549 55.4313 370.757 55.18C369.983 54.9093 369.181 54.774 368.35 54.774C366.165 54.774 365.073 55.5473 365.073 57.094C365.073 57.6547 365.247 58.0993 365.595 58.428C365.943 58.7567 366.465 59.037 367.161 59.269C367.857 59.501 368.727 59.7523 369.771 60.023C371.124 60.371 372.294 60.777 373.28 61.241C374.285 61.705 375.049 62.3237 375.571 63.097C376.112 63.851 376.383 64.8563 376.383 66.113C376.383 67.5823 376.025 68.7713 375.31 69.68C374.614 70.5693 373.686 71.217 372.526 71.623C371.366 72.029 370.109 72.232 368.756 72.232C367.209 72.232 365.672 72 364.145 71.536C362.637 71.0527 361.293 70.3953 360.114 69.564L361.883 66.113C362.057 66.287 362.366 66.519 362.811 66.809C363.255 67.0797 363.797 67.36 364.435 67.65C365.073 67.9207 365.769 68.1527 366.523 68.346C367.277 68.5393 368.04 68.636 368.814 68.636C371.018 68.636 372.12 67.9303 372.12 66.519C372.12 65.9197 371.897 65.4363 371.453 65.069C371.008 64.7017 370.38 64.3923 369.568 64.141C368.775 63.8897 367.847 63.6093 366.784 63.3C365.469 62.9327 364.377 62.5267 363.507 62.082C362.656 61.618 362.018 61.0477 361.593 60.371C361.167 59.675 360.955 58.7953 360.955 57.732C360.955 56.3207 361.283 55.1413 361.941 54.194C362.617 53.2273 363.526 52.5023 364.667 52.019C365.807 51.5163 367.074 51.265 368.466 51.265C369.896 51.265 371.23 51.497 372.468 51.961C373.705 52.425 374.768 52.9567 375.658 53.556L373.889 56.804ZM381.189 51.41L386.264 61.096L391.426 51.41H395.747L388.265 64.808V72H384.292V64.75L376.839 51.41H381.189ZM90.238 88.513C91.6493 88.513 93.0027 88.7547 94.298 89.238C95.6127 89.702 96.7727 90.4077 97.778 91.355C98.8027 92.283 99.605 93.4333 100.185 94.806C100.765 96.1787 101.055 97.764 101.055 99.562C101.055 99.8907 101.036 100.335 100.997 100.896C100.958 101.457 100.862 102.056 100.707 102.694C100.552 103.332 100.311 103.941 99.982 104.521C99.6533 105.082 99.2087 105.546 98.648 105.913C98.1067 106.28 97.4203 106.464 96.589 106.464C95.893 106.464 95.3517 106.338 94.965 106.087C94.5977 105.855 94.327 105.555 94.153 105.188C93.979 104.821 93.8727 104.453 93.834 104.086C93.2347 104.685 92.5 105.169 91.63 105.536C90.7793 105.884 89.8707 106.058 88.904 106.058C87.4733 106.058 86.3713 105.681 85.598 104.927C84.844 104.173 84.467 103.197 84.467 101.998C84.467 100.935 84.728 100.094 85.25 99.475C85.7913 98.8563 86.4777 98.4213 87.309 98.17C88.1403 97.8993 89.0007 97.764 89.89 97.764C90.6633 97.764 91.3303 97.8413 91.891 97.996C92.4517 98.1507 92.877 98.286 93.167 98.402C93.167 97.3387 92.9447 96.4783 92.5 95.821C92.0553 95.1637 91.1757 94.835 89.861 94.835C89.0683 94.835 88.3433 94.951 87.686 95.183C87.0287 95.415 86.468 95.7243 86.004 96.111L85.25 94.052C86.7193 93.0853 88.382 92.602 90.238 92.602C91.4947 92.602 92.471 92.7953 93.167 93.182C93.8823 93.5493 94.4043 94.0423 94.733 94.661C95.0617 95.2603 95.2647 95.9177 95.342 96.633C95.4387 97.329 95.487 98.0057 95.487 98.663V101.447C95.487 102.008 95.516 102.539 95.574 103.042C95.632 103.545 95.7577 103.951 95.951 104.26C96.1637 104.569 96.502 104.724 96.966 104.724C97.488 104.724 97.9133 104.531 98.242 104.144C98.5707 103.757 98.822 103.284 98.996 102.723C99.17 102.143 99.286 101.563 99.344 100.983C99.402 100.403 99.431 99.91 99.431 99.504C99.431 97.706 99.0347 96.1013 98.242 94.69C97.4687 93.2593 96.3763 92.138 94.965 91.326C93.573 90.4947 91.9587 90.079 90.122 90.079C88.3047 90.079 86.7 90.4753 85.308 91.268C83.916 92.0607 82.8237 93.1627 82.031 94.574C81.2383 95.966 80.842 97.5513 80.842 99.33C80.842 101.051 81.2093 102.626 81.944 104.057C82.698 105.468 83.742 106.59 85.076 107.421C86.4293 108.252 88.005 108.668 89.803 108.668C90.7117 108.668 91.514 108.562 92.21 108.349C92.906 108.136 93.6117 107.875 94.327 107.566L94.791 109.074C93.9983 109.461 93.167 109.751 92.297 109.944C91.4463 110.137 90.5957 110.234 89.745 110.234C88.295 110.234 86.932 109.973 85.656 109.451C84.3993 108.929 83.2877 108.185 82.321 107.218C81.3543 106.251 80.5907 105.101 80.03 103.767C79.4887 102.433 79.218 100.954 79.218 99.33C79.218 97.6093 79.5177 96.082 80.117 94.748C80.7163 93.414 81.5283 92.283 82.553 91.355C83.5777 90.427 84.7473 89.7213 86.062 89.238C87.396 88.7547 88.788 88.513 90.238 88.513ZM91.659 103.477C92.181 103.226 92.558 102.916 92.79 102.549C93.022 102.162 93.138 101.756 93.138 101.331V100.229C92.8673 100.152 92.4323 100.036 91.833 99.881C91.253 99.707 90.6053 99.62 89.89 99.62C88.9813 99.62 88.237 99.8037 87.657 100.171C87.077 100.519 86.787 101.099 86.787 101.911C86.787 102.568 86.99 103.09 87.396 103.477C87.8213 103.864 88.4013 104.057 89.136 104.057C89.5227 104.057 89.948 104.009 90.412 103.912C90.876 103.815 91.2917 103.67 91.659 103.477ZM111.313 106.29C109.67 106.29 108.249 105.932 107.05 105.217C105.871 104.502 104.952 103.554 104.295 102.375C103.638 101.176 103.309 99.881 103.309 98.489C103.309 97.0583 103.628 95.7437 104.266 94.545C104.923 93.327 105.851 92.3603 107.05 91.645C108.249 90.9103 109.679 90.543 111.342 90.543C113.005 90.543 114.426 90.9103 115.605 91.645C116.784 92.3603 117.683 93.3173 118.302 94.516C118.94 95.6953 119.259 96.9713 119.259 98.344C119.259 98.8467 119.23 99.2817 119.172 99.649H107.427C107.524 100.828 107.959 101.756 108.732 102.433C109.525 103.11 110.433 103.448 111.458 103.448C112.231 103.448 112.956 103.264 113.633 102.897C114.329 102.51 114.803 102.008 115.054 101.389L118.389 102.317C117.828 103.477 116.929 104.434 115.692 105.188C114.455 105.923 112.995 106.29 111.313 106.29ZM107.34 97.184H115.286C115.17 96.0433 114.735 95.125 113.981 94.429C113.246 93.7137 112.347 93.356 111.284 93.356C110.24 93.356 109.341 93.7137 108.587 94.429C107.852 95.125 107.437 96.0433 107.34 97.184ZM121.597 84.83H125.483V101.128C125.483 101.843 125.599 102.317 125.831 102.549C126.063 102.781 126.382 102.897 126.788 102.897C127.098 102.897 127.417 102.858 127.745 102.781C128.074 102.704 128.364 102.607 128.615 102.491L129.137 105.449C128.615 105.7 128.006 105.894 127.31 106.029C126.614 106.164 125.986 106.232 125.425 106.232C124.207 106.232 123.26 105.913 122.583 105.275C121.926 104.618 121.597 103.69 121.597 102.491V84.83ZM137.849 106.29C136.186 106.29 134.755 105.932 133.557 105.217C132.377 104.482 131.469 103.516 130.831 102.317C130.193 101.118 129.874 99.823 129.874 98.431C129.874 97.0197 130.193 95.7147 130.831 94.516C131.488 93.3173 132.406 92.3603 133.586 91.645C134.784 90.9103 136.205 90.543 137.849 90.543C139.492 90.543 140.903 90.9103 142.083 91.645C143.281 92.3603 144.2 93.3173 144.838 94.516C145.476 95.7147 145.795 97.0197 145.795 98.431C145.795 99.823 145.476 101.118 144.838 102.317C144.2 103.516 143.281 104.482 142.083 105.217C140.903 105.932 139.492 106.29 137.849 106.29ZM133.876 98.431C133.876 99.3203 134.05 100.113 134.398 100.809C134.746 101.486 135.219 102.017 135.819 102.404C136.418 102.791 137.095 102.984 137.849 102.984C138.583 102.984 139.25 102.791 139.85 102.404C140.449 101.998 140.923 101.457 141.271 100.78C141.638 100.084 141.822 99.2913 141.822 98.402C141.822 97.532 141.638 96.7587 141.271 96.082C140.923 95.386 140.449 94.8447 139.85 94.458C139.25 94.052 138.583 93.849 137.849 93.849C137.095 93.849 136.418 94.052 135.819 94.458C135.219 94.8447 134.746 95.386 134.398 96.082C134.05 96.7587 133.876 97.5417 133.876 98.431ZM162.54 106H158.654V97.474C158.654 96.256 158.442 95.3667 158.016 94.806C157.591 94.2453 157.001 93.965 156.247 93.965C155.725 93.965 155.194 94.1003 154.652 94.371C154.13 94.6417 153.657 95.0187 153.231 95.502C152.806 95.966 152.497 96.5073 152.303 97.126V106H148.417V90.804H151.926V93.617C152.487 92.6697 153.299 91.9253 154.362 91.384C155.426 90.8233 156.624 90.543 157.958 90.543C158.906 90.543 159.679 90.717 160.278 91.065C160.878 91.3937 161.342 91.848 161.67 92.428C161.999 92.9887 162.221 93.6267 162.337 94.342C162.473 95.0573 162.54 95.7823 162.54 96.517V106ZM189.525 106H185.639V97.474C185.639 96.2753 185.427 95.3957 185.001 94.835C184.595 94.255 184.025 93.965 183.29 93.965C182.517 93.965 181.792 94.2647 181.115 94.864C180.439 95.444 179.955 96.2077 179.665 97.155V106H175.779V97.474C175.779 96.256 175.567 95.3667 175.141 94.806C174.735 94.2453 174.165 93.965 173.43 93.965C172.676 93.965 171.951 94.255 171.255 94.835C170.579 95.415 170.095 96.1787 169.805 97.126V106H165.919V90.804H169.428V93.617C169.989 92.631 170.753 91.877 171.719 91.355C172.705 90.8137 173.827 90.543 175.083 90.543C176.34 90.543 177.316 90.8523 178.012 91.471C178.728 92.0897 179.182 92.8533 179.375 93.762C179.975 92.718 180.758 91.9253 181.724 91.384C182.691 90.8233 183.774 90.543 184.972 90.543C185.92 90.543 186.683 90.717 187.263 91.065C187.863 91.3937 188.327 91.848 188.655 92.428C188.984 92.9887 189.206 93.6267 189.322 94.342C189.458 95.0573 189.525 95.7823 189.525 96.517V106ZM192.764 100.316V90.804H196.65V99.475C196.65 101.814 197.491 102.984 199.173 102.984C199.927 102.984 200.652 102.762 201.348 102.317C202.063 101.853 202.643 101.157 203.088 100.229V90.804H206.974V101.65C206.974 102.075 207.041 102.375 207.177 102.549C207.312 102.704 207.554 102.8 207.902 102.839V106C207.515 106.077 207.186 106.126 206.916 106.145C206.664 106.164 206.432 106.174 206.22 106.174C205.524 106.174 204.953 106.019 204.509 105.71C204.083 105.381 203.832 104.937 203.755 104.376L203.668 103.158C202.991 104.202 202.121 104.985 201.058 105.507C199.994 106.029 198.825 106.29 197.549 106.29C195.983 106.29 194.794 105.787 193.982 104.782C193.17 103.757 192.764 102.269 192.764 100.316ZM216.432 106.29C215.137 106.29 213.9 106.077 212.72 105.652C211.541 105.227 210.526 104.598 209.675 103.767L211.067 101.244C211.976 101.979 212.865 102.52 213.735 102.868C214.605 103.216 215.456 103.39 216.287 103.39C217.041 103.39 217.641 103.255 218.085 102.984C218.549 102.713 218.781 102.307 218.781 101.766C218.781 101.205 218.501 100.828 217.94 100.635C217.38 100.422 216.597 100.161 215.591 99.852C214.47 99.504 213.532 99.1463 212.778 98.779C212.024 98.4117 211.454 97.967 211.067 97.445C210.7 96.923 210.516 96.2463 210.516 95.415C210.516 93.9263 211.077 92.7373 212.198 91.848C213.32 90.9587 214.808 90.514 216.664 90.514C217.747 90.514 218.772 90.688 219.738 91.036C220.705 91.3647 221.585 91.906 222.377 92.66L220.811 95.125C219.323 93.965 217.882 93.385 216.49 93.385C215.872 93.385 215.321 93.501 214.837 93.733C214.373 93.965 214.141 94.371 214.141 94.951C214.141 95.4923 214.364 95.879 214.808 96.111C215.272 96.343 215.968 96.5943 216.896 96.865C218.095 97.2323 219.11 97.59 219.941 97.938C220.792 98.286 221.43 98.7307 221.855 99.272C222.3 99.8133 222.522 100.548 222.522 101.476C222.522 102.984 221.971 104.163 220.869 105.014C219.767 105.865 218.288 106.29 216.432 106.29ZM235.547 106L231.11 99.446L229.051 101.476V106H225.165V84.83H229.051V97.648L235.17 90.833H239.288L233.633 97.271L239.694 106H235.547Z" fill="url(#paint1_linear)"/>
<g filter="url(#filter0_f)">
<mask id="path-4-inside-2" fill="white">
<path fill-rule="evenodd" clip-rule="evenodd" d="M78.5 13C42.3254 13 13 42.3254 13 78.5C13 114.675 42.3253 144 78.5 144H183.485C183.532 144.33 183.581 144.663 183.635 145C183.936 146.9 184.342 148.904 184.869 150.968C189.147 167.733 201.332 188.41 228.816 188.988C228.834 188.988 228.853 188.988 228.871 188.989C229.244 188.996 229.621 189 230 189C229.8 188.68 229.594 188.346 229.386 187.997C228.874 187.143 228.34 186.204 227.795 185.191C222.542 175.441 216.219 158.827 218.945 145C218.949 144.981 218.952 144.962 218.956 144.943C219.019 144.627 219.087 144.313 219.159 144H411.5C447.675 144 477 114.675 477 78.5C477 42.3254 447.675 13 411.5 13H78.5Z"/>
</mask>
<path d="M183.485 144L185.465 143.72L185.221 142H183.485V144ZM183.635 145L181.659 145.313V145.313L183.635 145ZM184.869 150.968L186.807 150.473L184.869 150.968ZM228.816 188.988L228.858 186.988H228.858L228.816 188.988ZM228.871 188.989L228.83 190.988L228.831 190.988L228.871 188.989ZM230 189V191H233.614L231.695 187.938L230 189ZM229.386 187.997L231.102 186.969L231.102 186.969L229.386 187.997ZM227.795 185.191L229.555 184.243V184.243L227.795 185.191ZM218.945 145L216.983 144.613L216.983 144.613L218.945 145ZM218.956 144.943L216.995 144.553L216.995 144.553L218.956 144.943ZM219.159 144V142H217.57L217.211 143.549L219.159 144ZM15 78.5C15 43.4299 43.4299 15 78.5 15V11C41.2208 11 11 41.2208 11 78.5H15ZM78.5 142C43.4299 142 15 113.57 15 78.5H11C11 115.779 41.2208 146 78.5 146V142ZM183.485 142H78.5V146H183.485V142ZM185.61 144.687C185.559 144.361 185.51 144.039 185.465 143.72L181.505 144.28C181.553 144.621 181.604 144.965 181.659 145.313L185.61 144.687ZM186.807 150.473C186.296 148.471 185.902 146.527 185.61 144.687L181.659 145.313C181.97 147.273 182.389 149.338 182.931 151.462L186.807 150.473ZM228.858 186.988C202.688 186.438 190.986 166.85 186.807 150.473L182.931 151.462C187.309 168.616 199.976 190.382 228.774 190.987L228.858 186.988ZM228.911 186.989C228.893 186.989 228.876 186.988 228.858 186.988L228.774 190.987C228.793 190.988 228.812 190.988 228.83 190.988L228.911 186.989ZM230 187C229.634 187 229.271 186.996 228.911 186.989L228.831 190.988C229.218 190.996 229.607 191 230 191V187ZM227.67 189.024C227.885 189.384 228.097 189.73 228.305 190.062L231.695 187.938C231.502 187.63 231.304 187.307 231.102 186.969L227.67 189.024ZM226.034 186.14C226.593 187.178 227.142 188.143 227.67 189.024L231.102 186.969C230.607 186.143 230.087 185.23 229.555 184.243L226.034 186.14ZM216.983 144.613C215.538 151.938 216.506 159.88 218.445 167.141C220.39 174.42 223.349 181.156 226.034 186.14L229.555 184.243C226.987 179.477 224.159 173.031 222.31 166.109C220.456 159.168 219.625 151.889 220.907 145.387L216.983 144.613ZM216.995 144.553C216.991 144.573 216.987 144.593 216.983 144.613L220.907 145.387C220.911 145.369 220.914 145.351 220.918 145.333L216.995 144.553ZM217.211 143.549C217.134 143.882 217.062 144.217 216.995 144.553L220.918 145.334C220.977 145.038 221.04 144.744 221.108 144.451L217.211 143.549ZM411.5 142H219.159V146H411.5V142ZM475 78.5C475 113.57 446.57 142 411.5 142V146C448.779 146 479 115.779 479 78.5H475ZM411.5 15C446.57 15 475 43.4299 475 78.5H479C479 41.2208 448.779 11 411.5 11V15ZM78.5 15H411.5V11H78.5V15Z" fill="#00E1E1" mask="url(#path-4-inside-2)"/>
</g>
<path d="M510.194 73.4208C510.232 74.2226 510.246 75.0343 510.246 75.836C510.246 100.532 492.499 129 460.048 129C450.078 129 440.81 125.907 433 120.601C437.62 121.193 442.304 120.815 446.785 119.488C451.267 118.162 455.458 115.913 459.118 112.871C455.437 112.797 451.869 111.507 448.915 109.181C445.96 106.856 443.765 103.61 442.638 99.8989C445.283 100.423 448.006 100.313 450.607 99.5772C446.613 98.7198 443.023 96.4267 440.443 93.0867C437.864 89.7466 436.455 85.565 436.454 81.2504V81.0178C438.904 82.461 441.644 83.2636 444.446 83.3588C440.707 80.7188 438.059 76.6671 437.045 72.0306C436.03 67.3942 436.725 62.5225 438.987 58.41C443.417 64.183 448.944 68.9047 455.21 72.2684C461.475 75.6321 468.339 77.5626 475.355 77.9345C475.051 76.5369 474.899 75.1073 474.902 73.6732C474.902 71.2206 475.358 68.792 476.244 66.5262C477.131 64.2603 478.43 62.2016 480.068 60.4675C481.706 58.7335 483.651 57.3581 485.791 56.42C487.931 55.4819 490.225 54.9994 492.541 55C494.955 54.9959 497.344 55.5169 499.56 56.5309C501.776 57.5448 503.771 59.0301 505.422 60.8945C509.372 60.0665 513.161 58.5335 516.626 56.361C515.308 60.6876 512.551 64.36 508.867 66.6949C512.364 66.2559 515.78 65.265 519 63.7551C516.634 67.5087 513.652 70.7825 510.194 73.4208Z" fill="url(#paint2_linear)"/>
<defs>
<filter id="filter0_f" x="0" y="0" width="490" height="202" filterUnits="userSpaceOnUse" color-interpolation-filters="sRGB">
<feFlood flood-opacity="0" result="BackgroundImageFix"/>
<feBlend mode="normal" in="SourceGraphic" in2="BackgroundImageFix" result="shape"/>
<feGaussianBlur stdDeviation="6.5" result="effect1_foregroundBlur"/>
</filter>
<linearGradient id="paint0_linear" x1="14" y1="-14" x2="246" y2="189" gradientUnits="userSpaceOnUse">
<stop stop-color="#00E1E1"/>
<stop offset="1" stop-color="#009C9C"/>
</linearGradient>
<linearGradient id="paint1_linear" x1="265.5" y1="45" x2="265.5" y2="122" gradientUnits="userSpaceOnUse">
<stop stop-color="white"/>
<stop offset="1" stop-color="#959595"/>
</linearGradient>
<linearGradient id="paint2_linear" x1="433" y1="34.9143" x2="491.748" y2="147.61" gradientUnits="userSpaceOnUse">
<stop offset="0.237847" stop-color="#18E2FE"/>
<stop offset="0.925347" stop-color="#00414A"/>
</linearGradient>
</defs>
</svg>
