<svg width="51" height="44" viewBox="0 0 51 44" fill="none" xmlns="http://www.w3.org/2000/svg">
<path d="M45.0653 10.7124C45.0871 11.1786 45.0953 11.6506 45.0953 12.1169C45.0953 26.4787 34.7349 43.0337 15.7903 43.0337C9.97024 43.0337 4.55946 41.2348 0 38.1495C2.69686 38.4935 5.43156 38.2735 8.04778 37.5021C10.664 36.7307 13.1105 35.4231 15.2473 33.6539C13.0983 33.611 11.0158 32.8609 9.29076 31.5084C7.56577 30.1558 6.28458 28.2685 5.62634 26.1103C7.17088 26.415 8.7605 26.3511 10.2786 25.9232C7.9473 25.4246 5.85117 24.0911 4.3454 22.1488C2.83962 20.2064 2.01682 17.7746 2.01642 15.2656V15.1303C3.44674 15.9695 5.04642 16.4363 6.6823 16.4916C4.49909 14.9564 2.95363 12.6002 2.36136 9.90392C1.76909 7.20766 2.17467 4.37461 3.49531 1.98304C6.08143 5.34025 9.30815 8.08609 12.9659 10.0422C16.6236 11.9983 20.6306 13.121 24.7264 13.3372C24.5492 12.5245 24.4604 11.6931 24.4617 10.8592C24.4617 9.43287 24.7281 8.02056 25.2457 6.70288C25.7632 5.3852 26.5218 4.18797 27.478 3.17957C28.4343 2.17116 29.5695 1.37135 30.8189 0.825792C32.0682 0.280238 33.4072 -0.000363594 34.7594 1.44305e-05C36.1686 -0.00240969 37.5633 0.300605 38.8568 0.890262C40.1504 1.47992 41.3154 2.34364 42.2794 3.42785C44.5854 2.94634 46.797 2.05486 48.8198 0.791498C48.0505 3.30756 46.4408 5.44317 44.2904 6.80101C46.332 6.5457 48.326 5.96945 50.2059 5.09141C48.8249 7.27428 47.0837 9.17809 45.0653 10.7124Z" fill="url(#paint0_linear)"/>
<defs>
<linearGradient id="paint0_linear" x1="29.9902" y1="12.9014" x2="39.6773" y2="67.8684" gradientUnits="userSpaceOnUse">
<stop stop-color="white"/>
<stop offset="1" stop-color="#ACACAC"/>
</linearGradient>
</defs>
</svg>
